G75*
%MOIN*%
%OFA0B0*%
%FSLAX25Y25*%
%IPPOS*%
%LPD*%
%AMOC8*
5,1,8,0,0,1.08239X$1,22.5*
%
%ADD10R,0.07283X0.07283*%
%ADD11C,0.07283*%
%ADD12R,0.04000X0.02000*%
%ADD13C,0.00500*%
%ADD14C,0.06000*%
%ADD15R,0.06300X0.04600*%
%ADD16C,0.05543*%
%ADD17R,0.02000X0.04000*%
%ADD18C,0.02400*%
%ADD19C,0.03962*%
%ADD20C,0.05000*%
%ADD21C,0.03200*%
%ADD22C,0.05600*%
%ADD23C,0.04000*%
%ADD24C,0.03569*%
%ADD25C,0.01600*%
D10*
X0035081Y0021113D03*
X0062550Y0021113D03*
X0090111Y0021087D03*
X0117759Y0021073D03*
X0145095Y0021093D03*
D11*
X0131316Y0021093D03*
X0103980Y0021073D03*
X0076331Y0021087D03*
X0048770Y0021113D03*
X0021302Y0021113D03*
D12*
G36*
X0124288Y0037256D02*
X0122616Y0040889D01*
X0124432Y0041724D01*
X0126104Y0038091D01*
X0124288Y0037256D01*
G37*
G36*
X0128264Y0029646D02*
X0126592Y0033279D01*
X0128408Y0034114D01*
X0130080Y0030481D01*
X0128264Y0029646D01*
G37*
G36*
X0133172Y0036688D02*
X0131500Y0040321D01*
X0133316Y0041156D01*
X0134988Y0037523D01*
X0133172Y0036688D01*
G37*
G36*
X0141670Y0050906D02*
X0139041Y0053919D01*
X0140548Y0055234D01*
X0143177Y0052221D01*
X0141670Y0050906D01*
G37*
G36*
X0147633Y0044729D02*
X0145004Y0047742D01*
X0146511Y0049057D01*
X0149140Y0046044D01*
X0147633Y0044729D01*
G37*
G36*
X0150353Y0052870D02*
X0147724Y0055883D01*
X0149231Y0057198D01*
X0151860Y0054185D01*
X0150353Y0052870D01*
G37*
D13*
X0150863Y0051462D02*
X0150180Y0051345D01*
X0149487Y0051363D01*
X0148811Y0051516D01*
X0148178Y0051798D01*
X0147612Y0052199D01*
X0147135Y0052702D01*
X0146766Y0053288D01*
X0146518Y0053935D01*
X0146401Y0054618D01*
X0146435Y0055175D01*
X0146360Y0055727D01*
X0146178Y0056255D01*
X0145897Y0056737D01*
X0145528Y0057154D01*
X0145084Y0057492D01*
X0144583Y0057737D01*
X0144043Y0057879D01*
X0149674Y0058397D01*
X0150367Y0058379D01*
X0151043Y0058226D01*
X0151676Y0057944D01*
X0152242Y0057543D01*
X0152719Y0057041D01*
X0153088Y0056454D01*
X0153336Y0055807D01*
X0153453Y0055124D01*
X0153435Y0054431D01*
X0153282Y0053755D01*
X0153000Y0053122D01*
X0152599Y0052556D01*
X0152096Y0052080D01*
X0151510Y0051710D01*
X0150863Y0051462D01*
X0151201Y0051591D02*
X0148643Y0051591D01*
X0147766Y0052090D02*
X0152107Y0052090D01*
X0152622Y0052588D02*
X0147243Y0052588D01*
X0146892Y0053087D02*
X0152975Y0053087D01*
X0153206Y0053586D02*
X0146652Y0053586D01*
X0146492Y0054084D02*
X0153356Y0054084D01*
X0153439Y0054583D02*
X0146407Y0054583D01*
X0146429Y0055081D02*
X0153452Y0055081D01*
X0153375Y0055580D02*
X0146380Y0055580D01*
X0146239Y0056078D02*
X0153232Y0056078D01*
X0153011Y0056577D02*
X0145991Y0056577D01*
X0145598Y0057075D02*
X0152686Y0057075D01*
X0152199Y0057574D02*
X0144917Y0057574D01*
X0146143Y0058072D02*
X0151388Y0058072D01*
X0144621Y0054647D02*
X0144826Y0053985D01*
X0144898Y0053296D01*
X0144835Y0052606D01*
X0144637Y0051941D01*
X0144315Y0051328D01*
X0143878Y0050790D01*
X0143345Y0050347D01*
X0142849Y0050134D01*
X0142403Y0049829D01*
X0142026Y0049442D01*
X0141732Y0048990D01*
X0141531Y0048489D01*
X0141432Y0047958D01*
X0141438Y0047418D01*
X0141550Y0046890D01*
X0138435Y0051292D01*
X0138105Y0051901D01*
X0137900Y0052563D01*
X0137828Y0053252D01*
X0137891Y0053942D01*
X0138088Y0054607D01*
X0138411Y0055220D01*
X0138848Y0055759D01*
X0139381Y0056202D01*
X0139990Y0056532D01*
X0140652Y0056737D01*
X0141341Y0056809D01*
X0142031Y0056746D01*
X0142696Y0056549D01*
X0143309Y0056226D01*
X0143847Y0055789D01*
X0144290Y0055256D01*
X0144621Y0054647D01*
X0144641Y0054583D02*
X0138081Y0054583D01*
X0137933Y0054084D02*
X0144795Y0054084D01*
X0144868Y0053586D02*
X0137858Y0053586D01*
X0137845Y0053087D02*
X0144879Y0053087D01*
X0144830Y0052588D02*
X0137897Y0052588D01*
X0138046Y0052090D02*
X0144682Y0052090D01*
X0144453Y0051591D02*
X0138273Y0051591D01*
X0138576Y0051093D02*
X0144124Y0051093D01*
X0143643Y0050594D02*
X0138929Y0050594D01*
X0139282Y0050096D02*
X0142793Y0050096D01*
X0142178Y0049597D02*
X0139634Y0049597D01*
X0139987Y0049099D02*
X0141803Y0049099D01*
X0141576Y0048600D02*
X0140340Y0048600D01*
X0140692Y0048102D02*
X0141459Y0048102D01*
X0141436Y0047603D02*
X0141045Y0047603D01*
X0141398Y0047105D02*
X0141505Y0047105D01*
X0143411Y0046953D02*
X0143438Y0046260D01*
X0143600Y0045586D01*
X0143890Y0044957D01*
X0144297Y0044396D01*
X0144806Y0043925D01*
X0145396Y0043563D01*
X0146047Y0043323D01*
X0146731Y0043214D01*
X0147424Y0043241D01*
X0148098Y0043402D01*
X0148727Y0043692D01*
X0149288Y0044099D01*
X0149759Y0044608D01*
X0150121Y0045199D01*
X0152489Y0050409D01*
X0152103Y0050005D01*
X0151645Y0049684D01*
X0151133Y0049458D01*
X0150588Y0049337D01*
X0150029Y0049324D01*
X0149478Y0049421D01*
X0148957Y0049623D01*
X0148485Y0049923D01*
X0147835Y0050164D01*
X0147150Y0050272D01*
X0146458Y0050245D01*
X0145784Y0050084D01*
X0145154Y0049794D01*
X0144593Y0049387D01*
X0144123Y0048878D01*
X0143760Y0048287D01*
X0143520Y0047637D01*
X0143411Y0046953D01*
X0143435Y0047105D02*
X0150987Y0047105D01*
X0150761Y0046606D02*
X0143425Y0046606D01*
X0143475Y0046108D02*
X0150534Y0046108D01*
X0150308Y0045609D02*
X0143594Y0045609D01*
X0143819Y0045111D02*
X0150067Y0045111D01*
X0149761Y0044612D02*
X0144140Y0044612D01*
X0144602Y0044114D02*
X0149301Y0044114D01*
X0148560Y0043615D02*
X0145311Y0043615D01*
X0143515Y0047603D02*
X0151214Y0047603D01*
X0151441Y0048102D02*
X0143692Y0048102D01*
X0143952Y0048600D02*
X0151667Y0048600D01*
X0151894Y0049099D02*
X0144327Y0049099D01*
X0144883Y0049597D02*
X0149023Y0049597D01*
X0148018Y0050096D02*
X0145834Y0050096D01*
X0144385Y0055081D02*
X0138338Y0055081D01*
X0138703Y0055580D02*
X0144022Y0055580D01*
X0143491Y0056078D02*
X0139232Y0056078D01*
X0140134Y0056577D02*
X0142602Y0056577D01*
X0151449Y0049597D02*
X0152120Y0049597D01*
X0152190Y0050096D02*
X0152347Y0050096D01*
X0136303Y0040638D02*
X0136618Y0040021D01*
X0136807Y0039354D01*
X0136863Y0038663D01*
X0136782Y0037975D01*
X0136569Y0037315D01*
X0136231Y0036710D01*
X0135782Y0036182D01*
X0135238Y0035753D01*
X0134621Y0035437D01*
X0133954Y0035248D01*
X0133263Y0035193D01*
X0132575Y0035273D01*
X0131915Y0035487D01*
X0131310Y0035825D01*
X0130782Y0036274D01*
X0130353Y0036818D01*
X0130037Y0037435D01*
X0129848Y0038102D01*
X0129793Y0038792D01*
X0129873Y0039481D01*
X0130063Y0040005D01*
X0130147Y0040556D01*
X0130122Y0041114D01*
X0129989Y0041655D01*
X0129752Y0042160D01*
X0129422Y0042609D01*
X0129010Y0042986D01*
X0128533Y0043274D01*
X0134081Y0042182D01*
X0134740Y0041969D01*
X0135345Y0041631D01*
X0135873Y0041182D01*
X0136303Y0040638D01*
X0136310Y0040624D02*
X0130144Y0040624D01*
X0130120Y0041123D02*
X0135919Y0041123D01*
X0135357Y0041621D02*
X0129997Y0041621D01*
X0129771Y0042120D02*
X0134273Y0042120D01*
X0131865Y0042618D02*
X0129412Y0042618D01*
X0129332Y0043117D02*
X0128793Y0043117D01*
X0127361Y0041896D02*
X0127755Y0041325D01*
X0128029Y0040689D01*
X0128174Y0040011D01*
X0128184Y0039318D01*
X0128059Y0038636D01*
X0127803Y0037992D01*
X0127426Y0037410D01*
X0126943Y0036913D01*
X0126373Y0036520D01*
X0125736Y0036246D01*
X0125200Y0036182D01*
X0124687Y0036015D01*
X0124216Y0035751D01*
X0123805Y0035400D01*
X0123471Y0034976D01*
X0123226Y0034494D01*
X0123080Y0033975D01*
X0123038Y0033436D01*
X0121293Y0038539D01*
X0121148Y0039216D01*
X0121138Y0039909D01*
X0121264Y0040591D01*
X0121520Y0041235D01*
X0121896Y0041817D01*
X0122379Y0042314D01*
X0122950Y0042707D01*
X0123586Y0042982D01*
X0124264Y0043127D01*
X0124957Y0043137D01*
X0125639Y0043011D01*
X0126283Y0042755D01*
X0126864Y0042379D01*
X0127361Y0041896D01*
X0127131Y0042120D02*
X0122190Y0042120D01*
X0121770Y0041621D02*
X0127551Y0041621D01*
X0127842Y0041123D02*
X0121475Y0041123D01*
X0121277Y0040624D02*
X0128043Y0040624D01*
X0128150Y0040126D02*
X0121178Y0040126D01*
X0121142Y0039627D02*
X0128180Y0039627D01*
X0128149Y0039129D02*
X0121167Y0039129D01*
X0121274Y0038630D02*
X0128056Y0038630D01*
X0127858Y0038132D02*
X0121432Y0038132D01*
X0121603Y0037633D02*
X0127570Y0037633D01*
X0127158Y0037135D02*
X0121773Y0037135D01*
X0121944Y0036636D02*
X0126541Y0036636D01*
X0125064Y0036138D02*
X0122114Y0036138D01*
X0122285Y0035639D02*
X0124085Y0035639D01*
X0123601Y0035141D02*
X0122455Y0035141D01*
X0122626Y0034642D02*
X0123302Y0034642D01*
X0123128Y0034144D02*
X0122796Y0034144D01*
X0122967Y0033645D02*
X0123054Y0033645D01*
X0124841Y0032971D02*
X0125139Y0033597D01*
X0125553Y0034153D01*
X0126067Y0034617D01*
X0126663Y0034973D01*
X0127316Y0035205D01*
X0128001Y0035305D01*
X0128693Y0035270D01*
X0129365Y0035100D01*
X0129991Y0034803D01*
X0130547Y0034389D01*
X0130915Y0033968D01*
X0131358Y0033626D01*
X0131859Y0033378D01*
X0132399Y0033232D01*
X0132957Y0033194D01*
X0133511Y0033266D01*
X0134041Y0033445D01*
X0134526Y0033724D01*
X0130783Y0029394D01*
X0130269Y0028930D01*
X0129673Y0028575D01*
X0129020Y0028342D01*
X0128335Y0028242D01*
X0127642Y0028277D01*
X0126970Y0028447D01*
X0126345Y0028745D01*
X0125789Y0029159D01*
X0125324Y0029673D01*
X0124969Y0030268D01*
X0124737Y0030921D01*
X0124636Y0031607D01*
X0124672Y0032299D01*
X0124841Y0032971D01*
X0124925Y0033147D02*
X0134027Y0033147D01*
X0134389Y0033645D02*
X0134458Y0033645D01*
X0133596Y0032648D02*
X0124760Y0032648D01*
X0124664Y0032150D02*
X0133165Y0032150D01*
X0132734Y0031651D02*
X0124639Y0031651D01*
X0124703Y0031152D02*
X0132303Y0031152D01*
X0131872Y0030654D02*
X0124832Y0030654D01*
X0125036Y0030155D02*
X0131441Y0030155D01*
X0131010Y0029657D02*
X0125339Y0029657D01*
X0125789Y0029158D02*
X0130522Y0029158D01*
X0129816Y0028660D02*
X0126523Y0028660D01*
X0125175Y0033645D02*
X0131334Y0033645D01*
X0130761Y0034144D02*
X0125546Y0034144D01*
X0126109Y0034642D02*
X0130207Y0034642D01*
X0129205Y0035141D02*
X0127135Y0035141D01*
X0129981Y0037633D02*
X0136672Y0037633D01*
X0136800Y0038132D02*
X0129846Y0038132D01*
X0129806Y0038630D02*
X0136859Y0038630D01*
X0136825Y0039129D02*
X0129832Y0039129D01*
X0129926Y0039627D02*
X0136730Y0039627D01*
X0136565Y0040126D02*
X0130082Y0040126D01*
X0130191Y0037135D02*
X0136468Y0037135D01*
X0136168Y0036636D02*
X0130496Y0036636D01*
X0130943Y0036138D02*
X0135725Y0036138D01*
X0135016Y0035639D02*
X0131642Y0035639D01*
X0126494Y0042618D02*
X0122821Y0042618D01*
X0124217Y0043117D02*
X0125065Y0043117D01*
X0129426Y0140551D02*
X0128735Y0140613D01*
X0128070Y0140809D01*
X0127456Y0141130D01*
X0126917Y0141565D01*
X0126472Y0142097D01*
X0126140Y0142705D01*
X0125933Y0143367D01*
X0125859Y0144056D01*
X0125921Y0144746D01*
X0126116Y0145411D01*
X0126438Y0146025D01*
X0126873Y0146565D01*
X0127405Y0147009D01*
X0128013Y0147341D01*
X0128674Y0147548D01*
X0129364Y0147622D01*
X0130054Y0147560D01*
X0130719Y0147365D01*
X0131333Y0147043D01*
X0131872Y0146608D01*
X0132317Y0146077D01*
X0132649Y0145468D01*
X0132807Y0144932D01*
X0133067Y0144437D01*
X0133418Y0144002D01*
X0133848Y0143644D01*
X0134339Y0143376D01*
X0134873Y0143210D01*
X0135429Y0143151D01*
X0135986Y0143201D01*
X0130776Y0140832D01*
X0130115Y0140625D01*
X0129426Y0140551D01*
X0130753Y0140825D02*
X0128039Y0140825D01*
X0127216Y0141323D02*
X0131856Y0141323D01*
X0132952Y0141822D02*
X0126702Y0141822D01*
X0126350Y0142321D02*
X0134049Y0142321D01*
X0134528Y0143318D02*
X0125949Y0143318D01*
X0125885Y0143816D02*
X0133641Y0143816D01*
X0133166Y0144315D02*
X0125882Y0144315D01*
X0125941Y0144813D02*
X0132869Y0144813D01*
X0132695Y0145312D02*
X0126087Y0145312D01*
X0126325Y0145810D02*
X0132462Y0145810D01*
X0132123Y0146309D02*
X0126666Y0146309D01*
X0127163Y0146807D02*
X0131626Y0146807D01*
X0130832Y0147306D02*
X0127948Y0147306D01*
X0128004Y0149394D02*
X0127466Y0149351D01*
X0126946Y0149204D01*
X0126466Y0148958D01*
X0126042Y0148623D01*
X0125692Y0148212D01*
X0125429Y0147741D01*
X0125976Y0153105D01*
X0126127Y0153782D01*
X0126408Y0154416D01*
X0126806Y0154982D01*
X0127308Y0155461D01*
X0127893Y0155832D01*
X0128540Y0156082D01*
X0129223Y0156200D01*
X0129915Y0156184D01*
X0130592Y0156032D01*
X0131226Y0155752D01*
X0131792Y0155353D01*
X0132271Y0154851D01*
X0132642Y0154266D01*
X0132892Y0153620D01*
X0133010Y0152937D01*
X0132994Y0152244D01*
X0132842Y0151568D01*
X0132562Y0150934D01*
X0132163Y0150367D01*
X0131661Y0149889D01*
X0131076Y0149518D01*
X0130430Y0149268D01*
X0129747Y0149149D01*
X0129054Y0149166D01*
X0128540Y0149332D01*
X0128004Y0149394D01*
X0128639Y0149300D02*
X0130512Y0149300D01*
X0131518Y0149798D02*
X0125638Y0149798D01*
X0125588Y0149300D02*
X0127284Y0149300D01*
X0126267Y0148801D02*
X0125537Y0148801D01*
X0125486Y0148303D02*
X0125769Y0148303D01*
X0125464Y0147804D02*
X0125435Y0147804D01*
X0125689Y0150297D02*
X0132089Y0150297D01*
X0132464Y0150795D02*
X0125740Y0150795D01*
X0125791Y0151294D02*
X0132721Y0151294D01*
X0132893Y0151792D02*
X0125842Y0151792D01*
X0125893Y0152291D02*
X0132995Y0152291D01*
X0133007Y0152789D02*
X0125943Y0152789D01*
X0126016Y0153288D02*
X0132949Y0153288D01*
X0132827Y0153786D02*
X0126129Y0153786D01*
X0126350Y0154285D02*
X0132630Y0154285D01*
X0132314Y0154783D02*
X0126666Y0154783D01*
X0127120Y0155282D02*
X0131860Y0155282D01*
X0131161Y0155780D02*
X0127812Y0155780D01*
X0133565Y0149133D02*
X0133458Y0148449D01*
X0133487Y0147756D01*
X0133650Y0147083D01*
X0133942Y0146454D01*
X0134351Y0145894D01*
X0134861Y0145425D01*
X0135452Y0145064D01*
X0136103Y0144826D01*
X0136788Y0144719D01*
X0137480Y0144747D01*
X0138154Y0144911D01*
X0138783Y0145202D01*
X0139342Y0145611D01*
X0139812Y0146121D01*
X0140173Y0146713D01*
X0140411Y0147363D01*
X0140518Y0148048D01*
X0140489Y0148741D01*
X0140326Y0149414D01*
X0140034Y0150043D01*
X0139626Y0150603D01*
X0139116Y0151072D01*
X0134532Y0154383D01*
X0134845Y0153921D01*
X0135062Y0153407D01*
X0135174Y0152861D01*
X0135178Y0152303D01*
X0135073Y0151755D01*
X0134863Y0151239D01*
X0134556Y0150773D01*
X0134164Y0150376D01*
X0133804Y0149784D01*
X0133565Y0149133D01*
X0133626Y0149300D02*
X0140354Y0149300D01*
X0140474Y0148801D02*
X0133513Y0148801D01*
X0133464Y0148303D02*
X0140507Y0148303D01*
X0140480Y0147804D02*
X0133485Y0147804D01*
X0133596Y0147306D02*
X0140390Y0147306D01*
X0140207Y0146807D02*
X0133778Y0146807D01*
X0134048Y0146309D02*
X0139926Y0146309D01*
X0139526Y0145810D02*
X0134442Y0145810D01*
X0135046Y0145312D02*
X0138932Y0145312D01*
X0137751Y0144813D02*
X0136183Y0144813D01*
X0135145Y0142819D02*
X0126105Y0142819D01*
X0133812Y0149798D02*
X0140148Y0149798D01*
X0139849Y0150297D02*
X0134116Y0150297D01*
X0134571Y0150795D02*
X0139416Y0150795D01*
X0138809Y0151294D02*
X0134885Y0151294D01*
X0135080Y0151792D02*
X0138118Y0151792D01*
X0137428Y0152291D02*
X0135175Y0152291D01*
X0135175Y0152789D02*
X0136738Y0152789D01*
X0136048Y0153288D02*
X0135086Y0153288D01*
X0134901Y0153786D02*
X0135357Y0153786D01*
X0134667Y0154285D02*
X0134598Y0154285D01*
D14*
X0146361Y0156143D02*
X0152361Y0156143D01*
X0152361Y0146143D02*
X0146361Y0146143D01*
X0146361Y0136143D02*
X0152361Y0136143D01*
X0152361Y0126143D02*
X0146361Y0126143D01*
X0146361Y0116143D02*
X0152361Y0116143D01*
X0152361Y0106143D02*
X0146361Y0106143D01*
X0146361Y0096143D02*
X0152361Y0096143D01*
X0152361Y0086143D02*
X0146361Y0086143D01*
X0146361Y0166143D02*
X0152361Y0166143D01*
X0151890Y0181893D02*
X0156140Y0186128D01*
X0149081Y0193211D02*
X0144831Y0188976D01*
X0137772Y0196060D02*
X0142022Y0200295D01*
X0134964Y0207378D02*
X0130714Y0203143D01*
D15*
X0062701Y0089776D03*
X0062701Y0083776D03*
X0062701Y0077776D03*
X0012451Y0049172D03*
X0012451Y0043172D03*
D16*
X0022742Y0040546D03*
X0022742Y0049208D03*
X0022742Y0057869D03*
X0022742Y0070468D03*
X0042820Y0070468D03*
X0042820Y0057869D03*
X0042820Y0049208D03*
X0042820Y0040546D03*
D17*
X0129592Y0144113D03*
X0129159Y0152688D03*
X0136994Y0148460D03*
D18*
X0140546Y0152823D02*
X0139956Y0153366D01*
X0139803Y0153360D01*
X0136176Y0155979D01*
X0135875Y0156423D01*
X0135448Y0156505D01*
X0135095Y0156760D01*
X0134566Y0156674D01*
X0134039Y0156775D01*
X0133857Y0156652D01*
X0133856Y0156661D01*
X0133747Y0156738D01*
X0133676Y0156850D01*
X0133547Y0156879D01*
X0133273Y0157071D01*
X0133042Y0157314D01*
X0132994Y0157438D01*
X0132873Y0157491D01*
X0132781Y0157587D01*
X0132649Y0157590D01*
X0132342Y0157726D01*
X0132068Y0157919D01*
X0131997Y0158031D01*
X0131868Y0158060D01*
X0131759Y0158136D01*
X0131629Y0158113D01*
X0131302Y0158186D01*
X0130996Y0158322D01*
X0130904Y0158418D01*
X0130772Y0158421D01*
X0130650Y0158475D01*
X0130527Y0158427D01*
X0130192Y0158435D01*
X0129865Y0158508D01*
X0129756Y0158584D01*
X0129626Y0158562D01*
X0129496Y0158591D01*
X0129384Y0158520D01*
X0129054Y0158462D01*
X0128720Y0158470D01*
X0128598Y0158524D01*
X0128475Y0158476D01*
X0128342Y0158479D01*
X0128246Y0158388D01*
X0127934Y0158267D01*
X0127604Y0158210D01*
X0127474Y0158239D01*
X0127362Y0158168D01*
X0127232Y0158145D01*
X0127155Y0158036D01*
X0126872Y0157857D01*
X0126560Y0157736D01*
X0126427Y0157739D01*
X0126331Y0157648D01*
X0126208Y0157600D01*
X0126154Y0157479D01*
X0125912Y0157248D01*
X0125629Y0157068D01*
X0125498Y0157046D01*
X0125422Y0156937D01*
X0125310Y0156866D01*
X0125281Y0156737D01*
X0125088Y0156463D01*
X0124959Y0156340D01*
X0124835Y0156355D01*
X0124623Y0156295D01*
X0124402Y0156295D01*
X0123938Y0156103D01*
X0123454Y0155967D01*
X0123280Y0155831D01*
X0123076Y0155746D01*
X0122721Y0155391D01*
X0119997Y0153248D01*
X0111425Y0153248D01*
X0111614Y0153437D01*
X0112192Y0154830D01*
X0112192Y0156339D01*
X0111614Y0157732D01*
X0110548Y0158799D01*
X0109154Y0159376D01*
X0107646Y0159376D01*
X0107203Y0159192D01*
X0098145Y0159198D01*
X0098620Y0160343D01*
X0098620Y0161852D01*
X0098042Y0163245D01*
X0096976Y0164312D01*
X0095582Y0164889D01*
X0094074Y0164889D01*
X0092681Y0164312D01*
X0092674Y0164305D01*
X0073952Y0164305D01*
X0073472Y0164784D01*
X0072079Y0165361D01*
X0070570Y0165361D01*
X0069177Y0164784D01*
X0068110Y0163718D01*
X0067533Y0162324D01*
X0067533Y0160816D01*
X0068110Y0159422D01*
X0068318Y0159215D01*
X0040189Y0159232D01*
X0033379Y0164256D01*
X0033357Y0164308D01*
X0032291Y0165375D01*
X0030897Y0165952D01*
X0029389Y0165952D01*
X0027996Y0165375D01*
X0026929Y0164308D01*
X0026352Y0162915D01*
X0026352Y0161406D01*
X0026929Y0160013D01*
X0027996Y0158946D01*
X0028973Y0158542D01*
X0036641Y0152884D01*
X0036957Y0152568D01*
X0037214Y0152462D01*
X0037437Y0152297D01*
X0037870Y0152189D01*
X0038282Y0152019D01*
X0038560Y0152018D01*
X0038830Y0151951D01*
X0039271Y0152018D01*
X0069975Y0152000D01*
X0069882Y0151907D01*
X0069305Y0150513D01*
X0069305Y0149005D01*
X0069837Y0147720D01*
X0041638Y0147720D01*
X0040755Y0148603D01*
X0039362Y0149180D01*
X0037854Y0149180D01*
X0036460Y0148603D01*
X0035394Y0147537D01*
X0034817Y0146143D01*
X0034817Y0144635D01*
X0035394Y0143241D01*
X0036460Y0142175D01*
X0036905Y0141991D01*
X0037840Y0141055D01*
X0039166Y0140506D01*
X0124760Y0140506D01*
X0124772Y0140394D01*
X0124875Y0140311D01*
X0124939Y0140195D01*
X0125066Y0140157D01*
X0125327Y0139947D01*
X0125542Y0139690D01*
X0125581Y0139564D01*
X0125699Y0139502D01*
X0125784Y0139400D01*
X0125916Y0139389D01*
X0126213Y0139233D01*
X0126473Y0139023D01*
X0126537Y0138907D01*
X0126664Y0138869D01*
X0126767Y0138786D01*
X0126899Y0138800D01*
X0127221Y0138706D01*
X0127517Y0138550D01*
X0127602Y0138449D01*
X0127735Y0138437D01*
X0127852Y0138375D01*
X0127979Y0138415D01*
X0128312Y0138385D01*
X0128634Y0138291D01*
X0128737Y0138207D01*
X0128869Y0138222D01*
X0128996Y0138184D01*
X0129112Y0138248D01*
X0129445Y0138283D01*
X0129779Y0138254D01*
X0129896Y0138192D01*
X0130023Y0138232D01*
X0130155Y0138220D01*
X0130257Y0138305D01*
X0130577Y0138405D01*
X0130767Y0138425D01*
X0130859Y0138391D01*
X0130988Y0138449D01*
X0131285Y0138481D01*
X0131417Y0138644D01*
X0131583Y0138720D01*
X0132342Y0138957D01*
X0132416Y0139099D01*
X0136155Y0140799D01*
X0136155Y0137182D01*
X0136704Y0135856D01*
X0138459Y0134100D01*
X0139474Y0133085D01*
X0140800Y0132536D01*
X0142887Y0132536D01*
X0143525Y0131899D01*
X0145348Y0131143D01*
X0143525Y0130388D01*
X0142116Y0128980D01*
X0141354Y0127139D01*
X0141354Y0125147D01*
X0142116Y0123307D01*
X0143525Y0121899D01*
X0145166Y0121219D01*
X0145143Y0121215D01*
X0144365Y0120962D01*
X0143636Y0120591D01*
X0142974Y0120110D01*
X0142395Y0119531D01*
X0141914Y0118869D01*
X0141542Y0118140D01*
X0141289Y0117361D01*
X0141161Y0116553D01*
X0141161Y0116143D01*
X0141161Y0115734D01*
X0141289Y0114926D01*
X0141542Y0114147D01*
X0141914Y0113418D01*
X0142395Y0112756D01*
X0142974Y0112177D01*
X0143636Y0111696D01*
X0144365Y0111324D01*
X0145143Y0111071D01*
X0145166Y0111068D01*
X0143525Y0110388D01*
X0142116Y0108980D01*
X0141354Y0107139D01*
X0141354Y0105147D01*
X0142116Y0103307D01*
X0143525Y0101899D01*
X0145348Y0101143D01*
X0143525Y0100388D01*
X0142116Y0098980D01*
X0141354Y0097139D01*
X0141354Y0095147D01*
X0142116Y0093307D01*
X0143525Y0091899D01*
X0145348Y0091143D01*
X0143525Y0090388D01*
X0142116Y0088980D01*
X0141354Y0087139D01*
X0141354Y0085147D01*
X0142116Y0083307D01*
X0143525Y0081899D01*
X0145365Y0081136D01*
X0145758Y0081136D01*
X0145776Y0060305D01*
X0144233Y0060163D01*
X0143714Y0060299D01*
X0143339Y0060080D01*
X0142905Y0060040D01*
X0142563Y0059628D01*
X0142099Y0059358D01*
X0142043Y0059146D01*
X0142036Y0059152D01*
X0141904Y0059138D01*
X0141777Y0059175D01*
X0141660Y0059112D01*
X0141327Y0059077D01*
X0140994Y0059108D01*
X0140876Y0059170D01*
X0140750Y0059131D01*
X0140618Y0059143D01*
X0140516Y0059058D01*
X0140196Y0058959D01*
X0139863Y0058924D01*
X0139736Y0058962D01*
X0139619Y0058899D01*
X0139487Y0058885D01*
X0139403Y0058782D01*
X0139109Y0058622D01*
X0138924Y0058565D01*
X0135738Y0060835D01*
X0135468Y0061102D01*
X0135223Y0061202D01*
X0135008Y0061355D01*
X0134638Y0061440D01*
X0134286Y0061584D01*
X0134022Y0061582D01*
X0133765Y0061642D01*
X0133390Y0061579D01*
X0115165Y0061477D01*
X0106185Y0070458D01*
X0106185Y0124185D01*
X0106219Y0124283D01*
X0106185Y0124820D01*
X0106185Y0125358D01*
X0106145Y0125453D01*
X0106113Y0125968D01*
X0106168Y0126758D01*
X0106516Y0127106D01*
X0107124Y0128572D01*
X0107124Y0130159D01*
X0106516Y0131624D01*
X0106123Y0132018D01*
X0115322Y0132018D01*
X0115767Y0131834D01*
X0117275Y0131834D01*
X0118669Y0132411D01*
X0119735Y0133478D01*
X0120313Y0134871D01*
X0120313Y0136379D01*
X0119735Y0137773D01*
X0118669Y0138839D01*
X0117275Y0139417D01*
X0115767Y0139417D01*
X0115322Y0139232D01*
X0026862Y0139232D01*
X0026172Y0139242D01*
X0026146Y0139232D01*
X0026119Y0139232D01*
X0025480Y0138968D01*
X0024838Y0138713D01*
X0024818Y0138694D01*
X0024793Y0138683D01*
X0024304Y0138194D01*
X0023808Y0137713D01*
X0023798Y0137688D01*
X0023778Y0137668D01*
X0023514Y0137030D01*
X0021455Y0132258D01*
X0020703Y0131506D01*
X0020096Y0130041D01*
X0020096Y0128454D01*
X0020703Y0126988D01*
X0021034Y0126658D01*
X0014644Y0126651D01*
X0014637Y0149743D01*
X0013950Y0151399D01*
X0012682Y0152667D01*
X0011025Y0153352D01*
X0009232Y0153352D01*
X0008352Y0152987D01*
X0008385Y0205653D01*
X0008385Y0205654D01*
X0008385Y0206291D01*
X0008486Y0207573D01*
X0009279Y0210013D01*
X0010787Y0212089D01*
X0012862Y0213597D01*
X0015302Y0214390D01*
X0016585Y0214491D01*
X0053367Y0214491D01*
X0054462Y0214404D01*
X0056545Y0213728D01*
X0058317Y0212440D01*
X0059604Y0210668D01*
X0060281Y0208586D01*
X0060367Y0207494D01*
X0060367Y0207471D01*
X0060367Y0206854D01*
X0060375Y0206835D01*
X0060448Y0201040D01*
X0060269Y0199844D01*
X0060752Y0196949D01*
X0062106Y0194344D01*
X0064198Y0192286D01*
X0064198Y0192286D01*
X0066825Y0190974D01*
X0067889Y0190815D01*
X0068115Y0190721D01*
X0068512Y0190721D01*
X0068906Y0190662D01*
X0069143Y0190721D01*
X0112612Y0190721D01*
X0114141Y0190611D01*
X0117339Y0191401D01*
X0120136Y0193141D01*
X0122259Y0195660D01*
X0122259Y0195660D01*
X0123499Y0198712D01*
X0123499Y0198712D01*
X0123580Y0199833D01*
X0123624Y0199937D01*
X0123626Y0200464D01*
X0123663Y0200990D01*
X0123628Y0201097D01*
X0123664Y0210627D01*
X0123716Y0210809D01*
X0123666Y0211258D01*
X0123668Y0211710D01*
X0123641Y0211775D01*
X0123638Y0211980D01*
X0123935Y0213010D01*
X0124604Y0213848D01*
X0125542Y0214366D01*
X0125975Y0214458D01*
X0149980Y0214458D01*
X0148099Y0212576D01*
X0146955Y0209815D01*
X0146955Y0206827D01*
X0148099Y0204066D01*
X0150212Y0201953D01*
X0152973Y0200809D01*
X0155961Y0200809D01*
X0158722Y0201953D01*
X0160835Y0204066D01*
X0161979Y0206827D01*
X0161979Y0209815D01*
X0161644Y0210624D01*
X0161889Y0210278D01*
X0162589Y0208035D01*
X0162667Y0206862D01*
X0162667Y0206840D01*
X0162660Y0206222D01*
X0162667Y0206204D01*
X0162667Y0022866D01*
X0162637Y0022780D01*
X0162667Y0022233D01*
X0162667Y0021685D01*
X0162667Y0021684D01*
X0162655Y0020481D01*
X0161975Y0017233D01*
X0160477Y0014271D01*
X0158264Y0011798D01*
X0155486Y0009982D01*
X0152333Y0008947D01*
X0150722Y0008751D01*
X0089871Y0008751D01*
X0092834Y0011715D01*
X0094186Y0013067D01*
X0094918Y0014834D01*
X0094918Y0015773D01*
X0095760Y0016614D01*
X0095760Y0025560D01*
X0094584Y0026736D01*
X0085638Y0026736D01*
X0084462Y0025560D01*
X0084462Y0016939D01*
X0083546Y0016023D01*
X0079259Y0016023D01*
X0079393Y0016091D01*
X0080137Y0016632D01*
X0080787Y0017282D01*
X0081328Y0018026D01*
X0081745Y0018845D01*
X0082029Y0019719D01*
X0082173Y0020628D01*
X0082173Y0021087D01*
X0076332Y0021087D01*
X0076332Y0021087D01*
X0082173Y0021087D01*
X0082173Y0021547D01*
X0082029Y0022455D01*
X0081745Y0023330D01*
X0081328Y0024149D01*
X0080787Y0024893D01*
X0080137Y0025543D01*
X0079393Y0026084D01*
X0078574Y0026501D01*
X0077699Y0026785D01*
X0076791Y0026929D01*
X0076332Y0026929D01*
X0076332Y0021088D01*
X0076331Y0021088D01*
X0076331Y0026929D01*
X0075872Y0026929D01*
X0074964Y0026785D01*
X0074089Y0026501D01*
X0073270Y0026084D01*
X0072526Y0025543D01*
X0071876Y0024893D01*
X0071335Y0024149D01*
X0070918Y0023330D01*
X0070634Y0022455D01*
X0070490Y0021547D01*
X0070490Y0021087D01*
X0070490Y0020628D01*
X0070634Y0019719D01*
X0070918Y0018845D01*
X0071335Y0018026D01*
X0071876Y0017282D01*
X0072526Y0016632D01*
X0073270Y0016091D01*
X0073404Y0016023D01*
X0067582Y0016023D01*
X0068198Y0016639D01*
X0068198Y0025586D01*
X0067357Y0026427D01*
X0067357Y0036577D01*
X0066625Y0038343D01*
X0065273Y0039696D01*
X0051725Y0053244D01*
X0049958Y0053976D01*
X0045685Y0053976D01*
X0046872Y0055162D01*
X0047599Y0056919D01*
X0047599Y0058820D01*
X0046872Y0060576D01*
X0045527Y0061920D01*
X0043771Y0062648D01*
X0041870Y0062648D01*
X0040114Y0061920D01*
X0038769Y0060576D01*
X0038042Y0058820D01*
X0038042Y0056919D01*
X0038769Y0055162D01*
X0040114Y0053818D01*
X0040751Y0053554D01*
X0040097Y0053283D01*
X0038745Y0051931D01*
X0038013Y0050164D01*
X0038013Y0048252D01*
X0038745Y0046485D01*
X0038785Y0046445D01*
X0040137Y0045093D01*
X0040686Y0044866D01*
X0040097Y0044622D01*
X0038745Y0043269D01*
X0038013Y0041503D01*
X0038013Y0039590D01*
X0038745Y0037823D01*
X0043963Y0032606D01*
X0043963Y0024268D01*
X0043121Y0022236D01*
X0043121Y0019989D01*
X0043981Y0017913D01*
X0045570Y0016324D01*
X0046297Y0016023D01*
X0040113Y0016023D01*
X0040730Y0016639D01*
X0040730Y0025586D01*
X0039888Y0026427D01*
X0039888Y0029163D01*
X0039156Y0030930D01*
X0025465Y0044622D01*
X0024848Y0044877D01*
X0025465Y0045133D01*
X0026817Y0046485D01*
X0027549Y0048252D01*
X0027549Y0050164D01*
X0026817Y0051931D01*
X0025465Y0053283D01*
X0024811Y0053554D01*
X0025449Y0053818D01*
X0026793Y0055162D01*
X0027520Y0056919D01*
X0027520Y0058820D01*
X0026793Y0060576D01*
X0025449Y0061920D01*
X0023692Y0062648D01*
X0021791Y0062648D01*
X0020035Y0061920D01*
X0018691Y0060576D01*
X0017963Y0058820D01*
X0017963Y0056919D01*
X0018691Y0055162D01*
X0019838Y0054015D01*
X0011531Y0054015D01*
X0010237Y0053479D01*
X0008470Y0053479D01*
X0008290Y0053299D01*
X0008330Y0118009D01*
X0008415Y0117974D01*
X0009243Y0117632D01*
X0009245Y0117632D01*
X0009246Y0117631D01*
X0010133Y0117632D01*
X0011036Y0117632D01*
X0011037Y0117633D01*
X0062644Y0117689D01*
X0062644Y0096094D01*
X0060634Y0094083D01*
X0058719Y0094083D01*
X0058019Y0093383D01*
X0057054Y0093383D01*
X0056928Y0093509D01*
X0055462Y0094116D01*
X0053876Y0094116D01*
X0052410Y0093509D01*
X0051288Y0092387D01*
X0050681Y0090921D01*
X0050681Y0089335D01*
X0051288Y0087869D01*
X0052410Y0086747D01*
X0053876Y0086140D01*
X0055462Y0086140D01*
X0055534Y0086169D01*
X0057544Y0086169D01*
X0057544Y0082497D01*
X0054947Y0082508D01*
X0054319Y0083136D01*
X0054315Y0083144D01*
X0053659Y0083796D01*
X0053002Y0084452D01*
X0052995Y0084455D01*
X0052989Y0084461D01*
X0052133Y0084812D01*
X0051275Y0085168D01*
X0051266Y0085168D01*
X0051259Y0085171D01*
X0050333Y0085168D01*
X0049405Y0085168D01*
X0049397Y0085164D01*
X0043758Y0085145D01*
X0043732Y0090883D01*
X0043732Y0091806D01*
X0043727Y0091816D01*
X0043727Y0091828D01*
X0043370Y0092679D01*
X0043016Y0093533D01*
X0043008Y0093541D01*
X0043004Y0093552D01*
X0042347Y0094202D01*
X0040237Y0096312D01*
X0038510Y0097027D01*
X0036640Y0097027D01*
X0034913Y0096312D01*
X0033590Y0094990D01*
X0032875Y0093262D01*
X0032875Y0091393D01*
X0033590Y0089665D01*
X0034341Y0088915D01*
X0034358Y0085128D01*
X0028817Y0085128D01*
X0028376Y0085220D01*
X0027891Y0085128D01*
X0027397Y0085128D01*
X0026981Y0084956D01*
X0026539Y0084872D01*
X0026126Y0084602D01*
X0025670Y0084413D01*
X0025351Y0084094D01*
X0020417Y0080861D01*
X0019961Y0080673D01*
X0019643Y0080354D01*
X0019266Y0080107D01*
X0018988Y0079699D01*
X0018639Y0079351D01*
X0018467Y0078934D01*
X0018213Y0078562D01*
X0018112Y0078079D01*
X0017924Y0077623D01*
X0017924Y0077173D01*
X0017832Y0076732D01*
X0017924Y0076247D01*
X0017924Y0073098D01*
X0017874Y0072952D01*
X0017924Y0072168D01*
X0017924Y0071827D01*
X0017770Y0071457D01*
X0017770Y0069479D01*
X0018527Y0067652D01*
X0019926Y0066253D01*
X0021753Y0065496D01*
X0023731Y0065496D01*
X0025558Y0066253D01*
X0026956Y0067652D01*
X0027713Y0069479D01*
X0027713Y0071457D01*
X0027329Y0072385D01*
X0027324Y0072468D01*
X0027324Y0074149D01*
X0029735Y0075728D01*
X0038154Y0075728D01*
X0038162Y0075725D01*
X0038165Y0075725D01*
X0038167Y0075724D01*
X0039091Y0075728D01*
X0040015Y0075728D01*
X0040023Y0075732D01*
X0048400Y0075761D01*
X0049661Y0074500D01*
X0050314Y0073842D01*
X0050323Y0073838D01*
X0050330Y0073831D01*
X0051184Y0073477D01*
X0052038Y0073120D01*
X0052048Y0073120D01*
X0052057Y0073116D01*
X0052982Y0073116D01*
X0057510Y0073097D01*
X0057510Y0071403D01*
X0058225Y0069675D01*
X0059547Y0068353D01*
X0061275Y0067637D01*
X0084662Y0067637D01*
X0085149Y0067839D01*
X0087389Y0067839D01*
X0089117Y0068555D01*
X0090439Y0069877D01*
X0091154Y0071605D01*
X0091154Y0090540D01*
X0090439Y0092267D01*
X0089117Y0093589D01*
X0087389Y0094305D01*
X0085519Y0094305D01*
X0083792Y0093589D01*
X0082470Y0092267D01*
X0081754Y0090540D01*
X0081754Y0077037D01*
X0068051Y0077037D01*
X0068051Y0080169D01*
X0076729Y0080169D01*
X0078054Y0080718D01*
X0079069Y0081733D01*
X0080839Y0083503D01*
X0081388Y0084829D01*
X0081388Y0123004D01*
X0081983Y0123607D01*
X0082875Y0123976D01*
X0083997Y0125098D01*
X0084604Y0126564D01*
X0084604Y0128151D01*
X0083997Y0129617D01*
X0082875Y0130738D01*
X0081409Y0131346D01*
X0079822Y0131346D01*
X0078357Y0130738D01*
X0077235Y0129617D01*
X0076842Y0128668D01*
X0075222Y0127026D01*
X0074723Y0126527D01*
X0074718Y0126515D01*
X0074709Y0126506D01*
X0074444Y0125853D01*
X0074174Y0125201D01*
X0074174Y0125188D01*
X0074169Y0125176D01*
X0074174Y0124471D01*
X0074174Y0087383D01*
X0067858Y0087383D01*
X0067858Y0088559D01*
X0069704Y0090406D01*
X0070972Y0091674D01*
X0071658Y0093330D01*
X0071658Y0119538D01*
X0071731Y0120171D01*
X0071658Y0120428D01*
X0071658Y0120695D01*
X0071415Y0121283D01*
X0071240Y0121895D01*
X0071074Y0122105D01*
X0070972Y0122351D01*
X0070922Y0122402D01*
X0070942Y0122917D01*
X0070909Y0123006D01*
X0070909Y0123101D01*
X0070601Y0123844D01*
X0070323Y0124599D01*
X0070258Y0124669D01*
X0070221Y0124757D01*
X0069652Y0125325D01*
X0069106Y0125916D01*
X0069020Y0125956D01*
X0068952Y0126024D01*
X0068209Y0126331D01*
X0067478Y0126668D01*
X0067383Y0126672D01*
X0067295Y0126708D01*
X0066491Y0126707D01*
X0065687Y0126739D01*
X0065597Y0126706D01*
X0027142Y0126665D01*
X0027465Y0126988D01*
X0028073Y0128454D01*
X0028073Y0129386D01*
X0029208Y0132018D01*
X0093426Y0132018D01*
X0092333Y0131565D01*
X0091211Y0130443D01*
X0090604Y0128978D01*
X0090604Y0127391D01*
X0091211Y0125925D01*
X0091366Y0125770D01*
X0091351Y0123712D01*
X0091344Y0123697D01*
X0091346Y0123074D01*
X0091341Y0122453D01*
X0091347Y0122437D01*
X0091525Y0046526D01*
X0091485Y0046400D01*
X0091527Y0045892D01*
X0091528Y0045383D01*
X0091579Y0045261D01*
X0091590Y0045129D01*
X0091823Y0044676D01*
X0092019Y0044206D01*
X0092113Y0044112D01*
X0092174Y0043994D01*
X0092562Y0043665D01*
X0092923Y0043305D01*
X0093046Y0043255D01*
X0106223Y0032090D01*
X0109553Y0024956D01*
X0109780Y0024421D01*
X0109822Y0024380D01*
X0109847Y0024326D01*
X0110276Y0023934D01*
X0112110Y0022130D01*
X0112110Y0016600D01*
X0113286Y0015424D01*
X0122232Y0015424D01*
X0123408Y0016600D01*
X0123408Y0025546D01*
X0122232Y0026722D01*
X0116588Y0026722D01*
X0115145Y0028141D01*
X0111981Y0034919D01*
X0111976Y0034983D01*
X0111713Y0035495D01*
X0111469Y0036017D01*
X0111422Y0036061D01*
X0111392Y0036117D01*
X0110953Y0036490D01*
X0110528Y0036879D01*
X0110468Y0036901D01*
X0097937Y0047518D01*
X0097760Y0123059D01*
X0097780Y0125732D01*
X0097973Y0125925D01*
X0098580Y0127391D01*
X0098580Y0128978D01*
X0097973Y0130443D01*
X0096851Y0131565D01*
X0095758Y0132018D01*
X0100148Y0132018D01*
X0099754Y0131624D01*
X0099147Y0130159D01*
X0099147Y0128572D01*
X0099754Y0127106D01*
X0099762Y0127098D01*
X0099729Y0126622D01*
X0099659Y0126416D01*
X0099685Y0125991D01*
X0099655Y0125566D01*
X0099725Y0125360D01*
X0099771Y0124620D01*
X0099771Y0068491D01*
X0100259Y0067312D01*
X0101161Y0066410D01*
X0111132Y0056440D01*
X0111135Y0056431D01*
X0111583Y0055988D01*
X0112027Y0055544D01*
X0112036Y0055541D01*
X0112043Y0055534D01*
X0112625Y0055297D01*
X0113206Y0055056D01*
X0113215Y0055056D01*
X0113224Y0055052D01*
X0113852Y0055056D01*
X0114482Y0055056D01*
X0114491Y0055059D01*
X0132649Y0055160D01*
X0135546Y0053096D01*
X0135529Y0052905D01*
X0135467Y0052788D01*
X0135506Y0052661D01*
X0135494Y0052529D01*
X0135579Y0052427D01*
X0135678Y0052107D01*
X0135713Y0051774D01*
X0135675Y0051647D01*
X0135738Y0051530D01*
X0135752Y0051398D01*
X0135855Y0051315D01*
X0136015Y0051020D01*
X0136069Y0050846D01*
X0136053Y0050751D01*
X0136134Y0050637D01*
X0136226Y0050340D01*
X0136414Y0050240D01*
X0136515Y0050098D01*
X0136897Y0049394D01*
X0137044Y0049350D01*
X0139438Y0045967D01*
X0139535Y0045508D01*
X0139957Y0045234D01*
X0140247Y0044823D01*
X0140709Y0044744D01*
X0141102Y0044488D01*
X0141521Y0044577D01*
X0141535Y0044518D01*
X0141514Y0044387D01*
X0141592Y0044280D01*
X0141623Y0044151D01*
X0141736Y0044082D01*
X0141933Y0043811D01*
X0142073Y0043506D01*
X0142078Y0043374D01*
X0142175Y0043284D01*
X0142231Y0043163D01*
X0142355Y0043117D01*
X0142601Y0042890D01*
X0142798Y0042619D01*
X0142829Y0042490D01*
X0142942Y0042421D01*
X0143020Y0042313D01*
X0143151Y0042292D01*
X0143436Y0042117D01*
X0143682Y0041890D01*
X0143737Y0041769D01*
X0143862Y0041723D01*
X0143959Y0041633D01*
X0144092Y0041639D01*
X0144406Y0041522D01*
X0144486Y0041473D01*
X0144455Y0033946D01*
X0145134Y0032287D01*
X0146397Y0031014D01*
X0148050Y0030320D01*
X0149843Y0030313D01*
X0151503Y0030992D01*
X0152776Y0032255D01*
X0153469Y0033909D01*
X0153503Y0042117D01*
X0153549Y0042249D01*
X0153507Y0043009D01*
X0153510Y0043769D01*
X0153457Y0043899D01*
X0153449Y0044040D01*
X0153119Y0044725D01*
X0152831Y0045429D01*
X0152744Y0045516D01*
X0154385Y0049126D01*
X0154767Y0049525D01*
X0154757Y0049944D01*
X0154931Y0050326D01*
X0154737Y0050843D01*
X0154725Y0051394D01*
X0154708Y0051410D01*
X0154735Y0051471D01*
X0154831Y0051562D01*
X0154834Y0051694D01*
X0154971Y0052000D01*
X0155164Y0052274D01*
X0155276Y0052344D01*
X0155306Y0052474D01*
X0155382Y0052582D01*
X0155360Y0052713D01*
X0155434Y0053039D01*
X0155570Y0053345D01*
X0155666Y0053437D01*
X0155670Y0053569D01*
X0155724Y0053690D01*
X0155676Y0053814D01*
X0155685Y0054149D01*
X0155759Y0054476D01*
X0155836Y0054584D01*
X0155814Y0054715D01*
X0155843Y0054844D01*
X0155772Y0054956D01*
X0155716Y0055286D01*
X0155724Y0055621D01*
X0155778Y0055742D01*
X0155731Y0055866D01*
X0155734Y0055999D01*
X0155643Y0056095D01*
X0155523Y0056408D01*
X0155467Y0056738D01*
X0155496Y0056867D01*
X0155425Y0056979D01*
X0155403Y0057110D01*
X0155295Y0057187D01*
X0155116Y0057470D01*
X0154996Y0057783D01*
X0155000Y0057915D01*
X0154908Y0058011D01*
X0154861Y0058135D01*
X0154740Y0058189D01*
X0154509Y0058432D01*
X0154331Y0058716D01*
X0154308Y0058846D01*
X0154200Y0058923D01*
X0154129Y0059035D01*
X0154000Y0059064D01*
X0153726Y0059258D01*
X0153496Y0059501D01*
X0153449Y0059625D01*
X0153327Y0059679D01*
X0153236Y0059775D01*
X0153104Y0059778D01*
X0152990Y0059829D01*
X0152972Y0081136D01*
X0153357Y0081136D01*
X0155197Y0081899D01*
X0156606Y0083307D01*
X0157368Y0085147D01*
X0157368Y0087139D01*
X0156606Y0088980D01*
X0155197Y0090388D01*
X0153374Y0091143D01*
X0155197Y0091899D01*
X0156606Y0093307D01*
X0157368Y0095147D01*
X0157368Y0097139D01*
X0156606Y0098980D01*
X0155197Y0100388D01*
X0153374Y0101143D01*
X0155197Y0101899D01*
X0156606Y0103307D01*
X0157368Y0105147D01*
X0157368Y0107139D01*
X0156606Y0108980D01*
X0155197Y0110388D01*
X0153556Y0111068D01*
X0153579Y0111071D01*
X0154357Y0111324D01*
X0155087Y0111696D01*
X0155749Y0112177D01*
X0156327Y0112756D01*
X0156809Y0113418D01*
X0157180Y0114147D01*
X0157433Y0114926D01*
X0157561Y0115734D01*
X0157561Y0116143D01*
X0149361Y0116143D01*
X0141161Y0116143D01*
X0149361Y0116143D01*
X0149361Y0116143D01*
X0149361Y0116143D01*
X0157561Y0116143D01*
X0157561Y0116553D01*
X0157433Y0117361D01*
X0157180Y0118140D01*
X0156809Y0118869D01*
X0156327Y0119531D01*
X0155749Y0120110D01*
X0155087Y0120591D01*
X0154357Y0120962D01*
X0153579Y0121215D01*
X0153556Y0121219D01*
X0155197Y0121899D01*
X0156606Y0123307D01*
X0157368Y0125147D01*
X0157368Y0127139D01*
X0156606Y0128980D01*
X0155197Y0130388D01*
X0153374Y0131143D01*
X0155197Y0131899D01*
X0156606Y0133307D01*
X0157368Y0135147D01*
X0157368Y0137139D01*
X0156606Y0138980D01*
X0155197Y0140388D01*
X0153374Y0141143D01*
X0155197Y0141899D01*
X0156606Y0143307D01*
X0157368Y0145147D01*
X0157368Y0147139D01*
X0156606Y0148980D01*
X0155197Y0150388D01*
X0153374Y0151143D01*
X0155197Y0151899D01*
X0156606Y0153307D01*
X0157368Y0155147D01*
X0157368Y0157139D01*
X0156606Y0158980D01*
X0155197Y0160388D01*
X0153374Y0161143D01*
X0155197Y0161899D01*
X0156606Y0163307D01*
X0157368Y0165147D01*
X0157368Y0167139D01*
X0156606Y0168980D01*
X0155197Y0170388D01*
X0153357Y0171151D01*
X0145365Y0171151D01*
X0143525Y0170388D01*
X0142116Y0168980D01*
X0141354Y0167139D01*
X0141354Y0165147D01*
X0142116Y0163307D01*
X0143525Y0161899D01*
X0145348Y0161143D01*
X0143525Y0160388D01*
X0142116Y0158980D01*
X0141354Y0157139D01*
X0141354Y0155147D01*
X0142116Y0153307D01*
X0143525Y0151899D01*
X0145348Y0151143D01*
X0143525Y0150388D01*
X0142730Y0149594D01*
X0142711Y0149636D01*
X0142705Y0149768D01*
X0142608Y0149858D01*
X0142467Y0150162D01*
X0142388Y0150487D01*
X0142409Y0150619D01*
X0142330Y0150726D01*
X0142299Y0150855D01*
X0142186Y0150924D01*
X0141988Y0151194D01*
X0141848Y0151498D01*
X0141842Y0151630D01*
X0141744Y0151720D01*
X0141689Y0151841D01*
X0141564Y0151886D01*
X0141318Y0152113D01*
X0141210Y0152260D01*
X0141195Y0152354D01*
X0141082Y0152436D01*
X0140897Y0152689D01*
X0140687Y0152721D01*
X0140546Y0152823D01*
X0141664Y0151850D02*
X0143643Y0151850D01*
X0141727Y0154248D02*
X0138573Y0154248D01*
X0141354Y0156647D02*
X0135252Y0156647D01*
X0141895Y0163842D02*
X0097446Y0163842D01*
X0098620Y0161444D02*
X0144623Y0161444D01*
X0142182Y0159045D02*
X0109953Y0159045D01*
X0112064Y0156647D02*
X0125217Y0156647D01*
X0121268Y0154248D02*
X0111950Y0154248D01*
X0119866Y0137458D02*
X0136155Y0137458D01*
X0136155Y0139857D02*
X0134084Y0139857D01*
X0137500Y0135060D02*
X0120313Y0135060D01*
X0118919Y0132661D02*
X0140498Y0132661D01*
X0143400Y0130263D02*
X0107080Y0130263D01*
X0106830Y0127864D02*
X0141654Y0127864D01*
X0141354Y0125466D02*
X0106145Y0125466D01*
X0106185Y0123067D02*
X0142356Y0123067D01*
X0143789Y0120669D02*
X0106185Y0120669D01*
X0106185Y0118270D02*
X0141609Y0118270D01*
X0141161Y0115872D02*
X0106185Y0115872D01*
X0106185Y0113473D02*
X0141885Y0113473D01*
X0145133Y0111075D02*
X0106185Y0111075D01*
X0106185Y0108676D02*
X0141991Y0108676D01*
X0141354Y0106278D02*
X0106185Y0106278D01*
X0106185Y0103879D02*
X0141879Y0103879D01*
X0144534Y0101481D02*
X0106185Y0101481D01*
X0106185Y0099082D02*
X0142219Y0099082D01*
X0141354Y0096684D02*
X0106185Y0096684D01*
X0106185Y0094285D02*
X0141711Y0094285D01*
X0143554Y0091887D02*
X0106185Y0091887D01*
X0106185Y0089488D02*
X0142625Y0089488D01*
X0141354Y0087090D02*
X0106185Y0087090D01*
X0106185Y0084691D02*
X0141543Y0084691D01*
X0143131Y0082293D02*
X0106185Y0082293D01*
X0106185Y0079894D02*
X0145759Y0079894D01*
X0145761Y0077496D02*
X0106185Y0077496D01*
X0106185Y0075097D02*
X0145763Y0075097D01*
X0145765Y0072699D02*
X0106185Y0072699D01*
X0106342Y0070300D02*
X0145767Y0070300D01*
X0145769Y0067902D02*
X0108741Y0067902D01*
X0111139Y0065503D02*
X0145771Y0065503D01*
X0145773Y0063105D02*
X0113538Y0063105D01*
X0113844Y0058263D02*
X0102978Y0069129D01*
X0102978Y0124720D01*
X0102899Y0125980D01*
X0103135Y0129365D01*
X0099440Y0127864D02*
X0098580Y0127864D01*
X0098048Y0130263D02*
X0099190Y0130263D01*
X0099689Y0125466D02*
X0097778Y0125466D01*
X0097760Y0123067D02*
X0099771Y0123067D01*
X0099771Y0120669D02*
X0097765Y0120669D01*
X0097771Y0118270D02*
X0099771Y0118270D01*
X0099771Y0115872D02*
X0097777Y0115872D01*
X0097782Y0113473D02*
X0099771Y0113473D01*
X0099771Y0111075D02*
X0097788Y0111075D01*
X0097794Y0108676D02*
X0099771Y0108676D01*
X0099771Y0106278D02*
X0097799Y0106278D01*
X0097805Y0103879D02*
X0099771Y0103879D01*
X0099771Y0101481D02*
X0097810Y0101481D01*
X0097816Y0099082D02*
X0099771Y0099082D01*
X0099771Y0096684D02*
X0097822Y0096684D01*
X0097827Y0094285D02*
X0099771Y0094285D01*
X0099771Y0091887D02*
X0097833Y0091887D01*
X0097839Y0089488D02*
X0099771Y0089488D01*
X0099771Y0087090D02*
X0097844Y0087090D01*
X0097850Y0084691D02*
X0099771Y0084691D01*
X0099771Y0082293D02*
X0097855Y0082293D01*
X0097861Y0079894D02*
X0099771Y0079894D01*
X0099771Y0077496D02*
X0097867Y0077496D01*
X0097872Y0075097D02*
X0099771Y0075097D01*
X0099771Y0072699D02*
X0097878Y0072699D01*
X0097884Y0070300D02*
X0099771Y0070300D01*
X0100015Y0067902D02*
X0097889Y0067902D01*
X0097895Y0065503D02*
X0102068Y0065503D01*
X0104467Y0063105D02*
X0097901Y0063105D01*
X0097906Y0060706D02*
X0106865Y0060706D01*
X0109264Y0058308D02*
X0097912Y0058308D01*
X0097917Y0055909D02*
X0111663Y0055909D01*
X0113844Y0058263D02*
X0133666Y0058373D01*
X0141109Y0053070D01*
X0137495Y0048714D02*
X0097934Y0048714D01*
X0097929Y0051112D02*
X0135965Y0051112D01*
X0134964Y0053511D02*
X0097923Y0053511D01*
X0099357Y0046315D02*
X0139192Y0046315D01*
X0141856Y0043917D02*
X0136143Y0043917D01*
X0136097Y0043955D02*
X0135965Y0043945D01*
X0135646Y0044048D01*
X0135487Y0044137D01*
X0135434Y0044216D01*
X0135297Y0044243D01*
X0135024Y0044395D01*
X0134819Y0044337D01*
X0134648Y0044371D01*
X0133886Y0044617D01*
X0133750Y0044548D01*
X0129360Y0045412D01*
X0128901Y0045689D01*
X0128478Y0045585D01*
X0128051Y0045669D01*
X0127606Y0045370D01*
X0127085Y0045242D01*
X0126972Y0045054D01*
X0126966Y0045062D01*
X0126836Y0045086D01*
X0126725Y0045158D01*
X0126595Y0045130D01*
X0126266Y0045191D01*
X0125954Y0045315D01*
X0125859Y0045407D01*
X0125726Y0045405D01*
X0125603Y0045454D01*
X0125481Y0045402D01*
X0125147Y0045397D01*
X0124817Y0045457D01*
X0124706Y0045529D01*
X0124576Y0045502D01*
X0124446Y0045526D01*
X0124337Y0045450D01*
X0124009Y0045380D01*
X0123674Y0045376D01*
X0123551Y0045424D01*
X0123429Y0045372D01*
X0123297Y0045370D01*
X0123204Y0045275D01*
X0122897Y0045142D01*
X0122569Y0045072D01*
X0122439Y0045096D01*
X0122329Y0045021D01*
X0122200Y0044993D01*
X0122128Y0044882D01*
X0121852Y0044692D01*
X0121544Y0044559D01*
X0121412Y0044557D01*
X0121319Y0044462D01*
X0121198Y0044410D01*
X0121149Y0044286D01*
X0120915Y0044046D01*
X0120639Y0043856D01*
X0120510Y0043828D01*
X0120438Y0043717D01*
X0120328Y0043642D01*
X0120304Y0043511D01*
X0120122Y0043230D01*
X0119889Y0042990D01*
X0119767Y0042937D01*
X0119718Y0042814D01*
X0119626Y0042719D01*
X0119628Y0042586D01*
X0119504Y0042275D01*
X0119322Y0041994D01*
X0119213Y0041919D01*
X0119189Y0041788D01*
X0119117Y0041677D01*
X0119145Y0041547D01*
X0119084Y0041218D01*
X0118960Y0040907D01*
X0118868Y0040812D01*
X0118870Y0040679D01*
X0118821Y0040556D01*
X0118873Y0040434D01*
X0118878Y0040099D01*
X0118817Y0039770D01*
X0118745Y0039658D01*
X0118773Y0039529D01*
X0118749Y0039398D01*
X0118824Y0039289D01*
X0118866Y0039097D01*
X0116476Y0036707D01*
X0115461Y0035692D01*
X0114912Y0034367D01*
X0114912Y0032805D01*
X0114531Y0031885D01*
X0114531Y0030299D01*
X0115138Y0028833D01*
X0116260Y0027711D01*
X0117726Y0027104D01*
X0119312Y0027104D01*
X0120778Y0027711D01*
X0121900Y0028833D01*
X0122507Y0030299D01*
X0122507Y0030455D01*
X0122536Y0030374D01*
X0122584Y0030043D01*
X0122552Y0029914D01*
X0122620Y0029801D01*
X0122639Y0029669D01*
X0122745Y0029590D01*
X0122917Y0029302D01*
X0123029Y0028987D01*
X0123022Y0028854D01*
X0123111Y0028756D01*
X0123156Y0028631D01*
X0123276Y0028574D01*
X0123500Y0028326D01*
X0123672Y0028038D01*
X0123691Y0027907D01*
X0123797Y0027827D01*
X0123865Y0027714D01*
X0123994Y0027681D01*
X0124262Y0027481D01*
X0124487Y0027232D01*
X0124531Y0027108D01*
X0124651Y0027051D01*
X0124740Y0026952D01*
X0124872Y0026945D01*
X0125175Y0026802D01*
X0125443Y0026602D01*
X0125511Y0026488D01*
X0125640Y0026455D01*
X0125746Y0026376D01*
X0125878Y0026395D01*
X0126202Y0026313D01*
X0126505Y0026169D01*
X0126594Y0026071D01*
X0126726Y0026064D01*
X0126809Y0026025D01*
X0126809Y0024574D01*
X0126527Y0024293D01*
X0125667Y0022217D01*
X0125667Y0019969D01*
X0126527Y0017893D01*
X0128116Y0016304D01*
X0130192Y0015444D01*
X0132439Y0015444D01*
X0134516Y0016304D01*
X0136105Y0017893D01*
X0136965Y0019969D01*
X0136965Y0022217D01*
X0136105Y0024293D01*
X0135823Y0024574D01*
X0135823Y0030241D01*
X0135883Y0030432D01*
X0135823Y0031131D01*
X0135823Y0031773D01*
X0135983Y0031958D01*
X0136461Y0032232D01*
X0136570Y0032637D01*
X0136845Y0032955D01*
X0136805Y0033505D01*
X0136949Y0034038D01*
X0136937Y0034058D01*
X0136980Y0034108D01*
X0137098Y0034169D01*
X0137138Y0034295D01*
X0137356Y0034550D01*
X0137618Y0034757D01*
X0137746Y0034794D01*
X0137811Y0034909D01*
X0137915Y0034992D01*
X0137922Y0035051D01*
X0139368Y0034868D01*
X0139539Y0034798D01*
X0139931Y0034798D01*
X0140623Y0034710D01*
X0140941Y0034798D01*
X0141126Y0034798D01*
X0141488Y0034948D01*
X0142160Y0035132D01*
X0142420Y0035334D01*
X0142592Y0035405D01*
X0142869Y0035682D01*
X0143419Y0036109D01*
X0143583Y0036396D01*
X0143714Y0036527D01*
X0143864Y0036889D01*
X0144209Y0037494D01*
X0144250Y0037821D01*
X0144321Y0037992D01*
X0144321Y0038384D01*
X0144408Y0039076D01*
X0144321Y0039394D01*
X0144321Y0039579D01*
X0144171Y0039941D01*
X0143986Y0040613D01*
X0143784Y0040874D01*
X0143714Y0041045D01*
X0143436Y0041322D01*
X0143009Y0041873D01*
X0142723Y0042036D01*
X0142592Y0042167D01*
X0142230Y0042317D01*
X0141624Y0042662D01*
X0141297Y0042703D01*
X0141126Y0042774D01*
X0140734Y0042774D01*
X0137133Y0043227D01*
X0137064Y0043315D01*
X0136932Y0043330D01*
X0136640Y0043493D01*
X0136385Y0043711D01*
X0136324Y0043829D01*
X0136198Y0043869D01*
X0136097Y0043955D01*
X0143284Y0041518D02*
X0144413Y0041518D01*
X0144396Y0039119D02*
X0144476Y0039119D01*
X0144466Y0036721D02*
X0143794Y0036721D01*
X0144456Y0034322D02*
X0137162Y0034322D01*
X0135954Y0031924D02*
X0145494Y0031924D01*
X0149568Y0026742D02*
X0140622Y0026742D01*
X0139446Y0025566D01*
X0139446Y0016620D01*
X0140622Y0015444D01*
X0149568Y0015444D01*
X0150744Y0016620D01*
X0150744Y0025566D01*
X0149568Y0026742D01*
X0150744Y0024728D02*
X0162667Y0024728D01*
X0162667Y0027127D02*
X0135823Y0027127D01*
X0135823Y0029525D02*
X0162667Y0029525D01*
X0162667Y0031924D02*
X0152442Y0031924D01*
X0153471Y0034322D02*
X0162667Y0034322D01*
X0162667Y0036721D02*
X0153481Y0036721D01*
X0153491Y0039119D02*
X0162667Y0039119D01*
X0162667Y0041518D02*
X0153501Y0041518D01*
X0153456Y0043917D02*
X0162667Y0043917D01*
X0162667Y0046315D02*
X0153108Y0046315D01*
X0154198Y0048714D02*
X0162667Y0048714D01*
X0162667Y0051112D02*
X0154731Y0051112D01*
X0155668Y0053511D02*
X0162667Y0053511D01*
X0162667Y0055909D02*
X0155732Y0055909D01*
X0154628Y0058308D02*
X0162667Y0058308D01*
X0162667Y0060706D02*
X0152990Y0060706D01*
X0152988Y0063105D02*
X0162667Y0063105D01*
X0162667Y0065503D02*
X0152986Y0065503D01*
X0152984Y0067902D02*
X0162667Y0067902D01*
X0162667Y0070300D02*
X0152982Y0070300D01*
X0152980Y0072699D02*
X0162667Y0072699D01*
X0162667Y0075097D02*
X0152978Y0075097D01*
X0152976Y0077496D02*
X0162667Y0077496D01*
X0162667Y0079894D02*
X0152973Y0079894D01*
X0155591Y0082293D02*
X0162667Y0082293D01*
X0162667Y0084691D02*
X0157179Y0084691D01*
X0157368Y0087090D02*
X0162667Y0087090D01*
X0162667Y0089488D02*
X0156097Y0089488D01*
X0155169Y0091887D02*
X0162667Y0091887D01*
X0162667Y0094285D02*
X0157011Y0094285D01*
X0157368Y0096684D02*
X0162667Y0096684D01*
X0162667Y0099082D02*
X0156503Y0099082D01*
X0154189Y0101481D02*
X0162667Y0101481D01*
X0162667Y0103879D02*
X0156843Y0103879D01*
X0157368Y0106278D02*
X0162667Y0106278D01*
X0162667Y0108676D02*
X0156732Y0108676D01*
X0153589Y0111075D02*
X0162667Y0111075D01*
X0162667Y0113473D02*
X0156837Y0113473D01*
X0157561Y0115872D02*
X0162667Y0115872D01*
X0162667Y0118270D02*
X0157113Y0118270D01*
X0154933Y0120669D02*
X0162667Y0120669D01*
X0162667Y0123067D02*
X0156366Y0123067D01*
X0157368Y0125466D02*
X0162667Y0125466D01*
X0162667Y0127864D02*
X0157068Y0127864D01*
X0155323Y0130263D02*
X0162667Y0130263D01*
X0162667Y0132661D02*
X0155960Y0132661D01*
X0157332Y0135060D02*
X0162667Y0135060D01*
X0162667Y0137458D02*
X0157236Y0137458D01*
X0155729Y0139857D02*
X0162667Y0139857D01*
X0162667Y0142255D02*
X0155554Y0142255D01*
X0157164Y0144654D02*
X0162667Y0144654D01*
X0162667Y0147052D02*
X0157368Y0147052D01*
X0156135Y0149451D02*
X0162667Y0149451D01*
X0162667Y0151850D02*
X0155079Y0151850D01*
X0156996Y0154248D02*
X0162667Y0154248D01*
X0162667Y0156647D02*
X0157368Y0156647D01*
X0156541Y0159045D02*
X0162667Y0159045D01*
X0162667Y0161444D02*
X0154099Y0161444D01*
X0156827Y0163842D02*
X0162667Y0163842D01*
X0162667Y0166241D02*
X0157368Y0166241D01*
X0156747Y0168639D02*
X0162667Y0168639D01*
X0162667Y0171038D02*
X0153630Y0171038D01*
X0152877Y0176884D02*
X0150885Y0176887D01*
X0149046Y0177653D01*
X0148382Y0178319D01*
X0139272Y0175514D01*
X0138768Y0175304D01*
X0138592Y0175304D01*
X0138423Y0175252D01*
X0137879Y0175303D01*
X0091861Y0175251D01*
X0091861Y0173283D01*
X0092242Y0172363D01*
X0092242Y0170777D01*
X0091635Y0169311D01*
X0090513Y0168189D01*
X0089047Y0167582D01*
X0087460Y0167582D01*
X0085994Y0168189D01*
X0084873Y0169311D01*
X0084265Y0170777D01*
X0084265Y0172363D01*
X0084646Y0173283D01*
X0084646Y0178850D01*
X0084646Y0179567D01*
X0084646Y0179569D01*
X0084646Y0179571D01*
X0084921Y0180233D01*
X0085193Y0180893D01*
X0085195Y0180895D01*
X0085196Y0180897D01*
X0085703Y0181404D01*
X0086024Y0181726D01*
X0049159Y0181726D01*
X0047833Y0182275D01*
X0046818Y0183290D01*
X0037632Y0192477D01*
X0036712Y0192858D01*
X0035590Y0193980D01*
X0034982Y0195445D01*
X0034982Y0197032D01*
X0035590Y0198498D01*
X0036712Y0199620D01*
X0038177Y0200227D01*
X0039764Y0200227D01*
X0041230Y0199620D01*
X0042352Y0198498D01*
X0042733Y0197578D01*
X0051371Y0188940D01*
X0110083Y0188940D01*
X0111003Y0189321D01*
X0112589Y0189321D01*
X0114055Y0188714D01*
X0115177Y0187592D01*
X0115784Y0186126D01*
X0115784Y0184540D01*
X0115177Y0183074D01*
X0114594Y0182491D01*
X0137502Y0182517D01*
X0143145Y0184255D01*
X0141987Y0184736D01*
X0140581Y0186147D01*
X0139822Y0187989D01*
X0139826Y0189981D01*
X0140584Y0191803D01*
X0138760Y0191051D01*
X0136768Y0191054D01*
X0134929Y0191820D01*
X0133523Y0193231D01*
X0132764Y0195072D01*
X0132767Y0197064D01*
X0133450Y0198704D01*
X0133431Y0198691D01*
X0132701Y0198320D01*
X0131923Y0198069D01*
X0131114Y0197942D01*
X0130295Y0197944D01*
X0129487Y0198073D01*
X0128709Y0198327D01*
X0127981Y0198700D01*
X0127319Y0199182D01*
X0127030Y0199472D01*
X0132839Y0205260D01*
X0132839Y0205260D01*
X0132839Y0205261D02*
X0132839Y0205261D01*
X0138647Y0211049D01*
X0138358Y0211339D01*
X0137697Y0211821D01*
X0136968Y0212194D01*
X0136190Y0212448D01*
X0135382Y0212577D01*
X0134564Y0212579D01*
X0133755Y0212452D01*
X0132976Y0212201D01*
X0132246Y0211830D01*
X0131583Y0211350D01*
X0129168Y0208944D01*
X0126753Y0206537D01*
X0126271Y0205876D01*
X0125898Y0205147D01*
X0125644Y0204369D01*
X0125514Y0203561D01*
X0125513Y0202743D01*
X0125640Y0201934D01*
X0125891Y0201155D01*
X0126262Y0200425D01*
X0126741Y0199762D01*
X0127030Y0199472D01*
X0132839Y0205260D01*
X0132839Y0205261D02*
X0138647Y0211049D01*
X0138936Y0210759D01*
X0139416Y0210096D01*
X0139786Y0209366D01*
X0140038Y0208587D01*
X0140164Y0207778D01*
X0140163Y0206960D01*
X0140034Y0206152D01*
X0139779Y0205374D01*
X0139406Y0204645D01*
X0139393Y0204627D01*
X0141035Y0205304D01*
X0143027Y0205300D01*
X0144866Y0204535D01*
X0146272Y0203124D01*
X0147031Y0201282D01*
X0147028Y0199290D01*
X0146269Y0197468D01*
X0148094Y0198220D01*
X0150086Y0198217D01*
X0151925Y0197451D01*
X0153331Y0196040D01*
X0154090Y0194199D01*
X0154086Y0192207D01*
X0153328Y0190385D01*
X0155153Y0191137D01*
X0157145Y0191133D01*
X0158984Y0190368D01*
X0160390Y0188957D01*
X0161149Y0187115D01*
X0161145Y0185123D01*
X0160380Y0183284D01*
X0154719Y0177643D01*
X0152877Y0176884D01*
X0155311Y0178233D02*
X0162667Y0178233D01*
X0162667Y0175835D02*
X0140314Y0175835D01*
X0145093Y0171038D02*
X0092242Y0171038D01*
X0091861Y0173436D02*
X0162667Y0173436D01*
X0162667Y0180632D02*
X0157718Y0180632D01*
X0160125Y0183030D02*
X0162667Y0183030D01*
X0162667Y0185429D02*
X0161146Y0185429D01*
X0160855Y0187827D02*
X0162667Y0187827D01*
X0162667Y0190226D02*
X0159125Y0190226D01*
X0162667Y0192624D02*
X0154087Y0192624D01*
X0153750Y0195023D02*
X0162667Y0195023D01*
X0162667Y0197421D02*
X0151955Y0197421D01*
X0149947Y0202218D02*
X0146645Y0202218D01*
X0147029Y0199820D02*
X0162667Y0199820D01*
X0162667Y0202218D02*
X0158987Y0202218D01*
X0161063Y0204617D02*
X0162667Y0204617D01*
X0162657Y0207015D02*
X0161979Y0207015D01*
X0161979Y0209414D02*
X0162158Y0209414D01*
X0149733Y0214211D02*
X0125262Y0214211D01*
X0123640Y0211812D02*
X0132221Y0211812D01*
X0129640Y0209414D02*
X0123659Y0209414D01*
X0123650Y0207015D02*
X0127233Y0207015D01*
X0129168Y0208944D02*
X0132839Y0205261D01*
X0132839Y0205261D01*
X0129168Y0208944D01*
X0131090Y0207015D02*
X0131090Y0207015D01*
X0132193Y0204617D02*
X0132193Y0204617D01*
X0134600Y0207015D02*
X0134600Y0207015D01*
X0137006Y0209414D02*
X0137007Y0209414D01*
X0137709Y0211812D02*
X0147782Y0211812D01*
X0146955Y0209414D02*
X0139762Y0209414D01*
X0140163Y0207015D02*
X0146955Y0207015D01*
X0147871Y0204617D02*
X0144669Y0204617D01*
X0139928Y0190226D02*
X0050085Y0190226D01*
X0047686Y0192624D02*
X0063854Y0192624D01*
X0062106Y0194344D02*
X0062106Y0194344D01*
X0061753Y0195023D02*
X0045288Y0195023D01*
X0042889Y0197421D02*
X0060673Y0197421D01*
X0060752Y0196949D02*
X0060752Y0196949D01*
X0060273Y0199820D02*
X0040747Y0199820D01*
X0037194Y0199820D02*
X0008381Y0199820D01*
X0008382Y0202218D02*
X0060433Y0202218D01*
X0060269Y0199844D02*
X0060269Y0199844D01*
X0060403Y0204617D02*
X0008384Y0204617D01*
X0008442Y0207015D02*
X0060367Y0207015D01*
X0060012Y0209414D02*
X0009084Y0209414D01*
X0010586Y0211812D02*
X0058773Y0211812D01*
X0055058Y0214211D02*
X0014752Y0214211D01*
X0008379Y0197421D02*
X0035144Y0197421D01*
X0035158Y0195023D02*
X0008378Y0195023D01*
X0008377Y0192624D02*
X0037275Y0192624D01*
X0039883Y0190226D02*
X0008375Y0190226D01*
X0008374Y0187827D02*
X0042281Y0187827D01*
X0044680Y0185429D02*
X0008372Y0185429D01*
X0008371Y0183030D02*
X0047078Y0183030D01*
X0033940Y0163842D02*
X0068235Y0163842D01*
X0067533Y0161444D02*
X0037191Y0161444D01*
X0031541Y0156647D02*
X0008354Y0156647D01*
X0008356Y0159045D02*
X0027897Y0159045D01*
X0026352Y0161444D02*
X0008357Y0161444D01*
X0008359Y0163842D02*
X0026736Y0163842D01*
X0034792Y0154248D02*
X0008353Y0154248D01*
X0013500Y0151850D02*
X0069858Y0151850D01*
X0069305Y0149451D02*
X0014637Y0149451D01*
X0014638Y0147052D02*
X0035193Y0147052D01*
X0034817Y0144654D02*
X0014638Y0144654D01*
X0014639Y0142255D02*
X0036380Y0142255D01*
X0028451Y0130263D02*
X0077881Y0130263D01*
X0076049Y0127864D02*
X0027828Y0127864D01*
X0022664Y0135060D02*
X0014641Y0135060D01*
X0014640Y0137458D02*
X0023691Y0137458D01*
X0021629Y0132661D02*
X0014642Y0132661D01*
X0014643Y0130263D02*
X0020188Y0130263D01*
X0020340Y0127864D02*
X0014643Y0127864D01*
X0014640Y0139857D02*
X0125402Y0139857D01*
X0141354Y0166241D02*
X0008360Y0166241D01*
X0008362Y0168639D02*
X0085544Y0168639D01*
X0084265Y0171038D02*
X0008363Y0171038D01*
X0008365Y0173436D02*
X0084646Y0173436D01*
X0084646Y0175835D02*
X0008366Y0175835D01*
X0008368Y0178233D02*
X0084646Y0178233D01*
X0085085Y0180632D02*
X0008369Y0180632D01*
X0008329Y0115872D02*
X0062644Y0115872D01*
X0062644Y0113473D02*
X0008327Y0113473D01*
X0008326Y0111075D02*
X0062644Y0111075D01*
X0062644Y0108676D02*
X0008324Y0108676D01*
X0008323Y0106278D02*
X0062644Y0106278D01*
X0062644Y0103879D02*
X0008321Y0103879D01*
X0008320Y0101481D02*
X0062644Y0101481D01*
X0062644Y0099082D02*
X0008318Y0099082D01*
X0008317Y0096684D02*
X0035810Y0096684D01*
X0033299Y0094285D02*
X0008315Y0094285D01*
X0008314Y0091887D02*
X0032875Y0091887D01*
X0033767Y0089488D02*
X0008312Y0089488D01*
X0008311Y0087090D02*
X0034349Y0087090D01*
X0042264Y0094285D02*
X0060836Y0094285D01*
X0062644Y0096684D02*
X0039340Y0096684D01*
X0043702Y0091887D02*
X0051081Y0091887D01*
X0050681Y0089488D02*
X0043738Y0089488D01*
X0043749Y0087090D02*
X0052067Y0087090D01*
X0052428Y0084691D02*
X0057544Y0084691D01*
X0055021Y0089776D02*
X0054669Y0090128D01*
X0049064Y0075097D02*
X0044131Y0075097D01*
X0043771Y0075246D02*
X0041870Y0075246D01*
X0040114Y0074519D01*
X0038769Y0073175D01*
X0038042Y0071418D01*
X0038042Y0069517D01*
X0038769Y0067761D01*
X0040114Y0066416D01*
X0041870Y0065689D01*
X0043771Y0065689D01*
X0045527Y0066416D01*
X0046872Y0067761D01*
X0047599Y0069517D01*
X0047599Y0071418D01*
X0046872Y0073175D01*
X0045527Y0074519D01*
X0043771Y0075246D01*
X0041510Y0075097D02*
X0028771Y0075097D01*
X0027324Y0072699D02*
X0038572Y0072699D01*
X0038042Y0070300D02*
X0027713Y0070300D01*
X0027060Y0067902D02*
X0038711Y0067902D01*
X0038899Y0060706D02*
X0026663Y0060706D01*
X0027520Y0058308D02*
X0038042Y0058308D01*
X0038460Y0055909D02*
X0027102Y0055909D01*
X0024916Y0053511D02*
X0040647Y0053511D01*
X0038406Y0051112D02*
X0027156Y0051112D01*
X0027549Y0048714D02*
X0038013Y0048714D01*
X0038915Y0046315D02*
X0026647Y0046315D01*
X0026170Y0043917D02*
X0039392Y0043917D01*
X0038020Y0041518D02*
X0028568Y0041518D01*
X0030967Y0039119D02*
X0038208Y0039119D01*
X0039848Y0036721D02*
X0033365Y0036721D01*
X0035764Y0034322D02*
X0042246Y0034322D01*
X0043963Y0031924D02*
X0038162Y0031924D01*
X0039738Y0029525D02*
X0043963Y0029525D01*
X0043963Y0027127D02*
X0039888Y0027127D01*
X0040730Y0024728D02*
X0043963Y0024728D01*
X0043160Y0022330D02*
X0040730Y0022330D01*
X0040730Y0019931D02*
X0043145Y0019931D01*
X0044361Y0017533D02*
X0040730Y0017533D01*
X0030049Y0016023D02*
X0024180Y0016023D01*
X0024363Y0016116D01*
X0025107Y0016657D01*
X0025757Y0017307D01*
X0026298Y0018051D01*
X0026715Y0018870D01*
X0026999Y0019745D01*
X0027143Y0020653D01*
X0027143Y0021113D01*
X0027143Y0021572D01*
X0026999Y0022481D01*
X0026715Y0023355D01*
X0026298Y0024174D01*
X0025757Y0024918D01*
X0025107Y0025568D01*
X0024363Y0026109D01*
X0023544Y0026526D01*
X0022670Y0026810D01*
X0021761Y0026954D01*
X0021302Y0026954D01*
X0021302Y0021113D01*
X0021302Y0021113D01*
X0027143Y0021113D01*
X0021302Y0021113D01*
X0021302Y0021113D01*
X0021302Y0026954D01*
X0020842Y0026954D01*
X0019934Y0026810D01*
X0019059Y0026526D01*
X0018240Y0026109D01*
X0017496Y0025568D01*
X0016846Y0024918D01*
X0016305Y0024174D01*
X0015974Y0023524D01*
X0015974Y0038865D01*
X0016433Y0038865D01*
X0017608Y0040040D01*
X0017608Y0044401D01*
X0019798Y0044401D01*
X0018666Y0043269D01*
X0017935Y0041503D01*
X0017935Y0039590D01*
X0018666Y0037823D01*
X0030168Y0026322D01*
X0029432Y0025586D01*
X0029432Y0016639D01*
X0030049Y0016023D01*
X0029432Y0017533D02*
X0025922Y0017533D01*
X0027029Y0019931D02*
X0029432Y0019931D01*
X0029432Y0022330D02*
X0027023Y0022330D01*
X0025895Y0024728D02*
X0029432Y0024728D01*
X0029363Y0027127D02*
X0015974Y0027127D01*
X0015974Y0029525D02*
X0026964Y0029525D01*
X0024566Y0031924D02*
X0015974Y0031924D01*
X0015974Y0034322D02*
X0022167Y0034322D01*
X0019769Y0036721D02*
X0015974Y0036721D01*
X0016687Y0039119D02*
X0018130Y0039119D01*
X0017941Y0041518D02*
X0017608Y0041518D01*
X0017608Y0043917D02*
X0019314Y0043917D01*
X0010313Y0053511D02*
X0008290Y0053511D01*
X0008291Y0055909D02*
X0018381Y0055909D01*
X0017963Y0058308D02*
X0008293Y0058308D01*
X0008294Y0060706D02*
X0018820Y0060706D01*
X0021736Y0065503D02*
X0008297Y0065503D01*
X0008296Y0063105D02*
X0050703Y0063105D01*
X0050703Y0065503D02*
X0023748Y0065503D01*
X0018423Y0067902D02*
X0008299Y0067902D01*
X0008300Y0070300D02*
X0017770Y0070300D01*
X0017890Y0072699D02*
X0008302Y0072699D01*
X0008303Y0075097D02*
X0017924Y0075097D01*
X0017924Y0077496D02*
X0008305Y0077496D01*
X0008306Y0079894D02*
X0019121Y0079894D01*
X0022602Y0082293D02*
X0008308Y0082293D01*
X0008309Y0084691D02*
X0026263Y0084691D01*
X0047069Y0072699D02*
X0057510Y0072699D01*
X0056569Y0071957D02*
X0055103Y0072564D01*
X0053516Y0072564D01*
X0052051Y0071957D01*
X0050929Y0070835D01*
X0050322Y0069369D01*
X0050322Y0067783D01*
X0050703Y0066863D01*
X0050703Y0058107D01*
X0050635Y0057823D01*
X0050703Y0057396D01*
X0050703Y0056963D01*
X0050814Y0056694D01*
X0050860Y0056406D01*
X0051086Y0056037D01*
X0051252Y0055638D01*
X0051458Y0055431D01*
X0051611Y0055183D01*
X0051961Y0054929D01*
X0052266Y0054623D01*
X0052536Y0054511D01*
X0055837Y0052117D01*
X0056190Y0051783D01*
X0056412Y0051699D01*
X0056605Y0051559D01*
X0057077Y0051446D01*
X0057531Y0051273D01*
X0057769Y0051280D01*
X0058000Y0051225D01*
X0058480Y0051301D01*
X0061519Y0051390D01*
X0080318Y0032591D01*
X0081643Y0032042D01*
X0093962Y0032042D01*
X0097545Y0028459D01*
X0097545Y0023183D01*
X0098094Y0021857D01*
X0098331Y0021621D01*
X0098331Y0019950D01*
X0099191Y0017873D01*
X0100780Y0016284D01*
X0102856Y0015424D01*
X0105103Y0015424D01*
X0107179Y0016284D01*
X0108768Y0017873D01*
X0109628Y0019950D01*
X0109628Y0022197D01*
X0108768Y0024273D01*
X0107179Y0025862D01*
X0105103Y0026722D01*
X0104759Y0026722D01*
X0104759Y0030670D01*
X0104210Y0031996D01*
X0098514Y0037693D01*
X0097499Y0038707D01*
X0096173Y0039256D01*
X0083855Y0039256D01*
X0065988Y0057124D01*
X0065965Y0057174D01*
X0065482Y0057630D01*
X0065012Y0058100D01*
X0064961Y0058121D01*
X0064921Y0058158D01*
X0064300Y0058394D01*
X0063686Y0058649D01*
X0063631Y0058649D01*
X0063580Y0058668D01*
X0062916Y0058649D01*
X0062251Y0058649D01*
X0062200Y0058628D01*
X0059266Y0058542D01*
X0057917Y0059520D01*
X0057917Y0066863D01*
X0058298Y0067783D01*
X0058298Y0069369D01*
X0057691Y0070835D01*
X0056569Y0071957D01*
X0057912Y0070300D02*
X0057966Y0070300D01*
X0058298Y0067902D02*
X0060637Y0067902D01*
X0057917Y0065503D02*
X0091481Y0065503D01*
X0091486Y0063105D02*
X0057917Y0063105D01*
X0057917Y0060706D02*
X0091492Y0060706D01*
X0091498Y0058308D02*
X0064528Y0058308D01*
X0067202Y0055909D02*
X0091503Y0055909D01*
X0091509Y0053511D02*
X0069601Y0053511D01*
X0071999Y0051112D02*
X0091514Y0051112D01*
X0091520Y0048714D02*
X0074398Y0048714D01*
X0076796Y0046315D02*
X0091492Y0046315D01*
X0092265Y0043917D02*
X0079195Y0043917D01*
X0081593Y0041518D02*
X0095096Y0041518D01*
X0096504Y0039119D02*
X0097927Y0039119D01*
X0099485Y0036721D02*
X0100758Y0036721D01*
X0101884Y0034322D02*
X0103589Y0034322D01*
X0104240Y0031924D02*
X0106301Y0031924D01*
X0107420Y0029525D02*
X0104759Y0029525D01*
X0104759Y0027127D02*
X0108540Y0027127D01*
X0108313Y0024728D02*
X0109650Y0024728D01*
X0112483Y0026261D02*
X0108833Y0034083D01*
X0094733Y0046029D01*
X0094553Y0123066D01*
X0094592Y0128184D01*
X0091136Y0130263D02*
X0083350Y0130263D01*
X0084604Y0127864D02*
X0090604Y0127864D01*
X0091364Y0125466D02*
X0084149Y0125466D01*
X0081451Y0123067D02*
X0091346Y0123067D01*
X0091351Y0120669D02*
X0081388Y0120669D01*
X0081388Y0118270D02*
X0091357Y0118270D01*
X0091363Y0115872D02*
X0081388Y0115872D01*
X0081388Y0113473D02*
X0091368Y0113473D01*
X0091374Y0111075D02*
X0081388Y0111075D01*
X0081388Y0108676D02*
X0091379Y0108676D01*
X0091385Y0106278D02*
X0081388Y0106278D01*
X0081388Y0103879D02*
X0091391Y0103879D01*
X0091396Y0101481D02*
X0081388Y0101481D01*
X0081388Y0099082D02*
X0091402Y0099082D01*
X0091408Y0096684D02*
X0081388Y0096684D01*
X0081388Y0094285D02*
X0085472Y0094285D01*
X0082312Y0091887D02*
X0081388Y0091887D01*
X0081388Y0089488D02*
X0081754Y0089488D01*
X0081754Y0087090D02*
X0081388Y0087090D01*
X0081331Y0084691D02*
X0081754Y0084691D01*
X0081754Y0082293D02*
X0079629Y0082293D01*
X0081754Y0079894D02*
X0068051Y0079894D01*
X0068051Y0077496D02*
X0081754Y0077496D01*
X0087539Y0067902D02*
X0091475Y0067902D01*
X0091469Y0070300D02*
X0090614Y0070300D01*
X0091154Y0072699D02*
X0091464Y0072699D01*
X0091458Y0075097D02*
X0091154Y0075097D01*
X0091154Y0077496D02*
X0091453Y0077496D01*
X0091447Y0079894D02*
X0091154Y0079894D01*
X0091154Y0082293D02*
X0091441Y0082293D01*
X0091436Y0084691D02*
X0091154Y0084691D01*
X0091154Y0087090D02*
X0091430Y0087090D01*
X0091424Y0089488D02*
X0091154Y0089488D01*
X0091419Y0091887D02*
X0090596Y0091887D01*
X0091413Y0094285D02*
X0087437Y0094285D01*
X0074174Y0094285D02*
X0071658Y0094285D01*
X0071658Y0096684D02*
X0074174Y0096684D01*
X0074174Y0099082D02*
X0071658Y0099082D01*
X0071658Y0101481D02*
X0074174Y0101481D01*
X0074174Y0103879D02*
X0071658Y0103879D01*
X0071658Y0106278D02*
X0074174Y0106278D01*
X0074174Y0108676D02*
X0071658Y0108676D01*
X0071658Y0111075D02*
X0074174Y0111075D01*
X0074174Y0113473D02*
X0071658Y0113473D01*
X0071658Y0115872D02*
X0074174Y0115872D01*
X0074174Y0118270D02*
X0071658Y0118270D01*
X0071658Y0120669D02*
X0074174Y0120669D01*
X0074174Y0123067D02*
X0070909Y0123067D01*
X0069522Y0125466D02*
X0074284Y0125466D01*
X0074174Y0091887D02*
X0071060Y0091887D01*
X0068787Y0089488D02*
X0074174Y0089488D01*
X0050707Y0070300D02*
X0047599Y0070300D01*
X0046930Y0067902D02*
X0050322Y0067902D01*
X0050703Y0060706D02*
X0046742Y0060706D01*
X0047599Y0058308D02*
X0050703Y0058308D01*
X0051139Y0055909D02*
X0047181Y0055909D01*
X0051080Y0053511D02*
X0053915Y0053511D01*
X0053856Y0051112D02*
X0061797Y0051112D01*
X0064196Y0048714D02*
X0056255Y0048714D01*
X0058653Y0046315D02*
X0066594Y0046315D01*
X0068993Y0043917D02*
X0061052Y0043917D01*
X0063450Y0041518D02*
X0071391Y0041518D01*
X0073790Y0039119D02*
X0065849Y0039119D01*
X0067297Y0036721D02*
X0076188Y0036721D01*
X0078587Y0034322D02*
X0067357Y0034322D01*
X0067357Y0031924D02*
X0094080Y0031924D01*
X0096478Y0029525D02*
X0067357Y0029525D01*
X0067357Y0027127D02*
X0097545Y0027127D01*
X0097545Y0024728D02*
X0095760Y0024728D01*
X0095760Y0022330D02*
X0097898Y0022330D01*
X0098338Y0019931D02*
X0095760Y0019931D01*
X0095760Y0017533D02*
X0099531Y0017533D01*
X0094918Y0015134D02*
X0160914Y0015134D01*
X0162038Y0017533D02*
X0150744Y0017533D01*
X0150744Y0019931D02*
X0162540Y0019931D01*
X0162662Y0022330D02*
X0150744Y0022330D01*
X0159103Y0012736D02*
X0093855Y0012736D01*
X0091457Y0010337D02*
X0156030Y0010337D01*
X0139446Y0017533D02*
X0135744Y0017533D01*
X0136949Y0019931D02*
X0139446Y0019931D01*
X0139446Y0022330D02*
X0136918Y0022330D01*
X0135823Y0024728D02*
X0139446Y0024728D01*
X0126809Y0024728D02*
X0123408Y0024728D01*
X0124524Y0027127D02*
X0119368Y0027127D01*
X0117670Y0027127D02*
X0116177Y0027127D01*
X0114851Y0029525D02*
X0114499Y0029525D01*
X0114547Y0031924D02*
X0113379Y0031924D01*
X0112260Y0034322D02*
X0114912Y0034322D01*
X0116490Y0036721D02*
X0110701Y0036721D01*
X0107849Y0039119D02*
X0118861Y0039119D01*
X0119139Y0041518D02*
X0105018Y0041518D01*
X0102187Y0043917D02*
X0120727Y0043917D01*
X0124360Y0039490D02*
X0122484Y0037614D01*
X0122187Y0029525D02*
X0122784Y0029525D01*
X0123408Y0022330D02*
X0125714Y0022330D01*
X0125683Y0019931D02*
X0123408Y0019931D01*
X0123408Y0017533D02*
X0126887Y0017533D01*
X0117759Y0021073D02*
X0112483Y0026261D01*
X0111907Y0022330D02*
X0109573Y0022330D01*
X0109621Y0019931D02*
X0112110Y0019931D01*
X0112110Y0017533D02*
X0108428Y0017533D01*
X0084462Y0017533D02*
X0080970Y0017533D01*
X0082063Y0019931D02*
X0084462Y0019931D01*
X0084462Y0022330D02*
X0082049Y0022330D01*
X0080907Y0024728D02*
X0084462Y0024728D01*
X0076332Y0024728D02*
X0076331Y0024728D01*
X0076331Y0022330D02*
X0076332Y0022330D01*
X0076331Y0021087D02*
X0076331Y0021087D01*
X0070490Y0021087D01*
X0076331Y0021087D01*
X0071693Y0017533D02*
X0068198Y0017533D01*
X0068198Y0019931D02*
X0070600Y0019931D01*
X0070614Y0022330D02*
X0068198Y0022330D01*
X0068198Y0024728D02*
X0071756Y0024728D01*
X0021302Y0024728D02*
X0021302Y0024728D01*
X0021302Y0022330D02*
X0021302Y0022330D01*
X0016708Y0024728D02*
X0015974Y0024728D01*
X0071797Y0161098D02*
X0094828Y0161098D01*
X0090963Y0168639D02*
X0141975Y0168639D01*
X0148104Y0178233D02*
X0148468Y0178233D01*
X0141297Y0185429D02*
X0115784Y0185429D01*
X0114942Y0187827D02*
X0139889Y0187827D01*
X0139168Y0183030D02*
X0115133Y0183030D01*
X0114141Y0190611D02*
X0114141Y0190611D01*
X0117339Y0191401D02*
X0117339Y0191401D01*
X0119305Y0192624D02*
X0134127Y0192624D01*
X0132784Y0195023D02*
X0121722Y0195023D01*
X0120136Y0193141D02*
X0120136Y0193141D01*
X0122975Y0197421D02*
X0132916Y0197421D01*
X0129786Y0202218D02*
X0129786Y0202218D01*
X0127379Y0199820D02*
X0127379Y0199820D01*
X0126700Y0199820D02*
X0123579Y0199820D01*
X0123632Y0202218D02*
X0125595Y0202218D01*
X0125725Y0204617D02*
X0123641Y0204617D01*
X0066825Y0190974D02*
X0066825Y0190974D01*
X0135919Y0060706D02*
X0145776Y0060706D01*
D19*
X0140333Y0038786D03*
X0148966Y0034824D03*
X0118519Y0031092D03*
X0110340Y0048735D03*
X0086454Y0089605D03*
X0086994Y0121294D03*
X0080616Y0127357D03*
X0094592Y0128184D03*
X0103135Y0129365D03*
X0088254Y0171570D03*
X0111796Y0185333D03*
X0066403Y0122200D03*
X0053411Y0108027D03*
X0054669Y0090128D03*
X0037575Y0092327D03*
X0054310Y0068576D03*
X0009435Y0113775D03*
X0024084Y0129247D03*
X0029868Y0142554D03*
X0010130Y0148845D03*
X0011018Y0186524D03*
X0038971Y0196239D03*
X0052151Y0128224D03*
D20*
X0066403Y0122200D02*
X0010138Y0122139D01*
X0010130Y0148845D01*
X0037575Y0092327D02*
X0039032Y0090871D01*
X0039080Y0080428D01*
X0050340Y0080468D01*
X0052992Y0077816D01*
X0062701Y0077776D01*
X0062210Y0077776D01*
X0062210Y0072337D01*
X0083727Y0072337D01*
X0083727Y0072539D01*
X0086454Y0072539D01*
X0086454Y0089605D01*
X0067151Y0094227D02*
X0067151Y0119798D01*
X0065978Y0121279D01*
X0066403Y0122200D01*
X0067151Y0094227D02*
X0062701Y0089776D01*
X0039080Y0080428D02*
X0028332Y0080428D01*
X0022624Y0076688D01*
X0022624Y0072318D01*
X0022742Y0070468D01*
X0128336Y0031880D02*
X0131316Y0030937D01*
X0131316Y0021093D01*
X0148966Y0034824D02*
X0148999Y0042892D01*
X0147072Y0046893D01*
D21*
X0149792Y0055034D02*
X0149385Y0058084D01*
X0149361Y0086143D01*
X0133916Y0039593D02*
X0133866Y0039591D01*
X0133816Y0039586D01*
X0133767Y0039576D01*
X0133718Y0039563D01*
X0133671Y0039547D01*
X0133625Y0039527D01*
X0133581Y0039503D01*
X0133538Y0039476D01*
X0133498Y0039447D01*
X0133460Y0039414D01*
X0133424Y0039378D01*
X0133391Y0039340D01*
X0133362Y0039300D01*
X0133335Y0039258D01*
X0133311Y0039213D01*
X0133291Y0039167D01*
X0133275Y0039120D01*
X0133262Y0039071D01*
X0133252Y0039022D01*
X0133247Y0038972D01*
X0133245Y0038922D01*
X0122484Y0037614D02*
X0118519Y0033649D01*
X0118519Y0031092D01*
X0103980Y0021073D02*
X0101152Y0023901D01*
X0101152Y0029953D01*
X0095456Y0035649D01*
X0082361Y0035649D01*
X0062969Y0055042D01*
X0058142Y0054900D01*
X0054310Y0057681D01*
X0054310Y0068576D01*
X0062701Y0083776D02*
X0076011Y0083776D01*
X0077781Y0085546D01*
X0077781Y0124483D01*
X0080616Y0127357D01*
X0073096Y0149759D02*
X0103332Y0149641D01*
X0121246Y0149641D01*
X0125120Y0152688D01*
X0129159Y0152688D01*
X0129592Y0144113D02*
X0039883Y0144113D01*
X0038608Y0145389D01*
X0039002Y0155625D02*
X0108400Y0155585D01*
X0116521Y0135625D02*
X0026836Y0135625D01*
X0024084Y0129247D01*
X0039002Y0155625D02*
X0030143Y0162161D01*
X0049876Y0185333D02*
X0111796Y0185333D01*
X0088254Y0178854D02*
X0088254Y0171570D01*
X0088254Y0178854D02*
X0138047Y0178911D01*
X0154015Y0183827D01*
X0154015Y0184010D01*
X0136994Y0148460D02*
X0139762Y0145692D01*
X0139762Y0137899D01*
X0141517Y0136143D01*
X0149361Y0136143D01*
X0071797Y0161098D02*
X0071324Y0161570D01*
X0049876Y0185333D02*
X0038971Y0196239D01*
X0055021Y0089776D02*
X0062701Y0089776D01*
D22*
X0011167Y0016728D02*
X0016679Y0011216D01*
X0085537Y0011216D01*
X0090111Y0015790D01*
X0090111Y0021087D01*
X0062550Y0021113D02*
X0062550Y0035620D01*
X0049002Y0049169D01*
X0042860Y0049169D01*
X0042820Y0049208D01*
X0042820Y0040546D02*
X0048770Y0034597D01*
X0048770Y0021113D01*
X0035081Y0021113D02*
X0035081Y0028207D01*
X0022742Y0040546D01*
X0022742Y0049208D02*
X0012487Y0049208D01*
X0012451Y0049172D01*
X0012451Y0043172D02*
X0011167Y0041887D01*
X0011167Y0016728D01*
D23*
X0133916Y0039594D02*
X0140333Y0038786D01*
D24*
X0116521Y0135625D03*
X0108400Y0155585D03*
X0094828Y0161098D03*
X0073096Y0149759D03*
X0071324Y0161570D03*
X0038608Y0145389D03*
X0030143Y0162161D03*
D25*
X0116521Y0135625D02*
X0117072Y0135074D01*
M02*
