G75*
%MOIN*%
%OFA0B0*%
%FSLAX25Y25*%
%IPPOS*%
%LPD*%
%AMOC8*
5,1,8,0,0,1.08239X$1,22.5*
%
%ADD10C,0.00500*%
%ADD11C,0.00800*%
%ADD12R,0.00300X0.07800*%
%ADD13R,0.00300X0.10200*%
%ADD14R,0.00300X0.12000*%
%ADD15R,0.00300X0.13500*%
%ADD16R,0.00300X0.15300*%
%ADD17R,0.00300X0.06300*%
%ADD18R,0.00300X0.05400*%
%ADD19R,0.00300X0.04800*%
%ADD20R,0.00300X0.05100*%
%ADD21R,0.00300X0.03900*%
%ADD22R,0.00300X0.03600*%
%ADD23R,0.00300X0.03300*%
%ADD24R,0.00300X0.03000*%
%ADD25R,0.00300X0.02700*%
%ADD26R,0.00300X0.02400*%
%ADD27R,0.00300X0.00600*%
%ADD28R,0.00300X0.01800*%
%ADD29R,0.00300X0.02100*%
%ADD30R,0.00300X0.04200*%
%ADD31R,0.00300X0.01500*%
%ADD32R,0.00300X0.05700*%
%ADD33R,0.00300X0.01200*%
%ADD34R,0.00300X0.00300*%
%ADD35R,0.00300X0.00900*%
%ADD36R,0.00300X0.04500*%
%ADD37R,0.00300X0.06000*%
%ADD38R,0.00300X0.09600*%
%ADD39R,0.00300X0.09000*%
%ADD40R,0.00300X0.08400*%
%ADD41R,0.00300X0.07200*%
%ADD42C,0.00400*%
%ADD43C,0.02400*%
%ADD44C,0.02000*%
%ADD45R,0.06201X0.01181*%
%ADD46R,0.00787X0.08661*%
%ADD47R,0.02559X0.10630*%
%ADD48C,0.00600*%
D10*
X0014412Y0007333D02*
X0014412Y0012845D01*
X0041971Y0012845D01*
X0041971Y0007333D01*
X0014412Y0007333D01*
X0014412Y0012845D02*
X0014412Y0029380D01*
X0041971Y0029380D01*
X0041971Y0012845D01*
X0041880Y0012845D02*
X0069439Y0012845D01*
X0069439Y0007333D01*
X0041880Y0007333D01*
X0041880Y0012845D01*
X0041880Y0029380D01*
X0069439Y0029380D01*
X0069439Y0012845D01*
X0069442Y0012820D02*
X0097001Y0012820D01*
X0097001Y0007308D01*
X0069442Y0007308D01*
X0069442Y0012820D01*
X0069442Y0029355D01*
X0097001Y0029355D01*
X0097001Y0012820D01*
X0097090Y0012806D02*
X0124649Y0012806D01*
X0124649Y0007294D01*
X0097090Y0007294D01*
X0097090Y0012806D01*
X0097090Y0029341D01*
X0124649Y0029341D01*
X0124649Y0012806D01*
X0124426Y0012825D02*
X0151985Y0012825D01*
X0151985Y0007313D01*
X0124426Y0007313D01*
X0124426Y0012825D01*
X0124426Y0029361D01*
X0151985Y0029361D01*
X0151985Y0012825D01*
X0146426Y0011782D02*
X0146426Y0008779D01*
X0144424Y0011782D01*
X0144424Y0008779D01*
X0144416Y0008774D02*
X0144416Y0011777D01*
X0146418Y0008774D01*
X0146418Y0011777D01*
X0143276Y0011782D02*
X0142275Y0011782D01*
X0142268Y0011777D02*
X0143269Y0011777D01*
X0142776Y0011782D02*
X0142776Y0008779D01*
X0142768Y0008774D02*
X0142768Y0011777D01*
X0141054Y0011782D02*
X0139053Y0008779D01*
X0139045Y0008774D02*
X0141047Y0011777D01*
X0137832Y0011782D02*
X0137832Y0008779D01*
X0135830Y0011782D01*
X0135830Y0008779D01*
X0135822Y0008774D02*
X0135822Y0011777D01*
X0137824Y0008774D01*
X0137824Y0011777D01*
X0134609Y0011782D02*
X0132607Y0011782D01*
X0132600Y0011777D02*
X0134601Y0011777D01*
X0133608Y0011782D02*
X0133608Y0008779D01*
X0133600Y0008774D02*
X0133600Y0011777D01*
X0131386Y0011281D02*
X0131386Y0010781D01*
X0130886Y0010280D01*
X0129384Y0010280D01*
X0129377Y0010276D02*
X0130878Y0010276D01*
X0131378Y0009775D01*
X0131378Y0009275D01*
X0130878Y0008774D01*
X0129377Y0008774D01*
X0129377Y0011777D01*
X0130878Y0011777D01*
X0131378Y0011277D01*
X0131378Y0010776D01*
X0130878Y0010276D01*
X0130886Y0010280D02*
X0131386Y0009780D01*
X0131386Y0009279D01*
X0130886Y0008779D01*
X0129384Y0008779D01*
X0129384Y0011782D01*
X0130886Y0011782D01*
X0131386Y0011281D01*
X0123271Y0011781D02*
X0121270Y0011781D01*
X0121262Y0011776D02*
X0123264Y0011776D01*
X0122270Y0011781D02*
X0122270Y0008778D01*
X0122263Y0008774D02*
X0122263Y0011776D01*
X0120049Y0010780D02*
X0120049Y0008778D01*
X0120041Y0008774D02*
X0120041Y0010775D01*
X0119040Y0011776D01*
X0118039Y0010775D01*
X0118039Y0008774D01*
X0118047Y0008778D02*
X0118047Y0010780D01*
X0119048Y0011781D01*
X0120049Y0010780D01*
X0120049Y0010280D02*
X0118047Y0010280D01*
X0118039Y0010275D02*
X0120041Y0010275D01*
X0116826Y0011781D02*
X0114824Y0011781D01*
X0114816Y0011776D02*
X0116818Y0011776D01*
X0115825Y0011781D02*
X0115825Y0008778D01*
X0115817Y0008774D02*
X0115817Y0011776D01*
X0113603Y0011280D02*
X0113103Y0011781D01*
X0112102Y0011781D01*
X0111601Y0011280D01*
X0111601Y0010780D01*
X0112102Y0010280D01*
X0113103Y0010280D01*
X0113603Y0009779D01*
X0113603Y0009279D01*
X0113103Y0008778D01*
X0112102Y0008778D01*
X0111601Y0009279D01*
X0111594Y0009274D02*
X0112094Y0008774D01*
X0113095Y0008774D01*
X0113595Y0009274D01*
X0113595Y0009774D01*
X0113095Y0010275D01*
X0112094Y0010275D01*
X0111594Y0010775D01*
X0111594Y0011276D01*
X0112094Y0011776D01*
X0113095Y0011776D01*
X0113595Y0011276D01*
X0110380Y0011280D02*
X0110380Y0010280D01*
X0109880Y0009779D01*
X0108379Y0009779D01*
X0108371Y0009774D02*
X0109872Y0009774D01*
X0110373Y0010275D01*
X0110373Y0011276D01*
X0109872Y0011776D01*
X0108371Y0011776D01*
X0108371Y0008774D01*
X0108379Y0008778D02*
X0108379Y0011781D01*
X0109880Y0011781D01*
X0110380Y0011280D01*
X0109379Y0009779D02*
X0110380Y0008778D01*
X0110373Y0008774D02*
X0109372Y0009774D01*
X0107158Y0009279D02*
X0106657Y0008778D01*
X0105656Y0008778D01*
X0105156Y0009279D01*
X0105156Y0011280D01*
X0105656Y0011781D01*
X0106657Y0011781D01*
X0107158Y0011280D01*
X0107158Y0009279D01*
X0107150Y0009274D02*
X0107150Y0011276D01*
X0106650Y0011776D01*
X0105649Y0011776D01*
X0105148Y0011276D01*
X0105148Y0009274D01*
X0105649Y0008774D01*
X0106650Y0008774D01*
X0107150Y0009274D01*
X0103935Y0009279D02*
X0103434Y0008778D01*
X0102434Y0008778D01*
X0101933Y0009279D01*
X0101933Y0011280D01*
X0102434Y0011781D01*
X0103434Y0011781D01*
X0103935Y0011280D01*
X0103935Y0009279D01*
X0103927Y0009274D02*
X0103927Y0011276D01*
X0103427Y0011776D01*
X0102426Y0011776D01*
X0101926Y0011276D01*
X0101926Y0009274D01*
X0102426Y0008774D01*
X0103427Y0008774D01*
X0103927Y0009274D01*
X0100712Y0009279D02*
X0100212Y0008778D01*
X0098710Y0008778D01*
X0098710Y0011781D01*
X0100212Y0011781D01*
X0100712Y0011280D01*
X0100712Y0009279D01*
X0100704Y0009274D02*
X0100704Y0011276D01*
X0100204Y0011776D01*
X0098703Y0011776D01*
X0098703Y0008774D01*
X0100204Y0008774D01*
X0100704Y0009274D01*
X0095907Y0014468D02*
X0093906Y0014468D01*
X0093898Y0014463D02*
X0095900Y0014463D01*
X0094906Y0013467D02*
X0094906Y0015469D01*
X0094899Y0015464D02*
X0094899Y0013462D01*
X0092667Y0011082D02*
X0092667Y0009080D01*
X0091666Y0008080D01*
X0090665Y0009080D01*
X0090665Y0011082D01*
X0090658Y0011078D02*
X0090658Y0009076D01*
X0091659Y0008075D01*
X0092659Y0009076D01*
X0092659Y0011078D01*
X0091056Y0013330D02*
X0090055Y0014330D01*
X0090047Y0014326D02*
X0091048Y0013325D01*
X0090548Y0014326D02*
X0089046Y0014326D01*
X0089054Y0014330D02*
X0090555Y0014330D01*
X0091056Y0014831D01*
X0091056Y0015832D01*
X0090555Y0016332D01*
X0089054Y0016332D01*
X0089054Y0013330D01*
X0089046Y0013325D02*
X0089046Y0016328D01*
X0090548Y0016328D01*
X0091048Y0015827D01*
X0091048Y0014826D01*
X0090548Y0014326D01*
X0087833Y0013330D02*
X0085831Y0013330D01*
X0085831Y0016332D01*
X0087833Y0016332D01*
X0087825Y0016328D02*
X0085824Y0016328D01*
X0085824Y0013325D01*
X0087825Y0013325D01*
X0086832Y0014831D02*
X0085831Y0014831D01*
X0085824Y0014826D02*
X0086824Y0014826D01*
X0084610Y0013330D02*
X0084610Y0016332D01*
X0084603Y0016328D02*
X0084603Y0013325D01*
X0083602Y0014326D01*
X0082601Y0013325D01*
X0082601Y0016328D01*
X0082608Y0016332D02*
X0082608Y0013330D01*
X0083609Y0014330D01*
X0084610Y0013330D01*
X0085221Y0011082D02*
X0085221Y0008080D01*
X0085213Y0008075D02*
X0085213Y0011078D01*
X0084212Y0010077D01*
X0084220Y0010081D02*
X0085221Y0011082D01*
X0082999Y0009581D02*
X0080997Y0009581D01*
X0080989Y0009576D02*
X0082991Y0009576D01*
X0084212Y0008075D02*
X0086214Y0008075D01*
X0086222Y0008080D02*
X0084220Y0008080D01*
X0087435Y0008075D02*
X0089437Y0010077D01*
X0089437Y0010577D01*
X0088936Y0011078D01*
X0087935Y0011078D01*
X0087435Y0010577D01*
X0087443Y0010582D02*
X0087943Y0011082D01*
X0088944Y0011082D01*
X0089444Y0010582D01*
X0089444Y0010081D01*
X0087443Y0008080D01*
X0089444Y0008080D01*
X0089437Y0008075D02*
X0087435Y0008075D01*
X0081387Y0013830D02*
X0081387Y0015832D01*
X0080887Y0016332D01*
X0079886Y0016332D01*
X0079386Y0015832D01*
X0079386Y0013830D01*
X0079886Y0013330D01*
X0080887Y0013330D01*
X0081387Y0013830D01*
X0081380Y0013825D02*
X0081380Y0015827D01*
X0080879Y0016328D01*
X0079878Y0016328D01*
X0079378Y0015827D01*
X0079378Y0013825D01*
X0079878Y0013325D01*
X0080879Y0013325D01*
X0081380Y0013825D01*
X0079776Y0011082D02*
X0079776Y0009080D01*
X0078775Y0008080D01*
X0077774Y0009080D01*
X0077774Y0011082D01*
X0077767Y0011078D02*
X0077767Y0009076D01*
X0078768Y0008075D01*
X0079768Y0009076D01*
X0079768Y0011078D01*
X0076553Y0010582D02*
X0076553Y0010081D01*
X0076053Y0009581D01*
X0075052Y0009581D01*
X0074552Y0010081D01*
X0074552Y0010582D01*
X0075052Y0011082D01*
X0076053Y0011082D01*
X0076553Y0010582D01*
X0076546Y0010577D02*
X0076546Y0010077D01*
X0076045Y0009576D01*
X0075044Y0009576D01*
X0074544Y0010077D01*
X0074544Y0010577D01*
X0075044Y0011078D01*
X0076045Y0011078D01*
X0076546Y0010577D01*
X0076053Y0009581D02*
X0076553Y0009080D01*
X0076553Y0008580D01*
X0076053Y0008080D01*
X0075052Y0008080D01*
X0074552Y0008580D01*
X0074552Y0009080D01*
X0075052Y0009581D01*
X0075044Y0009576D02*
X0074544Y0009076D01*
X0074544Y0008575D01*
X0075044Y0008075D01*
X0076045Y0008075D01*
X0076546Y0008575D01*
X0076546Y0009076D01*
X0076045Y0009576D01*
X0076155Y0013325D02*
X0076155Y0016328D01*
X0077657Y0016328D01*
X0078157Y0015827D01*
X0078157Y0014826D01*
X0077657Y0014326D01*
X0076155Y0014326D01*
X0076163Y0014330D02*
X0077664Y0014330D01*
X0078165Y0014831D01*
X0078165Y0015832D01*
X0077664Y0016332D01*
X0076163Y0016332D01*
X0076163Y0013330D01*
X0070504Y0021087D02*
X0070506Y0021240D01*
X0070512Y0021394D01*
X0070522Y0021547D01*
X0070536Y0021699D01*
X0070554Y0021852D01*
X0070576Y0022003D01*
X0070601Y0022154D01*
X0070631Y0022305D01*
X0070665Y0022455D01*
X0070702Y0022603D01*
X0070743Y0022751D01*
X0070788Y0022897D01*
X0070837Y0023043D01*
X0070890Y0023187D01*
X0070946Y0023329D01*
X0071006Y0023470D01*
X0071070Y0023610D01*
X0071137Y0023748D01*
X0071208Y0023884D01*
X0071283Y0024018D01*
X0071360Y0024150D01*
X0071442Y0024280D01*
X0071526Y0024408D01*
X0071614Y0024534D01*
X0071705Y0024657D01*
X0071799Y0024778D01*
X0071897Y0024896D01*
X0071997Y0025012D01*
X0072101Y0025125D01*
X0072207Y0025236D01*
X0072316Y0025344D01*
X0072428Y0025449D01*
X0072542Y0025550D01*
X0072660Y0025649D01*
X0072779Y0025745D01*
X0072901Y0025838D01*
X0073026Y0025927D01*
X0073153Y0026014D01*
X0073282Y0026096D01*
X0073413Y0026176D01*
X0073546Y0026252D01*
X0073681Y0026325D01*
X0073818Y0026394D01*
X0073957Y0026459D01*
X0074097Y0026521D01*
X0074239Y0026579D01*
X0074382Y0026634D01*
X0074527Y0026685D01*
X0074673Y0026732D01*
X0074820Y0026775D01*
X0074968Y0026814D01*
X0075117Y0026850D01*
X0075267Y0026881D01*
X0075418Y0026909D01*
X0075569Y0026933D01*
X0075722Y0026953D01*
X0075874Y0026969D01*
X0076027Y0026981D01*
X0076180Y0026989D01*
X0076333Y0026993D01*
X0076487Y0026993D01*
X0076640Y0026989D01*
X0076793Y0026981D01*
X0076946Y0026969D01*
X0077098Y0026953D01*
X0077251Y0026933D01*
X0077402Y0026909D01*
X0077553Y0026881D01*
X0077703Y0026850D01*
X0077852Y0026814D01*
X0078000Y0026775D01*
X0078147Y0026732D01*
X0078293Y0026685D01*
X0078438Y0026634D01*
X0078581Y0026579D01*
X0078723Y0026521D01*
X0078863Y0026459D01*
X0079002Y0026394D01*
X0079139Y0026325D01*
X0079274Y0026252D01*
X0079407Y0026176D01*
X0079538Y0026096D01*
X0079667Y0026014D01*
X0079794Y0025927D01*
X0079919Y0025838D01*
X0080041Y0025745D01*
X0080160Y0025649D01*
X0080278Y0025550D01*
X0080392Y0025449D01*
X0080504Y0025344D01*
X0080613Y0025236D01*
X0080719Y0025125D01*
X0080823Y0025012D01*
X0080923Y0024896D01*
X0081021Y0024778D01*
X0081115Y0024657D01*
X0081206Y0024534D01*
X0081294Y0024408D01*
X0081378Y0024280D01*
X0081460Y0024150D01*
X0081537Y0024018D01*
X0081612Y0023884D01*
X0081683Y0023748D01*
X0081750Y0023610D01*
X0081814Y0023470D01*
X0081874Y0023329D01*
X0081930Y0023187D01*
X0081983Y0023043D01*
X0082032Y0022897D01*
X0082077Y0022751D01*
X0082118Y0022603D01*
X0082155Y0022455D01*
X0082189Y0022305D01*
X0082219Y0022154D01*
X0082244Y0022003D01*
X0082266Y0021852D01*
X0082284Y0021699D01*
X0082298Y0021547D01*
X0082308Y0021394D01*
X0082314Y0021240D01*
X0082316Y0021087D01*
X0082314Y0020934D01*
X0082308Y0020780D01*
X0082298Y0020627D01*
X0082284Y0020475D01*
X0082266Y0020322D01*
X0082244Y0020171D01*
X0082219Y0020020D01*
X0082189Y0019869D01*
X0082155Y0019719D01*
X0082118Y0019571D01*
X0082077Y0019423D01*
X0082032Y0019277D01*
X0081983Y0019131D01*
X0081930Y0018987D01*
X0081874Y0018845D01*
X0081814Y0018704D01*
X0081750Y0018564D01*
X0081683Y0018426D01*
X0081612Y0018290D01*
X0081537Y0018156D01*
X0081460Y0018024D01*
X0081378Y0017894D01*
X0081294Y0017766D01*
X0081206Y0017640D01*
X0081115Y0017517D01*
X0081021Y0017396D01*
X0080923Y0017278D01*
X0080823Y0017162D01*
X0080719Y0017049D01*
X0080613Y0016938D01*
X0080504Y0016830D01*
X0080392Y0016725D01*
X0080278Y0016624D01*
X0080160Y0016525D01*
X0080041Y0016429D01*
X0079919Y0016336D01*
X0079794Y0016247D01*
X0079667Y0016160D01*
X0079538Y0016078D01*
X0079407Y0015998D01*
X0079274Y0015922D01*
X0079139Y0015849D01*
X0079002Y0015780D01*
X0078863Y0015715D01*
X0078723Y0015653D01*
X0078581Y0015595D01*
X0078438Y0015540D01*
X0078293Y0015489D01*
X0078147Y0015442D01*
X0078000Y0015399D01*
X0077852Y0015360D01*
X0077703Y0015324D01*
X0077553Y0015293D01*
X0077402Y0015265D01*
X0077251Y0015241D01*
X0077098Y0015221D01*
X0076946Y0015205D01*
X0076793Y0015193D01*
X0076640Y0015185D01*
X0076487Y0015181D01*
X0076333Y0015181D01*
X0076180Y0015185D01*
X0076027Y0015193D01*
X0075874Y0015205D01*
X0075722Y0015221D01*
X0075569Y0015241D01*
X0075418Y0015265D01*
X0075267Y0015293D01*
X0075117Y0015324D01*
X0074968Y0015360D01*
X0074820Y0015399D01*
X0074673Y0015442D01*
X0074527Y0015489D01*
X0074382Y0015540D01*
X0074239Y0015595D01*
X0074097Y0015653D01*
X0073957Y0015715D01*
X0073818Y0015780D01*
X0073681Y0015849D01*
X0073546Y0015922D01*
X0073413Y0015998D01*
X0073282Y0016078D01*
X0073153Y0016160D01*
X0073026Y0016247D01*
X0072901Y0016336D01*
X0072779Y0016429D01*
X0072660Y0016525D01*
X0072542Y0016624D01*
X0072428Y0016725D01*
X0072316Y0016830D01*
X0072207Y0016938D01*
X0072101Y0017049D01*
X0071997Y0017162D01*
X0071897Y0017278D01*
X0071799Y0017396D01*
X0071705Y0017517D01*
X0071614Y0017640D01*
X0071526Y0017766D01*
X0071442Y0017894D01*
X0071360Y0018024D01*
X0071283Y0018156D01*
X0071208Y0018290D01*
X0071137Y0018426D01*
X0071070Y0018564D01*
X0071006Y0018704D01*
X0070946Y0018845D01*
X0070890Y0018987D01*
X0070837Y0019131D01*
X0070788Y0019277D01*
X0070743Y0019423D01*
X0070702Y0019571D01*
X0070665Y0019719D01*
X0070631Y0019869D01*
X0070601Y0020020D01*
X0070576Y0020171D01*
X0070554Y0020322D01*
X0070536Y0020475D01*
X0070522Y0020627D01*
X0070512Y0020780D01*
X0070506Y0020934D01*
X0070504Y0021087D01*
X0069442Y0029355D02*
X0069442Y0034867D01*
X0097001Y0034867D01*
X0097001Y0029355D01*
X0097090Y0029341D02*
X0097090Y0034853D01*
X0124649Y0034853D01*
X0124649Y0029341D01*
X0124426Y0029361D02*
X0124426Y0034872D01*
X0151985Y0034872D01*
X0151985Y0029361D01*
X0139111Y0021093D02*
X0139113Y0021246D01*
X0139119Y0021400D01*
X0139129Y0021553D01*
X0139143Y0021705D01*
X0139161Y0021858D01*
X0139183Y0022009D01*
X0139208Y0022160D01*
X0139238Y0022311D01*
X0139272Y0022461D01*
X0139309Y0022609D01*
X0139350Y0022757D01*
X0139395Y0022903D01*
X0139444Y0023049D01*
X0139497Y0023193D01*
X0139553Y0023335D01*
X0139613Y0023476D01*
X0139677Y0023616D01*
X0139744Y0023754D01*
X0139815Y0023890D01*
X0139890Y0024024D01*
X0139967Y0024156D01*
X0140049Y0024286D01*
X0140133Y0024414D01*
X0140221Y0024540D01*
X0140312Y0024663D01*
X0140406Y0024784D01*
X0140504Y0024902D01*
X0140604Y0025018D01*
X0140708Y0025131D01*
X0140814Y0025242D01*
X0140923Y0025350D01*
X0141035Y0025455D01*
X0141149Y0025556D01*
X0141267Y0025655D01*
X0141386Y0025751D01*
X0141508Y0025844D01*
X0141633Y0025933D01*
X0141760Y0026020D01*
X0141889Y0026102D01*
X0142020Y0026182D01*
X0142153Y0026258D01*
X0142288Y0026331D01*
X0142425Y0026400D01*
X0142564Y0026465D01*
X0142704Y0026527D01*
X0142846Y0026585D01*
X0142989Y0026640D01*
X0143134Y0026691D01*
X0143280Y0026738D01*
X0143427Y0026781D01*
X0143575Y0026820D01*
X0143724Y0026856D01*
X0143874Y0026887D01*
X0144025Y0026915D01*
X0144176Y0026939D01*
X0144329Y0026959D01*
X0144481Y0026975D01*
X0144634Y0026987D01*
X0144787Y0026995D01*
X0144940Y0026999D01*
X0145094Y0026999D01*
X0145247Y0026995D01*
X0145400Y0026987D01*
X0145553Y0026975D01*
X0145705Y0026959D01*
X0145858Y0026939D01*
X0146009Y0026915D01*
X0146160Y0026887D01*
X0146310Y0026856D01*
X0146459Y0026820D01*
X0146607Y0026781D01*
X0146754Y0026738D01*
X0146900Y0026691D01*
X0147045Y0026640D01*
X0147188Y0026585D01*
X0147330Y0026527D01*
X0147470Y0026465D01*
X0147609Y0026400D01*
X0147746Y0026331D01*
X0147881Y0026258D01*
X0148014Y0026182D01*
X0148145Y0026102D01*
X0148274Y0026020D01*
X0148401Y0025933D01*
X0148526Y0025844D01*
X0148648Y0025751D01*
X0148767Y0025655D01*
X0148885Y0025556D01*
X0148999Y0025455D01*
X0149111Y0025350D01*
X0149220Y0025242D01*
X0149326Y0025131D01*
X0149430Y0025018D01*
X0149530Y0024902D01*
X0149628Y0024784D01*
X0149722Y0024663D01*
X0149813Y0024540D01*
X0149901Y0024414D01*
X0149985Y0024286D01*
X0150067Y0024156D01*
X0150144Y0024024D01*
X0150219Y0023890D01*
X0150290Y0023754D01*
X0150357Y0023616D01*
X0150421Y0023476D01*
X0150481Y0023335D01*
X0150537Y0023193D01*
X0150590Y0023049D01*
X0150639Y0022903D01*
X0150684Y0022757D01*
X0150725Y0022609D01*
X0150762Y0022461D01*
X0150796Y0022311D01*
X0150826Y0022160D01*
X0150851Y0022009D01*
X0150873Y0021858D01*
X0150891Y0021705D01*
X0150905Y0021553D01*
X0150915Y0021400D01*
X0150921Y0021246D01*
X0150923Y0021093D01*
X0150921Y0020940D01*
X0150915Y0020786D01*
X0150905Y0020633D01*
X0150891Y0020481D01*
X0150873Y0020328D01*
X0150851Y0020177D01*
X0150826Y0020026D01*
X0150796Y0019875D01*
X0150762Y0019725D01*
X0150725Y0019577D01*
X0150684Y0019429D01*
X0150639Y0019283D01*
X0150590Y0019137D01*
X0150537Y0018993D01*
X0150481Y0018851D01*
X0150421Y0018710D01*
X0150357Y0018570D01*
X0150290Y0018432D01*
X0150219Y0018296D01*
X0150144Y0018162D01*
X0150067Y0018030D01*
X0149985Y0017900D01*
X0149901Y0017772D01*
X0149813Y0017646D01*
X0149722Y0017523D01*
X0149628Y0017402D01*
X0149530Y0017284D01*
X0149430Y0017168D01*
X0149326Y0017055D01*
X0149220Y0016944D01*
X0149111Y0016836D01*
X0148999Y0016731D01*
X0148885Y0016630D01*
X0148767Y0016531D01*
X0148648Y0016435D01*
X0148526Y0016342D01*
X0148401Y0016253D01*
X0148274Y0016166D01*
X0148145Y0016084D01*
X0148014Y0016004D01*
X0147881Y0015928D01*
X0147746Y0015855D01*
X0147609Y0015786D01*
X0147470Y0015721D01*
X0147330Y0015659D01*
X0147188Y0015601D01*
X0147045Y0015546D01*
X0146900Y0015495D01*
X0146754Y0015448D01*
X0146607Y0015405D01*
X0146459Y0015366D01*
X0146310Y0015330D01*
X0146160Y0015299D01*
X0146009Y0015271D01*
X0145858Y0015247D01*
X0145705Y0015227D01*
X0145553Y0015211D01*
X0145400Y0015199D01*
X0145247Y0015191D01*
X0145094Y0015187D01*
X0144940Y0015187D01*
X0144787Y0015191D01*
X0144634Y0015199D01*
X0144481Y0015211D01*
X0144329Y0015227D01*
X0144176Y0015247D01*
X0144025Y0015271D01*
X0143874Y0015299D01*
X0143724Y0015330D01*
X0143575Y0015366D01*
X0143427Y0015405D01*
X0143280Y0015448D01*
X0143134Y0015495D01*
X0142989Y0015546D01*
X0142846Y0015601D01*
X0142704Y0015659D01*
X0142564Y0015721D01*
X0142425Y0015786D01*
X0142288Y0015855D01*
X0142153Y0015928D01*
X0142020Y0016004D01*
X0141889Y0016084D01*
X0141760Y0016166D01*
X0141633Y0016253D01*
X0141508Y0016342D01*
X0141386Y0016435D01*
X0141267Y0016531D01*
X0141149Y0016630D01*
X0141035Y0016731D01*
X0140923Y0016836D01*
X0140814Y0016944D01*
X0140708Y0017055D01*
X0140604Y0017168D01*
X0140504Y0017284D01*
X0140406Y0017402D01*
X0140312Y0017523D01*
X0140221Y0017646D01*
X0140133Y0017772D01*
X0140049Y0017900D01*
X0139967Y0018030D01*
X0139890Y0018162D01*
X0139815Y0018296D01*
X0139744Y0018432D01*
X0139677Y0018570D01*
X0139613Y0018710D01*
X0139553Y0018851D01*
X0139497Y0018993D01*
X0139444Y0019137D01*
X0139395Y0019283D01*
X0139350Y0019429D01*
X0139309Y0019577D01*
X0139272Y0019725D01*
X0139238Y0019875D01*
X0139208Y0020026D01*
X0139183Y0020177D01*
X0139161Y0020328D01*
X0139143Y0020481D01*
X0139129Y0020633D01*
X0139119Y0020786D01*
X0139113Y0020940D01*
X0139111Y0021093D01*
X0125488Y0021093D02*
X0125490Y0021246D01*
X0125496Y0021400D01*
X0125506Y0021553D01*
X0125520Y0021705D01*
X0125538Y0021858D01*
X0125560Y0022009D01*
X0125585Y0022160D01*
X0125615Y0022311D01*
X0125649Y0022461D01*
X0125686Y0022609D01*
X0125727Y0022757D01*
X0125772Y0022903D01*
X0125821Y0023049D01*
X0125874Y0023193D01*
X0125930Y0023335D01*
X0125990Y0023476D01*
X0126054Y0023616D01*
X0126121Y0023754D01*
X0126192Y0023890D01*
X0126267Y0024024D01*
X0126344Y0024156D01*
X0126426Y0024286D01*
X0126510Y0024414D01*
X0126598Y0024540D01*
X0126689Y0024663D01*
X0126783Y0024784D01*
X0126881Y0024902D01*
X0126981Y0025018D01*
X0127085Y0025131D01*
X0127191Y0025242D01*
X0127300Y0025350D01*
X0127412Y0025455D01*
X0127526Y0025556D01*
X0127644Y0025655D01*
X0127763Y0025751D01*
X0127885Y0025844D01*
X0128010Y0025933D01*
X0128137Y0026020D01*
X0128266Y0026102D01*
X0128397Y0026182D01*
X0128530Y0026258D01*
X0128665Y0026331D01*
X0128802Y0026400D01*
X0128941Y0026465D01*
X0129081Y0026527D01*
X0129223Y0026585D01*
X0129366Y0026640D01*
X0129511Y0026691D01*
X0129657Y0026738D01*
X0129804Y0026781D01*
X0129952Y0026820D01*
X0130101Y0026856D01*
X0130251Y0026887D01*
X0130402Y0026915D01*
X0130553Y0026939D01*
X0130706Y0026959D01*
X0130858Y0026975D01*
X0131011Y0026987D01*
X0131164Y0026995D01*
X0131317Y0026999D01*
X0131471Y0026999D01*
X0131624Y0026995D01*
X0131777Y0026987D01*
X0131930Y0026975D01*
X0132082Y0026959D01*
X0132235Y0026939D01*
X0132386Y0026915D01*
X0132537Y0026887D01*
X0132687Y0026856D01*
X0132836Y0026820D01*
X0132984Y0026781D01*
X0133131Y0026738D01*
X0133277Y0026691D01*
X0133422Y0026640D01*
X0133565Y0026585D01*
X0133707Y0026527D01*
X0133847Y0026465D01*
X0133986Y0026400D01*
X0134123Y0026331D01*
X0134258Y0026258D01*
X0134391Y0026182D01*
X0134522Y0026102D01*
X0134651Y0026020D01*
X0134778Y0025933D01*
X0134903Y0025844D01*
X0135025Y0025751D01*
X0135144Y0025655D01*
X0135262Y0025556D01*
X0135376Y0025455D01*
X0135488Y0025350D01*
X0135597Y0025242D01*
X0135703Y0025131D01*
X0135807Y0025018D01*
X0135907Y0024902D01*
X0136005Y0024784D01*
X0136099Y0024663D01*
X0136190Y0024540D01*
X0136278Y0024414D01*
X0136362Y0024286D01*
X0136444Y0024156D01*
X0136521Y0024024D01*
X0136596Y0023890D01*
X0136667Y0023754D01*
X0136734Y0023616D01*
X0136798Y0023476D01*
X0136858Y0023335D01*
X0136914Y0023193D01*
X0136967Y0023049D01*
X0137016Y0022903D01*
X0137061Y0022757D01*
X0137102Y0022609D01*
X0137139Y0022461D01*
X0137173Y0022311D01*
X0137203Y0022160D01*
X0137228Y0022009D01*
X0137250Y0021858D01*
X0137268Y0021705D01*
X0137282Y0021553D01*
X0137292Y0021400D01*
X0137298Y0021246D01*
X0137300Y0021093D01*
X0137298Y0020940D01*
X0137292Y0020786D01*
X0137282Y0020633D01*
X0137268Y0020481D01*
X0137250Y0020328D01*
X0137228Y0020177D01*
X0137203Y0020026D01*
X0137173Y0019875D01*
X0137139Y0019725D01*
X0137102Y0019577D01*
X0137061Y0019429D01*
X0137016Y0019283D01*
X0136967Y0019137D01*
X0136914Y0018993D01*
X0136858Y0018851D01*
X0136798Y0018710D01*
X0136734Y0018570D01*
X0136667Y0018432D01*
X0136596Y0018296D01*
X0136521Y0018162D01*
X0136444Y0018030D01*
X0136362Y0017900D01*
X0136278Y0017772D01*
X0136190Y0017646D01*
X0136099Y0017523D01*
X0136005Y0017402D01*
X0135907Y0017284D01*
X0135807Y0017168D01*
X0135703Y0017055D01*
X0135597Y0016944D01*
X0135488Y0016836D01*
X0135376Y0016731D01*
X0135262Y0016630D01*
X0135144Y0016531D01*
X0135025Y0016435D01*
X0134903Y0016342D01*
X0134778Y0016253D01*
X0134651Y0016166D01*
X0134522Y0016084D01*
X0134391Y0016004D01*
X0134258Y0015928D01*
X0134123Y0015855D01*
X0133986Y0015786D01*
X0133847Y0015721D01*
X0133707Y0015659D01*
X0133565Y0015601D01*
X0133422Y0015546D01*
X0133277Y0015495D01*
X0133131Y0015448D01*
X0132984Y0015405D01*
X0132836Y0015366D01*
X0132687Y0015330D01*
X0132537Y0015299D01*
X0132386Y0015271D01*
X0132235Y0015247D01*
X0132082Y0015227D01*
X0131930Y0015211D01*
X0131777Y0015199D01*
X0131624Y0015191D01*
X0131471Y0015187D01*
X0131317Y0015187D01*
X0131164Y0015191D01*
X0131011Y0015199D01*
X0130858Y0015211D01*
X0130706Y0015227D01*
X0130553Y0015247D01*
X0130402Y0015271D01*
X0130251Y0015299D01*
X0130101Y0015330D01*
X0129952Y0015366D01*
X0129804Y0015405D01*
X0129657Y0015448D01*
X0129511Y0015495D01*
X0129366Y0015546D01*
X0129223Y0015601D01*
X0129081Y0015659D01*
X0128941Y0015721D01*
X0128802Y0015786D01*
X0128665Y0015855D01*
X0128530Y0015928D01*
X0128397Y0016004D01*
X0128266Y0016084D01*
X0128137Y0016166D01*
X0128010Y0016253D01*
X0127885Y0016342D01*
X0127763Y0016435D01*
X0127644Y0016531D01*
X0127526Y0016630D01*
X0127412Y0016731D01*
X0127300Y0016836D01*
X0127191Y0016944D01*
X0127085Y0017055D01*
X0126981Y0017168D01*
X0126881Y0017284D01*
X0126783Y0017402D01*
X0126689Y0017523D01*
X0126598Y0017646D01*
X0126510Y0017772D01*
X0126426Y0017900D01*
X0126344Y0018030D01*
X0126267Y0018162D01*
X0126192Y0018296D01*
X0126121Y0018432D01*
X0126054Y0018570D01*
X0125990Y0018710D01*
X0125930Y0018851D01*
X0125874Y0018993D01*
X0125821Y0019137D01*
X0125772Y0019283D01*
X0125727Y0019429D01*
X0125686Y0019577D01*
X0125649Y0019725D01*
X0125615Y0019875D01*
X0125585Y0020026D01*
X0125560Y0020177D01*
X0125538Y0020328D01*
X0125520Y0020481D01*
X0125506Y0020633D01*
X0125496Y0020786D01*
X0125490Y0020940D01*
X0125488Y0021093D01*
X0111774Y0021073D02*
X0111776Y0021226D01*
X0111782Y0021380D01*
X0111792Y0021533D01*
X0111806Y0021685D01*
X0111824Y0021838D01*
X0111846Y0021989D01*
X0111871Y0022140D01*
X0111901Y0022291D01*
X0111935Y0022441D01*
X0111972Y0022589D01*
X0112013Y0022737D01*
X0112058Y0022883D01*
X0112107Y0023029D01*
X0112160Y0023173D01*
X0112216Y0023315D01*
X0112276Y0023456D01*
X0112340Y0023596D01*
X0112407Y0023734D01*
X0112478Y0023870D01*
X0112553Y0024004D01*
X0112630Y0024136D01*
X0112712Y0024266D01*
X0112796Y0024394D01*
X0112884Y0024520D01*
X0112975Y0024643D01*
X0113069Y0024764D01*
X0113167Y0024882D01*
X0113267Y0024998D01*
X0113371Y0025111D01*
X0113477Y0025222D01*
X0113586Y0025330D01*
X0113698Y0025435D01*
X0113812Y0025536D01*
X0113930Y0025635D01*
X0114049Y0025731D01*
X0114171Y0025824D01*
X0114296Y0025913D01*
X0114423Y0026000D01*
X0114552Y0026082D01*
X0114683Y0026162D01*
X0114816Y0026238D01*
X0114951Y0026311D01*
X0115088Y0026380D01*
X0115227Y0026445D01*
X0115367Y0026507D01*
X0115509Y0026565D01*
X0115652Y0026620D01*
X0115797Y0026671D01*
X0115943Y0026718D01*
X0116090Y0026761D01*
X0116238Y0026800D01*
X0116387Y0026836D01*
X0116537Y0026867D01*
X0116688Y0026895D01*
X0116839Y0026919D01*
X0116992Y0026939D01*
X0117144Y0026955D01*
X0117297Y0026967D01*
X0117450Y0026975D01*
X0117603Y0026979D01*
X0117757Y0026979D01*
X0117910Y0026975D01*
X0118063Y0026967D01*
X0118216Y0026955D01*
X0118368Y0026939D01*
X0118521Y0026919D01*
X0118672Y0026895D01*
X0118823Y0026867D01*
X0118973Y0026836D01*
X0119122Y0026800D01*
X0119270Y0026761D01*
X0119417Y0026718D01*
X0119563Y0026671D01*
X0119708Y0026620D01*
X0119851Y0026565D01*
X0119993Y0026507D01*
X0120133Y0026445D01*
X0120272Y0026380D01*
X0120409Y0026311D01*
X0120544Y0026238D01*
X0120677Y0026162D01*
X0120808Y0026082D01*
X0120937Y0026000D01*
X0121064Y0025913D01*
X0121189Y0025824D01*
X0121311Y0025731D01*
X0121430Y0025635D01*
X0121548Y0025536D01*
X0121662Y0025435D01*
X0121774Y0025330D01*
X0121883Y0025222D01*
X0121989Y0025111D01*
X0122093Y0024998D01*
X0122193Y0024882D01*
X0122291Y0024764D01*
X0122385Y0024643D01*
X0122476Y0024520D01*
X0122564Y0024394D01*
X0122648Y0024266D01*
X0122730Y0024136D01*
X0122807Y0024004D01*
X0122882Y0023870D01*
X0122953Y0023734D01*
X0123020Y0023596D01*
X0123084Y0023456D01*
X0123144Y0023315D01*
X0123200Y0023173D01*
X0123253Y0023029D01*
X0123302Y0022883D01*
X0123347Y0022737D01*
X0123388Y0022589D01*
X0123425Y0022441D01*
X0123459Y0022291D01*
X0123489Y0022140D01*
X0123514Y0021989D01*
X0123536Y0021838D01*
X0123554Y0021685D01*
X0123568Y0021533D01*
X0123578Y0021380D01*
X0123584Y0021226D01*
X0123586Y0021073D01*
X0123584Y0020920D01*
X0123578Y0020766D01*
X0123568Y0020613D01*
X0123554Y0020461D01*
X0123536Y0020308D01*
X0123514Y0020157D01*
X0123489Y0020006D01*
X0123459Y0019855D01*
X0123425Y0019705D01*
X0123388Y0019557D01*
X0123347Y0019409D01*
X0123302Y0019263D01*
X0123253Y0019117D01*
X0123200Y0018973D01*
X0123144Y0018831D01*
X0123084Y0018690D01*
X0123020Y0018550D01*
X0122953Y0018412D01*
X0122882Y0018276D01*
X0122807Y0018142D01*
X0122730Y0018010D01*
X0122648Y0017880D01*
X0122564Y0017752D01*
X0122476Y0017626D01*
X0122385Y0017503D01*
X0122291Y0017382D01*
X0122193Y0017264D01*
X0122093Y0017148D01*
X0121989Y0017035D01*
X0121883Y0016924D01*
X0121774Y0016816D01*
X0121662Y0016711D01*
X0121548Y0016610D01*
X0121430Y0016511D01*
X0121311Y0016415D01*
X0121189Y0016322D01*
X0121064Y0016233D01*
X0120937Y0016146D01*
X0120808Y0016064D01*
X0120677Y0015984D01*
X0120544Y0015908D01*
X0120409Y0015835D01*
X0120272Y0015766D01*
X0120133Y0015701D01*
X0119993Y0015639D01*
X0119851Y0015581D01*
X0119708Y0015526D01*
X0119563Y0015475D01*
X0119417Y0015428D01*
X0119270Y0015385D01*
X0119122Y0015346D01*
X0118973Y0015310D01*
X0118823Y0015279D01*
X0118672Y0015251D01*
X0118521Y0015227D01*
X0118368Y0015207D01*
X0118216Y0015191D01*
X0118063Y0015179D01*
X0117910Y0015171D01*
X0117757Y0015167D01*
X0117603Y0015167D01*
X0117450Y0015171D01*
X0117297Y0015179D01*
X0117144Y0015191D01*
X0116992Y0015207D01*
X0116839Y0015227D01*
X0116688Y0015251D01*
X0116537Y0015279D01*
X0116387Y0015310D01*
X0116238Y0015346D01*
X0116090Y0015385D01*
X0115943Y0015428D01*
X0115797Y0015475D01*
X0115652Y0015526D01*
X0115509Y0015581D01*
X0115367Y0015639D01*
X0115227Y0015701D01*
X0115088Y0015766D01*
X0114951Y0015835D01*
X0114816Y0015908D01*
X0114683Y0015984D01*
X0114552Y0016064D01*
X0114423Y0016146D01*
X0114296Y0016233D01*
X0114171Y0016322D01*
X0114049Y0016415D01*
X0113930Y0016511D01*
X0113812Y0016610D01*
X0113698Y0016711D01*
X0113586Y0016816D01*
X0113477Y0016924D01*
X0113371Y0017035D01*
X0113267Y0017148D01*
X0113167Y0017264D01*
X0113069Y0017382D01*
X0112975Y0017503D01*
X0112884Y0017626D01*
X0112796Y0017752D01*
X0112712Y0017880D01*
X0112630Y0018010D01*
X0112553Y0018142D01*
X0112478Y0018276D01*
X0112407Y0018412D01*
X0112340Y0018550D01*
X0112276Y0018690D01*
X0112216Y0018831D01*
X0112160Y0018973D01*
X0112107Y0019117D01*
X0112058Y0019263D01*
X0112013Y0019409D01*
X0111972Y0019557D01*
X0111935Y0019705D01*
X0111901Y0019855D01*
X0111871Y0020006D01*
X0111846Y0020157D01*
X0111824Y0020308D01*
X0111806Y0020461D01*
X0111792Y0020613D01*
X0111782Y0020766D01*
X0111776Y0020920D01*
X0111774Y0021073D01*
X0098152Y0021073D02*
X0098154Y0021226D01*
X0098160Y0021380D01*
X0098170Y0021533D01*
X0098184Y0021685D01*
X0098202Y0021838D01*
X0098224Y0021989D01*
X0098249Y0022140D01*
X0098279Y0022291D01*
X0098313Y0022441D01*
X0098350Y0022589D01*
X0098391Y0022737D01*
X0098436Y0022883D01*
X0098485Y0023029D01*
X0098538Y0023173D01*
X0098594Y0023315D01*
X0098654Y0023456D01*
X0098718Y0023596D01*
X0098785Y0023734D01*
X0098856Y0023870D01*
X0098931Y0024004D01*
X0099008Y0024136D01*
X0099090Y0024266D01*
X0099174Y0024394D01*
X0099262Y0024520D01*
X0099353Y0024643D01*
X0099447Y0024764D01*
X0099545Y0024882D01*
X0099645Y0024998D01*
X0099749Y0025111D01*
X0099855Y0025222D01*
X0099964Y0025330D01*
X0100076Y0025435D01*
X0100190Y0025536D01*
X0100308Y0025635D01*
X0100427Y0025731D01*
X0100549Y0025824D01*
X0100674Y0025913D01*
X0100801Y0026000D01*
X0100930Y0026082D01*
X0101061Y0026162D01*
X0101194Y0026238D01*
X0101329Y0026311D01*
X0101466Y0026380D01*
X0101605Y0026445D01*
X0101745Y0026507D01*
X0101887Y0026565D01*
X0102030Y0026620D01*
X0102175Y0026671D01*
X0102321Y0026718D01*
X0102468Y0026761D01*
X0102616Y0026800D01*
X0102765Y0026836D01*
X0102915Y0026867D01*
X0103066Y0026895D01*
X0103217Y0026919D01*
X0103370Y0026939D01*
X0103522Y0026955D01*
X0103675Y0026967D01*
X0103828Y0026975D01*
X0103981Y0026979D01*
X0104135Y0026979D01*
X0104288Y0026975D01*
X0104441Y0026967D01*
X0104594Y0026955D01*
X0104746Y0026939D01*
X0104899Y0026919D01*
X0105050Y0026895D01*
X0105201Y0026867D01*
X0105351Y0026836D01*
X0105500Y0026800D01*
X0105648Y0026761D01*
X0105795Y0026718D01*
X0105941Y0026671D01*
X0106086Y0026620D01*
X0106229Y0026565D01*
X0106371Y0026507D01*
X0106511Y0026445D01*
X0106650Y0026380D01*
X0106787Y0026311D01*
X0106922Y0026238D01*
X0107055Y0026162D01*
X0107186Y0026082D01*
X0107315Y0026000D01*
X0107442Y0025913D01*
X0107567Y0025824D01*
X0107689Y0025731D01*
X0107808Y0025635D01*
X0107926Y0025536D01*
X0108040Y0025435D01*
X0108152Y0025330D01*
X0108261Y0025222D01*
X0108367Y0025111D01*
X0108471Y0024998D01*
X0108571Y0024882D01*
X0108669Y0024764D01*
X0108763Y0024643D01*
X0108854Y0024520D01*
X0108942Y0024394D01*
X0109026Y0024266D01*
X0109108Y0024136D01*
X0109185Y0024004D01*
X0109260Y0023870D01*
X0109331Y0023734D01*
X0109398Y0023596D01*
X0109462Y0023456D01*
X0109522Y0023315D01*
X0109578Y0023173D01*
X0109631Y0023029D01*
X0109680Y0022883D01*
X0109725Y0022737D01*
X0109766Y0022589D01*
X0109803Y0022441D01*
X0109837Y0022291D01*
X0109867Y0022140D01*
X0109892Y0021989D01*
X0109914Y0021838D01*
X0109932Y0021685D01*
X0109946Y0021533D01*
X0109956Y0021380D01*
X0109962Y0021226D01*
X0109964Y0021073D01*
X0109962Y0020920D01*
X0109956Y0020766D01*
X0109946Y0020613D01*
X0109932Y0020461D01*
X0109914Y0020308D01*
X0109892Y0020157D01*
X0109867Y0020006D01*
X0109837Y0019855D01*
X0109803Y0019705D01*
X0109766Y0019557D01*
X0109725Y0019409D01*
X0109680Y0019263D01*
X0109631Y0019117D01*
X0109578Y0018973D01*
X0109522Y0018831D01*
X0109462Y0018690D01*
X0109398Y0018550D01*
X0109331Y0018412D01*
X0109260Y0018276D01*
X0109185Y0018142D01*
X0109108Y0018010D01*
X0109026Y0017880D01*
X0108942Y0017752D01*
X0108854Y0017626D01*
X0108763Y0017503D01*
X0108669Y0017382D01*
X0108571Y0017264D01*
X0108471Y0017148D01*
X0108367Y0017035D01*
X0108261Y0016924D01*
X0108152Y0016816D01*
X0108040Y0016711D01*
X0107926Y0016610D01*
X0107808Y0016511D01*
X0107689Y0016415D01*
X0107567Y0016322D01*
X0107442Y0016233D01*
X0107315Y0016146D01*
X0107186Y0016064D01*
X0107055Y0015984D01*
X0106922Y0015908D01*
X0106787Y0015835D01*
X0106650Y0015766D01*
X0106511Y0015701D01*
X0106371Y0015639D01*
X0106229Y0015581D01*
X0106086Y0015526D01*
X0105941Y0015475D01*
X0105795Y0015428D01*
X0105648Y0015385D01*
X0105500Y0015346D01*
X0105351Y0015310D01*
X0105201Y0015279D01*
X0105050Y0015251D01*
X0104899Y0015227D01*
X0104746Y0015207D01*
X0104594Y0015191D01*
X0104441Y0015179D01*
X0104288Y0015171D01*
X0104135Y0015167D01*
X0103981Y0015167D01*
X0103828Y0015171D01*
X0103675Y0015179D01*
X0103522Y0015191D01*
X0103370Y0015207D01*
X0103217Y0015227D01*
X0103066Y0015251D01*
X0102915Y0015279D01*
X0102765Y0015310D01*
X0102616Y0015346D01*
X0102468Y0015385D01*
X0102321Y0015428D01*
X0102175Y0015475D01*
X0102030Y0015526D01*
X0101887Y0015581D01*
X0101745Y0015639D01*
X0101605Y0015701D01*
X0101466Y0015766D01*
X0101329Y0015835D01*
X0101194Y0015908D01*
X0101061Y0015984D01*
X0100930Y0016064D01*
X0100801Y0016146D01*
X0100674Y0016233D01*
X0100549Y0016322D01*
X0100427Y0016415D01*
X0100308Y0016511D01*
X0100190Y0016610D01*
X0100076Y0016711D01*
X0099964Y0016816D01*
X0099855Y0016924D01*
X0099749Y0017035D01*
X0099645Y0017148D01*
X0099545Y0017264D01*
X0099447Y0017382D01*
X0099353Y0017503D01*
X0099262Y0017626D01*
X0099174Y0017752D01*
X0099090Y0017880D01*
X0099008Y0018010D01*
X0098931Y0018142D01*
X0098856Y0018276D01*
X0098785Y0018412D01*
X0098718Y0018550D01*
X0098654Y0018690D01*
X0098594Y0018831D01*
X0098538Y0018973D01*
X0098485Y0019117D01*
X0098436Y0019263D01*
X0098391Y0019409D01*
X0098350Y0019557D01*
X0098313Y0019705D01*
X0098279Y0019855D01*
X0098249Y0020006D01*
X0098224Y0020157D01*
X0098202Y0020308D01*
X0098184Y0020461D01*
X0098170Y0020613D01*
X0098160Y0020766D01*
X0098154Y0020920D01*
X0098152Y0021073D01*
X0084126Y0021087D02*
X0084128Y0021240D01*
X0084134Y0021394D01*
X0084144Y0021547D01*
X0084158Y0021699D01*
X0084176Y0021852D01*
X0084198Y0022003D01*
X0084223Y0022154D01*
X0084253Y0022305D01*
X0084287Y0022455D01*
X0084324Y0022603D01*
X0084365Y0022751D01*
X0084410Y0022897D01*
X0084459Y0023043D01*
X0084512Y0023187D01*
X0084568Y0023329D01*
X0084628Y0023470D01*
X0084692Y0023610D01*
X0084759Y0023748D01*
X0084830Y0023884D01*
X0084905Y0024018D01*
X0084982Y0024150D01*
X0085064Y0024280D01*
X0085148Y0024408D01*
X0085236Y0024534D01*
X0085327Y0024657D01*
X0085421Y0024778D01*
X0085519Y0024896D01*
X0085619Y0025012D01*
X0085723Y0025125D01*
X0085829Y0025236D01*
X0085938Y0025344D01*
X0086050Y0025449D01*
X0086164Y0025550D01*
X0086282Y0025649D01*
X0086401Y0025745D01*
X0086523Y0025838D01*
X0086648Y0025927D01*
X0086775Y0026014D01*
X0086904Y0026096D01*
X0087035Y0026176D01*
X0087168Y0026252D01*
X0087303Y0026325D01*
X0087440Y0026394D01*
X0087579Y0026459D01*
X0087719Y0026521D01*
X0087861Y0026579D01*
X0088004Y0026634D01*
X0088149Y0026685D01*
X0088295Y0026732D01*
X0088442Y0026775D01*
X0088590Y0026814D01*
X0088739Y0026850D01*
X0088889Y0026881D01*
X0089040Y0026909D01*
X0089191Y0026933D01*
X0089344Y0026953D01*
X0089496Y0026969D01*
X0089649Y0026981D01*
X0089802Y0026989D01*
X0089955Y0026993D01*
X0090109Y0026993D01*
X0090262Y0026989D01*
X0090415Y0026981D01*
X0090568Y0026969D01*
X0090720Y0026953D01*
X0090873Y0026933D01*
X0091024Y0026909D01*
X0091175Y0026881D01*
X0091325Y0026850D01*
X0091474Y0026814D01*
X0091622Y0026775D01*
X0091769Y0026732D01*
X0091915Y0026685D01*
X0092060Y0026634D01*
X0092203Y0026579D01*
X0092345Y0026521D01*
X0092485Y0026459D01*
X0092624Y0026394D01*
X0092761Y0026325D01*
X0092896Y0026252D01*
X0093029Y0026176D01*
X0093160Y0026096D01*
X0093289Y0026014D01*
X0093416Y0025927D01*
X0093541Y0025838D01*
X0093663Y0025745D01*
X0093782Y0025649D01*
X0093900Y0025550D01*
X0094014Y0025449D01*
X0094126Y0025344D01*
X0094235Y0025236D01*
X0094341Y0025125D01*
X0094445Y0025012D01*
X0094545Y0024896D01*
X0094643Y0024778D01*
X0094737Y0024657D01*
X0094828Y0024534D01*
X0094916Y0024408D01*
X0095000Y0024280D01*
X0095082Y0024150D01*
X0095159Y0024018D01*
X0095234Y0023884D01*
X0095305Y0023748D01*
X0095372Y0023610D01*
X0095436Y0023470D01*
X0095496Y0023329D01*
X0095552Y0023187D01*
X0095605Y0023043D01*
X0095654Y0022897D01*
X0095699Y0022751D01*
X0095740Y0022603D01*
X0095777Y0022455D01*
X0095811Y0022305D01*
X0095841Y0022154D01*
X0095866Y0022003D01*
X0095888Y0021852D01*
X0095906Y0021699D01*
X0095920Y0021547D01*
X0095930Y0021394D01*
X0095936Y0021240D01*
X0095938Y0021087D01*
X0095936Y0020934D01*
X0095930Y0020780D01*
X0095920Y0020627D01*
X0095906Y0020475D01*
X0095888Y0020322D01*
X0095866Y0020171D01*
X0095841Y0020020D01*
X0095811Y0019869D01*
X0095777Y0019719D01*
X0095740Y0019571D01*
X0095699Y0019423D01*
X0095654Y0019277D01*
X0095605Y0019131D01*
X0095552Y0018987D01*
X0095496Y0018845D01*
X0095436Y0018704D01*
X0095372Y0018564D01*
X0095305Y0018426D01*
X0095234Y0018290D01*
X0095159Y0018156D01*
X0095082Y0018024D01*
X0095000Y0017894D01*
X0094916Y0017766D01*
X0094828Y0017640D01*
X0094737Y0017517D01*
X0094643Y0017396D01*
X0094545Y0017278D01*
X0094445Y0017162D01*
X0094341Y0017049D01*
X0094235Y0016938D01*
X0094126Y0016830D01*
X0094014Y0016725D01*
X0093900Y0016624D01*
X0093782Y0016525D01*
X0093663Y0016429D01*
X0093541Y0016336D01*
X0093416Y0016247D01*
X0093289Y0016160D01*
X0093160Y0016078D01*
X0093029Y0015998D01*
X0092896Y0015922D01*
X0092761Y0015849D01*
X0092624Y0015780D01*
X0092485Y0015715D01*
X0092345Y0015653D01*
X0092203Y0015595D01*
X0092060Y0015540D01*
X0091915Y0015489D01*
X0091769Y0015442D01*
X0091622Y0015399D01*
X0091474Y0015360D01*
X0091325Y0015324D01*
X0091175Y0015293D01*
X0091024Y0015265D01*
X0090873Y0015241D01*
X0090720Y0015221D01*
X0090568Y0015205D01*
X0090415Y0015193D01*
X0090262Y0015185D01*
X0090109Y0015181D01*
X0089955Y0015181D01*
X0089802Y0015185D01*
X0089649Y0015193D01*
X0089496Y0015205D01*
X0089344Y0015221D01*
X0089191Y0015241D01*
X0089040Y0015265D01*
X0088889Y0015293D01*
X0088739Y0015324D01*
X0088590Y0015360D01*
X0088442Y0015399D01*
X0088295Y0015442D01*
X0088149Y0015489D01*
X0088004Y0015540D01*
X0087861Y0015595D01*
X0087719Y0015653D01*
X0087579Y0015715D01*
X0087440Y0015780D01*
X0087303Y0015849D01*
X0087168Y0015922D01*
X0087035Y0015998D01*
X0086904Y0016078D01*
X0086775Y0016160D01*
X0086648Y0016247D01*
X0086523Y0016336D01*
X0086401Y0016429D01*
X0086282Y0016525D01*
X0086164Y0016624D01*
X0086050Y0016725D01*
X0085938Y0016830D01*
X0085829Y0016938D01*
X0085723Y0017049D01*
X0085619Y0017162D01*
X0085519Y0017278D01*
X0085421Y0017396D01*
X0085327Y0017517D01*
X0085236Y0017640D01*
X0085148Y0017766D01*
X0085064Y0017894D01*
X0084982Y0018024D01*
X0084905Y0018156D01*
X0084830Y0018290D01*
X0084759Y0018426D01*
X0084692Y0018564D01*
X0084628Y0018704D01*
X0084568Y0018845D01*
X0084512Y0018987D01*
X0084459Y0019131D01*
X0084410Y0019277D01*
X0084365Y0019423D01*
X0084324Y0019571D01*
X0084287Y0019719D01*
X0084253Y0019869D01*
X0084223Y0020020D01*
X0084198Y0020171D01*
X0084176Y0020322D01*
X0084158Y0020475D01*
X0084144Y0020627D01*
X0084134Y0020780D01*
X0084128Y0020934D01*
X0084126Y0021087D01*
X0085734Y0040035D02*
X0077860Y0040035D01*
X0077860Y0044759D01*
X0077302Y0044296D02*
X0074300Y0044296D01*
X0075301Y0043295D01*
X0075293Y0043291D02*
X0074292Y0044292D01*
X0077295Y0044292D01*
X0077302Y0043295D02*
X0077302Y0045297D01*
X0077295Y0045293D02*
X0077295Y0043291D01*
X0076802Y0042074D02*
X0077302Y0041574D01*
X0077302Y0040573D01*
X0076802Y0040073D01*
X0074800Y0040073D01*
X0074300Y0040573D01*
X0074300Y0041574D01*
X0074800Y0042074D01*
X0074793Y0042070D02*
X0074292Y0041569D01*
X0074292Y0040569D01*
X0074793Y0040068D01*
X0076794Y0040068D01*
X0077295Y0040569D01*
X0077295Y0041569D01*
X0076794Y0042070D01*
X0080222Y0047121D02*
X0083372Y0047121D01*
X0083372Y0048696D02*
X0080222Y0048696D01*
X0077860Y0051058D02*
X0077860Y0055783D01*
X0085734Y0055783D01*
X0085734Y0051058D01*
X0085734Y0044759D02*
X0085734Y0040035D01*
X0096600Y0042052D02*
X0103135Y0042052D01*
X0110198Y0041294D02*
X0110198Y0039793D01*
X0113200Y0039793D01*
X0113208Y0039797D02*
X0110205Y0039797D01*
X0110205Y0041298D01*
X0110706Y0041799D01*
X0111707Y0041799D01*
X0112207Y0041298D01*
X0112207Y0039797D01*
X0112200Y0039793D02*
X0112200Y0041294D01*
X0111699Y0041794D01*
X0110698Y0041794D01*
X0110198Y0041294D01*
X0110698Y0043015D02*
X0110198Y0043516D01*
X0110198Y0044517D01*
X0110698Y0045017D01*
X0111199Y0045017D01*
X0111699Y0044517D01*
X0112200Y0045017D01*
X0112700Y0045017D01*
X0113200Y0044517D01*
X0113200Y0043516D01*
X0112700Y0043015D01*
X0112708Y0043020D02*
X0113208Y0043520D01*
X0113208Y0044521D01*
X0112708Y0045022D01*
X0112207Y0045022D01*
X0111707Y0044521D01*
X0111707Y0044021D01*
X0111699Y0044016D02*
X0111699Y0044517D01*
X0111707Y0044521D02*
X0111206Y0045022D01*
X0110706Y0045022D01*
X0110205Y0044521D01*
X0110205Y0043520D01*
X0110706Y0043020D01*
X0112200Y0040793D02*
X0113200Y0041794D01*
X0113208Y0041799D02*
X0112207Y0040798D01*
X0113844Y0039759D02*
X0113844Y0044877D01*
X0116600Y0047239D02*
X0115813Y0048027D01*
X0116600Y0047239D02*
X0117387Y0048027D01*
X0118175Y0047239D01*
X0118962Y0048027D01*
X0119750Y0047239D01*
X0121718Y0044877D02*
X0121718Y0039759D01*
X0113844Y0039759D01*
X0113844Y0051176D02*
X0113844Y0055507D01*
X0121718Y0055507D01*
X0121718Y0051176D01*
X0123395Y0053837D02*
X0131269Y0053837D01*
X0131269Y0058168D01*
X0129300Y0061317D02*
X0128513Y0062105D01*
X0127725Y0061317D01*
X0126938Y0062105D01*
X0126151Y0061317D01*
X0125363Y0062105D01*
X0123395Y0064467D02*
X0123395Y0069585D01*
X0131269Y0069585D01*
X0131269Y0064467D01*
X0123395Y0058168D02*
X0123395Y0053837D01*
X0122782Y0057224D02*
X0119779Y0057224D01*
X0119779Y0058725D01*
X0120280Y0059225D01*
X0121280Y0059225D01*
X0121781Y0058725D01*
X0121781Y0057224D01*
X0121777Y0057225D02*
X0121777Y0058726D01*
X0121277Y0059227D01*
X0120276Y0059227D01*
X0119776Y0058726D01*
X0119776Y0057225D01*
X0122778Y0057225D01*
X0121781Y0058224D02*
X0122782Y0059225D01*
X0122778Y0059227D02*
X0121777Y0058226D01*
X0121280Y0060446D02*
X0121280Y0062448D01*
X0121277Y0062450D02*
X0121277Y0060448D01*
X0119776Y0061949D01*
X0122778Y0061949D01*
X0122782Y0061948D02*
X0119779Y0061948D01*
X0121280Y0060446D01*
X0107781Y0057633D02*
X0107781Y0065507D01*
X0103057Y0065507D01*
X0100694Y0063145D02*
X0100694Y0059995D01*
X0099120Y0059995D02*
X0099120Y0063145D01*
X0096757Y0065507D02*
X0092033Y0065507D01*
X0092033Y0057633D01*
X0096757Y0057633D01*
X0097506Y0053784D02*
X0103135Y0053784D01*
X0103057Y0057633D02*
X0107781Y0057633D01*
X0097506Y0053784D02*
X0096600Y0052878D01*
X0097291Y0066151D02*
X0095289Y0066151D01*
X0097291Y0068152D01*
X0097291Y0068653D01*
X0096791Y0069153D01*
X0095790Y0069153D01*
X0095289Y0068653D01*
X0095297Y0068658D02*
X0095797Y0069158D01*
X0096798Y0069158D01*
X0097299Y0068658D01*
X0097299Y0068157D01*
X0095297Y0066155D01*
X0097299Y0066155D01*
X0094076Y0066656D02*
X0093575Y0066155D01*
X0092575Y0066155D01*
X0092074Y0066656D01*
X0092074Y0068658D01*
X0092575Y0069158D01*
X0093575Y0069158D01*
X0094076Y0068658D01*
X0094068Y0068653D02*
X0093568Y0069153D01*
X0092567Y0069153D01*
X0092067Y0068653D01*
X0092067Y0066651D01*
X0092567Y0066151D01*
X0093568Y0066151D01*
X0094068Y0066651D01*
X0094200Y0083674D02*
X0092198Y0083674D01*
X0092206Y0083679D02*
X0094207Y0083679D01*
X0093206Y0083679D02*
X0093206Y0086682D01*
X0092206Y0085681D01*
X0092198Y0085676D02*
X0093199Y0086677D01*
X0093199Y0083674D01*
X0090985Y0083679D02*
X0088983Y0083679D01*
X0088983Y0086682D01*
X0088975Y0086677D02*
X0088975Y0083674D01*
X0090977Y0083674D01*
X0112228Y0083823D02*
X0112729Y0083322D01*
X0113729Y0083322D01*
X0114230Y0083823D01*
X0114232Y0083827D02*
X0113731Y0083326D01*
X0112730Y0083326D01*
X0112230Y0083827D01*
X0112230Y0085828D01*
X0112730Y0086329D01*
X0113731Y0086329D01*
X0114232Y0085828D01*
X0114230Y0085825D02*
X0113729Y0086325D01*
X0112729Y0086325D01*
X0112228Y0085825D01*
X0112228Y0083823D01*
X0115451Y0083823D02*
X0115951Y0083322D01*
X0116952Y0083322D01*
X0117453Y0083823D01*
X0117453Y0084323D01*
X0116952Y0084824D01*
X0116452Y0084824D01*
X0116454Y0084827D02*
X0116954Y0084827D01*
X0117454Y0084327D01*
X0117454Y0083827D01*
X0116954Y0083326D01*
X0115953Y0083326D01*
X0115453Y0083827D01*
X0116952Y0084824D02*
X0117453Y0085324D01*
X0117453Y0085825D01*
X0116952Y0086325D01*
X0115951Y0086325D01*
X0115451Y0085825D01*
X0115453Y0085828D02*
X0115953Y0086329D01*
X0116954Y0086329D01*
X0117454Y0085828D01*
X0117454Y0085328D01*
X0116954Y0084827D01*
X0135871Y0104325D02*
X0134870Y0105326D01*
X0134870Y0107327D01*
X0134871Y0107332D02*
X0134871Y0105330D01*
X0135872Y0104329D01*
X0136873Y0105330D01*
X0136873Y0107332D01*
X0136872Y0107327D02*
X0136872Y0105326D01*
X0135871Y0104325D01*
X0138093Y0104325D02*
X0139094Y0104325D01*
X0139095Y0104329D02*
X0138094Y0104329D01*
X0138594Y0104325D02*
X0138594Y0107327D01*
X0138594Y0107332D02*
X0138594Y0104329D01*
X0140242Y0104325D02*
X0140242Y0107327D01*
X0142243Y0104325D01*
X0142243Y0107327D01*
X0142244Y0107332D02*
X0142244Y0104329D01*
X0140242Y0107332D01*
X0140242Y0104329D01*
X0139094Y0107327D02*
X0138093Y0107327D01*
X0138094Y0107332D02*
X0139095Y0107332D01*
X0139021Y0114475D02*
X0139021Y0117477D01*
X0139021Y0117482D02*
X0139021Y0114479D01*
X0137020Y0117482D01*
X0137020Y0114479D01*
X0137019Y0114475D02*
X0137019Y0117477D01*
X0139021Y0114475D01*
X0140242Y0114475D02*
X0141743Y0114475D01*
X0142243Y0114975D01*
X0142243Y0116977D01*
X0141743Y0117477D01*
X0140242Y0117477D01*
X0140242Y0114475D01*
X0140242Y0114479D02*
X0141744Y0114479D01*
X0142244Y0114980D01*
X0142244Y0116981D01*
X0141744Y0117482D01*
X0140242Y0117482D01*
X0140242Y0114479D01*
X0135798Y0114980D02*
X0135798Y0115981D01*
X0134798Y0115981D01*
X0134797Y0115976D02*
X0135798Y0115976D01*
X0135798Y0114975D01*
X0135298Y0114475D01*
X0134297Y0114475D01*
X0133796Y0114975D01*
X0133796Y0116977D01*
X0134297Y0117477D01*
X0135298Y0117477D01*
X0135798Y0116977D01*
X0135798Y0116981D02*
X0135298Y0117482D01*
X0134297Y0117482D01*
X0133797Y0116981D01*
X0133797Y0114980D01*
X0134297Y0114479D01*
X0135298Y0114479D01*
X0135798Y0114980D01*
X0135798Y0124625D02*
X0133796Y0124625D01*
X0133796Y0127627D01*
X0133797Y0127632D02*
X0133797Y0124629D01*
X0135798Y0124629D01*
X0137019Y0124625D02*
X0139021Y0124625D01*
X0139021Y0124629D02*
X0137020Y0124629D01*
X0137020Y0127632D01*
X0139021Y0127632D01*
X0139021Y0127627D02*
X0137019Y0127627D01*
X0137019Y0124625D01*
X0137019Y0126126D02*
X0138020Y0126126D01*
X0138020Y0126131D02*
X0137020Y0126131D01*
X0140242Y0127627D02*
X0140242Y0124625D01*
X0141743Y0124625D01*
X0142243Y0125125D01*
X0142243Y0127127D01*
X0141743Y0127627D01*
X0140242Y0127627D01*
X0140242Y0127632D02*
X0141744Y0127632D01*
X0142244Y0127131D01*
X0142244Y0125130D01*
X0141744Y0124629D01*
X0140242Y0124629D01*
X0140242Y0127632D01*
X0140242Y0134775D02*
X0142243Y0134775D01*
X0142244Y0134779D02*
X0140242Y0134779D01*
X0140242Y0135280D01*
X0142244Y0137281D01*
X0142244Y0137782D01*
X0140242Y0137782D01*
X0140242Y0137777D02*
X0142243Y0137777D01*
X0142243Y0137277D01*
X0140242Y0135275D01*
X0140242Y0134775D01*
X0139021Y0135275D02*
X0139021Y0137777D01*
X0139021Y0137782D02*
X0139021Y0135280D01*
X0138521Y0134779D01*
X0137520Y0134779D01*
X0137020Y0135280D01*
X0137020Y0137782D01*
X0137019Y0137777D02*
X0137019Y0135275D01*
X0137519Y0134775D01*
X0138520Y0134775D01*
X0139021Y0135275D01*
X0135798Y0135280D02*
X0135298Y0134779D01*
X0133797Y0134779D01*
X0133797Y0137782D01*
X0135298Y0137782D01*
X0135798Y0137281D01*
X0135798Y0136781D01*
X0135298Y0136281D01*
X0133797Y0136281D01*
X0133796Y0136276D02*
X0135298Y0136276D01*
X0135798Y0135776D01*
X0135798Y0135275D01*
X0135298Y0134775D01*
X0133796Y0134775D01*
X0133796Y0137777D01*
X0135298Y0137777D01*
X0135798Y0137277D01*
X0135798Y0136777D01*
X0135298Y0136276D01*
X0135298Y0136281D02*
X0135798Y0135780D01*
X0135798Y0135280D01*
X0137019Y0144925D02*
X0138020Y0145926D01*
X0139021Y0144925D01*
X0139021Y0147927D01*
X0139021Y0147932D02*
X0139021Y0144929D01*
X0138020Y0145930D01*
X0137020Y0144929D01*
X0137020Y0147932D01*
X0137019Y0147927D02*
X0137019Y0144925D01*
X0140242Y0145425D02*
X0140742Y0144925D01*
X0141743Y0144925D01*
X0142243Y0145425D01*
X0142243Y0146426D01*
X0141243Y0146426D01*
X0141243Y0146431D02*
X0142244Y0146431D01*
X0142244Y0145430D01*
X0141744Y0144929D01*
X0140743Y0144929D01*
X0140242Y0145430D01*
X0140242Y0147431D01*
X0140743Y0147932D01*
X0141744Y0147932D01*
X0142244Y0147431D01*
X0142243Y0147427D02*
X0141743Y0147927D01*
X0140742Y0147927D01*
X0140242Y0147427D01*
X0140242Y0145425D01*
X0140242Y0155075D02*
X0142243Y0155075D01*
X0142244Y0155079D02*
X0140242Y0155079D01*
X0141243Y0155075D02*
X0141243Y0158077D01*
X0140242Y0157077D01*
X0140242Y0157081D02*
X0141243Y0158082D01*
X0141243Y0155079D01*
X0139021Y0155575D02*
X0139021Y0157577D01*
X0138520Y0158077D01*
X0137019Y0158077D01*
X0137019Y0155075D01*
X0138520Y0155075D01*
X0139021Y0155575D01*
X0139021Y0155580D02*
X0139021Y0157581D01*
X0138521Y0158082D01*
X0137020Y0158082D01*
X0137020Y0155079D01*
X0138521Y0155079D01*
X0139021Y0155580D01*
X0138520Y0165225D02*
X0139021Y0165725D01*
X0139021Y0167727D01*
X0138520Y0168227D01*
X0137019Y0168227D01*
X0137019Y0165225D01*
X0138520Y0165225D01*
X0138521Y0165229D02*
X0139021Y0165730D01*
X0139021Y0167731D01*
X0138521Y0168232D01*
X0137020Y0168232D01*
X0137020Y0165229D01*
X0138521Y0165229D01*
X0140242Y0165725D02*
X0142243Y0167727D01*
X0142243Y0165725D01*
X0141743Y0165225D01*
X0140742Y0165225D01*
X0140242Y0165725D01*
X0140242Y0167727D01*
X0140742Y0168227D01*
X0141743Y0168227D01*
X0142243Y0167727D01*
X0142244Y0167731D02*
X0140242Y0165730D01*
X0140743Y0165229D01*
X0141744Y0165229D01*
X0142244Y0165730D01*
X0142244Y0167731D01*
X0141744Y0168232D01*
X0140743Y0168232D01*
X0140242Y0167731D01*
X0140242Y0165730D01*
X0125829Y0188198D02*
X0125829Y0216939D01*
X0062837Y0216939D01*
X0062837Y0188198D01*
X0055008Y0198204D02*
X0055008Y0210015D01*
X0039260Y0210015D01*
X0039260Y0198204D01*
X0055008Y0198204D01*
X0053821Y0192776D02*
X0049491Y0192776D01*
X0046341Y0190808D02*
X0045554Y0190020D01*
X0046341Y0189233D01*
X0045554Y0188446D01*
X0046341Y0187658D01*
X0045554Y0186871D01*
X0043191Y0184902D02*
X0038073Y0184902D01*
X0038073Y0192776D01*
X0043191Y0192776D01*
X0042810Y0193389D02*
X0043310Y0193889D01*
X0043310Y0195891D01*
X0042810Y0196392D01*
X0041809Y0196392D01*
X0041308Y0195891D01*
X0041308Y0195391D01*
X0041809Y0194890D01*
X0043310Y0194890D01*
X0043302Y0194886D02*
X0041801Y0194886D01*
X0041301Y0195386D01*
X0041301Y0195886D01*
X0041801Y0196387D01*
X0042802Y0196387D01*
X0043302Y0195886D01*
X0043302Y0193885D01*
X0042802Y0193384D01*
X0041801Y0193384D01*
X0041301Y0193885D01*
X0041308Y0193889D02*
X0041809Y0193389D01*
X0042810Y0193389D01*
X0040087Y0193389D02*
X0039086Y0194390D01*
X0039079Y0194385D02*
X0040080Y0193384D01*
X0039579Y0194385D02*
X0038078Y0194385D01*
X0038086Y0194390D02*
X0039587Y0194390D01*
X0040087Y0194890D01*
X0040087Y0195891D01*
X0039587Y0196392D01*
X0038086Y0196392D01*
X0038086Y0193389D01*
X0038078Y0193384D02*
X0038078Y0196387D01*
X0039579Y0196387D01*
X0040080Y0195886D01*
X0040080Y0194886D01*
X0039579Y0194385D01*
X0038901Y0184560D02*
X0037900Y0184060D01*
X0036899Y0183059D01*
X0038401Y0183059D01*
X0038901Y0182559D01*
X0038901Y0182058D01*
X0038401Y0181558D01*
X0037400Y0181558D01*
X0036899Y0182058D01*
X0036899Y0183059D01*
X0036892Y0183054D02*
X0038393Y0183054D01*
X0038893Y0182554D01*
X0038893Y0182054D01*
X0038393Y0181553D01*
X0037392Y0181553D01*
X0036892Y0182054D01*
X0036892Y0183054D01*
X0037892Y0184055D01*
X0038893Y0184556D01*
X0038793Y0180988D02*
X0033675Y0180988D01*
X0033675Y0173114D01*
X0038793Y0173114D01*
X0037873Y0172268D02*
X0037873Y0169266D01*
X0037865Y0169261D02*
X0037865Y0172264D01*
X0036864Y0171263D01*
X0036872Y0171267D02*
X0037873Y0172268D01*
X0040087Y0170762D02*
X0042089Y0170762D01*
X0042096Y0170767D02*
X0040094Y0170767D01*
X0041596Y0172268D01*
X0041596Y0169266D01*
X0041588Y0169261D02*
X0041588Y0172264D01*
X0040087Y0170762D01*
X0038873Y0169266D02*
X0036872Y0169266D01*
X0036864Y0169261D02*
X0038866Y0169261D01*
X0037978Y0168617D02*
X0033647Y0168617D01*
X0033647Y0160743D01*
X0037978Y0160743D01*
X0037869Y0159746D02*
X0037869Y0156744D01*
X0037870Y0156744D02*
X0037870Y0159746D01*
X0036869Y0158745D01*
X0036868Y0158746D02*
X0037869Y0159746D01*
X0040091Y0159246D02*
X0040592Y0159746D01*
X0041593Y0159746D01*
X0042094Y0159246D01*
X0042094Y0158745D01*
X0041593Y0158245D01*
X0042094Y0157744D01*
X0042094Y0157244D01*
X0041593Y0156744D01*
X0040592Y0156744D01*
X0040091Y0157244D01*
X0040092Y0157244D02*
X0040593Y0156744D01*
X0041593Y0156744D01*
X0042093Y0157244D01*
X0042093Y0157745D01*
X0041593Y0158245D01*
X0041093Y0158245D01*
X0041092Y0158245D02*
X0041593Y0158245D01*
X0042093Y0158746D01*
X0042093Y0159246D01*
X0041593Y0159746D01*
X0040593Y0159746D01*
X0040092Y0159246D01*
X0038871Y0156744D02*
X0036869Y0156744D01*
X0036868Y0156744D02*
X0038870Y0156744D01*
X0038765Y0156098D02*
X0033647Y0156098D01*
X0033647Y0148224D01*
X0038765Y0148224D01*
X0038649Y0147741D02*
X0037648Y0147741D01*
X0037147Y0147240D01*
X0037140Y0147236D02*
X0037640Y0147736D01*
X0038641Y0147736D01*
X0039141Y0147236D01*
X0039141Y0146735D01*
X0037140Y0144733D01*
X0039141Y0144733D01*
X0039149Y0144738D02*
X0037147Y0144738D01*
X0039149Y0146740D01*
X0039149Y0147240D01*
X0038649Y0147741D01*
X0035926Y0147240D02*
X0035926Y0146239D01*
X0035426Y0145739D01*
X0033925Y0145739D01*
X0033917Y0145734D02*
X0035418Y0145734D01*
X0035919Y0146235D01*
X0035919Y0147236D01*
X0035418Y0147736D01*
X0033917Y0147736D01*
X0033917Y0144733D01*
X0033925Y0144738D02*
X0033925Y0147741D01*
X0035426Y0147741D01*
X0035926Y0147240D01*
X0034925Y0145739D02*
X0035926Y0144738D01*
X0035919Y0144733D02*
X0034918Y0145734D01*
X0033844Y0144090D02*
X0033844Y0136216D01*
X0038175Y0136216D01*
X0037948Y0135608D02*
X0037948Y0132606D01*
X0037941Y0132601D02*
X0037941Y0135604D01*
X0036940Y0134603D01*
X0036947Y0134608D02*
X0037948Y0135608D01*
X0036947Y0132606D02*
X0038949Y0132606D01*
X0038941Y0132601D02*
X0036940Y0132601D01*
X0035726Y0132606D02*
X0034725Y0133607D01*
X0034718Y0133602D02*
X0035719Y0132601D01*
X0035218Y0133602D02*
X0033717Y0133602D01*
X0033725Y0133607D02*
X0035226Y0133607D01*
X0035726Y0134107D01*
X0035726Y0135108D01*
X0035226Y0135608D01*
X0033725Y0135608D01*
X0033725Y0132606D01*
X0033717Y0132601D02*
X0033717Y0135604D01*
X0035218Y0135604D01*
X0035719Y0135103D01*
X0035719Y0134102D01*
X0035218Y0133602D01*
X0033738Y0131921D02*
X0038856Y0131921D01*
X0041218Y0129165D02*
X0042006Y0129953D01*
X0041218Y0129165D02*
X0042006Y0128378D01*
X0041218Y0127591D01*
X0042006Y0126803D01*
X0041218Y0126016D01*
X0041120Y0123229D02*
X0041120Y0120226D01*
X0041104Y0120223D02*
X0041104Y0123226D01*
X0040103Y0122225D01*
X0040119Y0122228D02*
X0041120Y0123229D01*
X0038856Y0124047D02*
X0033738Y0124047D01*
X0033738Y0131921D01*
X0027557Y0132242D02*
X0027557Y0140116D01*
X0023226Y0140116D01*
X0020076Y0138147D02*
X0019289Y0137360D01*
X0020076Y0136572D01*
X0019289Y0135785D01*
X0020076Y0134998D01*
X0019289Y0134210D01*
X0016927Y0132242D02*
X0011809Y0132242D01*
X0011809Y0140116D01*
X0016927Y0140116D01*
X0016543Y0140755D02*
X0015542Y0140755D01*
X0015041Y0141255D01*
X0015049Y0141260D02*
X0015549Y0140759D01*
X0016550Y0140759D01*
X0017051Y0141260D01*
X0017051Y0142261D01*
X0016550Y0142761D01*
X0016050Y0142761D01*
X0015049Y0142261D01*
X0015049Y0143762D01*
X0017051Y0143762D01*
X0017043Y0143757D02*
X0015041Y0143757D01*
X0015041Y0142256D01*
X0016042Y0142756D01*
X0016543Y0142756D01*
X0017043Y0142256D01*
X0017043Y0141255D01*
X0016543Y0140755D01*
X0013828Y0140759D02*
X0012827Y0141760D01*
X0012819Y0141756D02*
X0013820Y0140755D01*
X0013320Y0141756D02*
X0013820Y0142256D01*
X0013820Y0143257D01*
X0013320Y0143757D01*
X0011819Y0143757D01*
X0011819Y0140755D01*
X0011826Y0140759D02*
X0011826Y0143762D01*
X0013327Y0143762D01*
X0013828Y0143261D01*
X0013828Y0142261D01*
X0013327Y0141760D01*
X0011826Y0141760D01*
X0011819Y0141756D02*
X0013320Y0141756D01*
X0011813Y0145493D02*
X0016538Y0145493D01*
X0018900Y0147855D02*
X0018900Y0151005D01*
X0020475Y0151005D02*
X0020475Y0147855D01*
X0022837Y0145493D02*
X0027561Y0145493D01*
X0027561Y0153367D01*
X0022837Y0153367D01*
X0023231Y0157934D02*
X0027561Y0157934D01*
X0027561Y0165808D01*
X0023231Y0165808D01*
X0020081Y0163839D02*
X0019294Y0163052D01*
X0020081Y0162265D01*
X0019294Y0161477D01*
X0020081Y0160690D01*
X0019294Y0159902D01*
X0016931Y0157934D02*
X0011813Y0157934D01*
X0011813Y0165808D01*
X0016931Y0165808D01*
X0014998Y0166456D02*
X0014998Y0166957D01*
X0017000Y0168958D01*
X0017000Y0169459D01*
X0014998Y0169459D01*
X0014991Y0169454D02*
X0016993Y0169454D01*
X0016993Y0168954D01*
X0014991Y0166952D01*
X0014991Y0166452D01*
X0013777Y0166456D02*
X0012777Y0167457D01*
X0012769Y0167452D02*
X0013770Y0166452D01*
X0013269Y0167452D02*
X0013770Y0167953D01*
X0013770Y0168954D01*
X0013269Y0169454D01*
X0011768Y0169454D01*
X0011768Y0166452D01*
X0011776Y0166456D02*
X0011776Y0169459D01*
X0013277Y0169459D01*
X0013777Y0168958D01*
X0013777Y0167958D01*
X0013277Y0167457D01*
X0011776Y0167457D01*
X0011768Y0167452D02*
X0013269Y0167452D01*
X0013861Y0174509D02*
X0013861Y0182383D01*
X0018979Y0182383D01*
X0018657Y0183066D02*
X0019158Y0183566D01*
X0019158Y0184067D01*
X0018657Y0184567D01*
X0017657Y0184567D01*
X0017156Y0185067D01*
X0017156Y0185568D01*
X0017657Y0186068D01*
X0018657Y0186068D01*
X0019158Y0185568D01*
X0019158Y0185067D01*
X0018657Y0184567D01*
X0018665Y0184572D02*
X0017664Y0184572D01*
X0017164Y0185072D01*
X0017164Y0185573D01*
X0017664Y0186073D01*
X0018665Y0186073D01*
X0019166Y0185573D01*
X0019166Y0185072D01*
X0018665Y0184572D01*
X0019166Y0184071D01*
X0019166Y0183571D01*
X0018665Y0183070D01*
X0017664Y0183070D01*
X0017164Y0183571D01*
X0017164Y0184071D01*
X0017664Y0184572D01*
X0017657Y0184567D02*
X0017156Y0184067D01*
X0017156Y0183566D01*
X0017657Y0183066D01*
X0018657Y0183066D01*
X0015943Y0183070D02*
X0014942Y0184071D01*
X0014934Y0184067D02*
X0015935Y0183066D01*
X0015435Y0184067D02*
X0013933Y0184067D01*
X0013941Y0184071D02*
X0015442Y0184071D01*
X0015943Y0184572D01*
X0015943Y0185573D01*
X0015442Y0186073D01*
X0013941Y0186073D01*
X0013941Y0183070D01*
X0013933Y0183066D02*
X0013933Y0186068D01*
X0015435Y0186068D01*
X0015935Y0185568D01*
X0015935Y0184567D01*
X0015435Y0184067D01*
X0014063Y0187259D02*
X0014063Y0199070D01*
X0029811Y0199070D01*
X0029811Y0187259D01*
X0014063Y0187259D01*
X0021341Y0179627D02*
X0022128Y0180414D01*
X0021341Y0179627D02*
X0022128Y0178839D01*
X0021341Y0178052D01*
X0022128Y0177265D01*
X0021341Y0176477D01*
X0018979Y0174509D02*
X0013861Y0174509D01*
X0025278Y0174509D02*
X0029609Y0174509D01*
X0029609Y0182383D01*
X0025278Y0182383D01*
X0033669Y0182554D02*
X0035170Y0182554D01*
X0035671Y0183054D01*
X0035671Y0184055D01*
X0035170Y0184556D01*
X0033669Y0184556D01*
X0033669Y0181553D01*
X0033677Y0181558D02*
X0033677Y0184560D01*
X0035178Y0184560D01*
X0035678Y0184060D01*
X0035678Y0183059D01*
X0035178Y0182559D01*
X0033677Y0182559D01*
X0034670Y0182554D02*
X0035671Y0181553D01*
X0035678Y0181558D02*
X0034677Y0182559D01*
X0041155Y0178232D02*
X0041943Y0179020D01*
X0041155Y0178232D02*
X0041943Y0177445D01*
X0041155Y0176657D01*
X0041943Y0175870D01*
X0041155Y0175083D01*
X0045092Y0173114D02*
X0049423Y0173114D01*
X0049423Y0180988D01*
X0045092Y0180988D01*
X0049491Y0184902D02*
X0053821Y0184902D01*
X0053821Y0192776D01*
X0053188Y0210697D02*
X0053188Y0213699D01*
X0053187Y0213700D02*
X0053187Y0210697D01*
X0052187Y0213699D02*
X0054189Y0213699D01*
X0054188Y0213700D02*
X0052187Y0213700D01*
X0050966Y0213699D02*
X0048964Y0213699D01*
X0048964Y0210697D01*
X0050966Y0210697D01*
X0048964Y0210697D01*
X0048964Y0213700D01*
X0050966Y0213700D01*
X0049965Y0212198D02*
X0048964Y0212198D01*
X0049965Y0212198D01*
X0047743Y0211698D02*
X0047743Y0211197D01*
X0047243Y0210697D01*
X0046242Y0210697D01*
X0045741Y0211197D01*
X0046242Y0210697D01*
X0047242Y0210697D01*
X0047743Y0211197D01*
X0047743Y0211698D01*
X0047242Y0212198D01*
X0046242Y0212198D01*
X0047243Y0212198D01*
X0047743Y0211698D01*
X0047743Y0213199D02*
X0047243Y0213699D01*
X0046242Y0213699D01*
X0045741Y0213199D01*
X0045741Y0212699D01*
X0046242Y0212198D01*
X0045741Y0212698D01*
X0045741Y0213199D01*
X0046242Y0213700D01*
X0047242Y0213700D01*
X0047743Y0213199D01*
X0044520Y0213699D02*
X0042519Y0213699D01*
X0042519Y0210697D01*
X0044520Y0210697D01*
X0042518Y0210697D01*
X0042518Y0213700D01*
X0044520Y0213700D01*
X0043519Y0212198D02*
X0042518Y0212198D01*
X0042519Y0212198D02*
X0043520Y0212198D01*
X0041298Y0212198D02*
X0040797Y0211698D01*
X0039296Y0211698D01*
X0040797Y0211698D01*
X0041297Y0212198D01*
X0041297Y0213199D01*
X0040797Y0213700D01*
X0039296Y0213700D01*
X0039296Y0210697D01*
X0039296Y0213699D01*
X0040797Y0213699D01*
X0041298Y0213199D01*
X0041298Y0212198D01*
X0040297Y0211698D02*
X0041298Y0210697D01*
X0041297Y0210697D02*
X0040296Y0211698D01*
X0028987Y0202771D02*
X0028987Y0199769D01*
X0028987Y0199768D02*
X0028987Y0202770D01*
X0028987Y0201270D02*
X0026985Y0201270D01*
X0026985Y0201269D02*
X0028987Y0201269D01*
X0026985Y0199769D02*
X0026985Y0202771D01*
X0026985Y0202770D02*
X0026985Y0199768D01*
X0025764Y0200268D02*
X0025264Y0199768D01*
X0024263Y0199768D01*
X0023762Y0200268D01*
X0023762Y0200269D02*
X0024263Y0199769D01*
X0025264Y0199769D01*
X0025764Y0200269D01*
X0025764Y0200769D01*
X0025764Y0200268D01*
X0025764Y0200769D02*
X0025264Y0201269D01*
X0024263Y0201269D01*
X0023762Y0201769D01*
X0023762Y0202270D01*
X0024263Y0202770D01*
X0025264Y0202770D01*
X0025764Y0202270D01*
X0025764Y0202271D02*
X0025264Y0202771D01*
X0024263Y0202771D01*
X0023762Y0202271D01*
X0023762Y0201770D01*
X0024263Y0201270D01*
X0025264Y0201270D01*
X0025764Y0200769D01*
X0022541Y0201269D02*
X0020540Y0201269D01*
X0020540Y0201270D02*
X0022541Y0201270D01*
X0022541Y0201769D02*
X0022541Y0199768D01*
X0022541Y0199769D02*
X0022541Y0201770D01*
X0021540Y0202771D01*
X0020540Y0201770D01*
X0020540Y0199769D01*
X0020540Y0199768D02*
X0020540Y0201769D01*
X0021541Y0202770D01*
X0022541Y0201769D01*
X0019319Y0199769D02*
X0017317Y0199769D01*
X0017317Y0202771D01*
X0017317Y0202770D02*
X0017317Y0199768D01*
X0019319Y0199768D01*
X0016096Y0202770D02*
X0014094Y0202770D01*
X0014094Y0199768D01*
X0014094Y0199769D02*
X0014094Y0202771D01*
X0016096Y0202771D01*
X0015095Y0201270D02*
X0014094Y0201270D01*
X0014094Y0201269D02*
X0015095Y0201269D01*
X0033641Y0172264D02*
X0035143Y0172264D01*
X0035643Y0171763D01*
X0035643Y0170762D01*
X0035143Y0170262D01*
X0033641Y0170262D01*
X0033649Y0170266D02*
X0035150Y0170266D01*
X0035651Y0170767D01*
X0035651Y0171768D01*
X0035150Y0172268D01*
X0033649Y0172268D01*
X0033649Y0169266D01*
X0033641Y0169261D02*
X0033641Y0172264D01*
X0034650Y0170266D02*
X0035651Y0169266D01*
X0035643Y0169261D02*
X0034642Y0170262D01*
X0041128Y0165861D02*
X0041915Y0165074D01*
X0041128Y0164287D01*
X0041915Y0163499D01*
X0041128Y0162712D01*
X0044277Y0160743D02*
X0049395Y0160743D01*
X0049395Y0168617D01*
X0044277Y0168617D01*
X0041915Y0166649D02*
X0041128Y0165861D01*
X0035148Y0159746D02*
X0035648Y0159246D01*
X0035648Y0158245D01*
X0035148Y0157744D01*
X0033647Y0157744D01*
X0033646Y0157745D02*
X0035147Y0157745D01*
X0035647Y0158245D01*
X0035647Y0159246D01*
X0035147Y0159746D01*
X0033646Y0159746D01*
X0033646Y0156744D01*
X0033647Y0156744D02*
X0033647Y0159746D01*
X0035148Y0159746D01*
X0034647Y0157745D02*
X0035647Y0156744D01*
X0035648Y0156744D02*
X0034648Y0157744D01*
X0041128Y0153342D02*
X0041915Y0154129D01*
X0041128Y0153342D02*
X0041915Y0152554D01*
X0041128Y0151767D01*
X0041915Y0150980D01*
X0041128Y0150192D01*
X0045065Y0148224D02*
X0049395Y0148224D01*
X0049395Y0156098D01*
X0045065Y0156098D01*
X0044474Y0144090D02*
X0049592Y0144090D01*
X0049592Y0136216D01*
X0044474Y0136216D01*
X0042112Y0138972D02*
X0041324Y0138184D01*
X0042112Y0138972D02*
X0041324Y0139759D01*
X0042112Y0140546D01*
X0041324Y0141334D01*
X0042112Y0142121D01*
X0038175Y0144090D02*
X0033844Y0144090D01*
X0027557Y0132242D02*
X0023226Y0132242D01*
X0019877Y0128838D02*
X0020377Y0128338D01*
X0018376Y0126336D01*
X0018876Y0125836D01*
X0019877Y0125836D01*
X0020377Y0126336D01*
X0020377Y0128338D01*
X0020370Y0128333D02*
X0018368Y0126332D01*
X0018868Y0125831D01*
X0019869Y0125831D01*
X0020370Y0126332D01*
X0020370Y0128333D01*
X0019869Y0128834D01*
X0018868Y0128834D01*
X0018368Y0128333D01*
X0018368Y0126332D01*
X0018376Y0126336D02*
X0018376Y0128338D01*
X0018876Y0128838D01*
X0019877Y0128838D01*
X0017155Y0125836D02*
X0015153Y0125836D01*
X0015145Y0125831D02*
X0017147Y0125831D01*
X0016154Y0125836D02*
X0016154Y0128838D01*
X0015153Y0127837D01*
X0015145Y0127833D02*
X0016146Y0128834D01*
X0016146Y0125831D01*
X0016104Y0125117D02*
X0011773Y0125117D01*
X0011773Y0117243D01*
X0016104Y0117243D01*
X0019254Y0119212D02*
X0020041Y0119999D01*
X0019254Y0120787D01*
X0020041Y0121574D01*
X0019254Y0122361D01*
X0020041Y0123149D01*
X0022403Y0125117D02*
X0027521Y0125117D01*
X0027521Y0117243D01*
X0022403Y0117243D01*
X0016375Y0110854D02*
X0016375Y0107851D01*
X0016367Y0107847D02*
X0016367Y0110849D01*
X0015366Y0109849D01*
X0015374Y0109853D02*
X0016375Y0110854D01*
X0014153Y0110354D02*
X0014153Y0108352D01*
X0013653Y0107851D01*
X0012652Y0107851D01*
X0012151Y0108352D01*
X0012151Y0110354D01*
X0012652Y0110854D01*
X0013653Y0110854D01*
X0014153Y0110354D01*
X0014145Y0110349D02*
X0014145Y0108347D01*
X0013645Y0107847D01*
X0012644Y0107847D01*
X0012144Y0108347D01*
X0012144Y0110349D01*
X0012644Y0110849D01*
X0013645Y0110849D01*
X0014145Y0110349D01*
X0013152Y0108852D02*
X0014153Y0107851D01*
X0014145Y0107847D02*
X0013145Y0108848D01*
X0012150Y0107144D02*
X0025535Y0107144D01*
X0025535Y0091396D01*
X0012150Y0091396D01*
X0012150Y0107144D01*
X0015366Y0107847D02*
X0017368Y0107847D01*
X0017376Y0107851D02*
X0015374Y0107851D01*
X0013924Y0125831D02*
X0012923Y0126832D01*
X0012931Y0126837D02*
X0013932Y0125836D01*
X0013424Y0126832D02*
X0013924Y0127332D01*
X0013924Y0128333D01*
X0013424Y0128834D01*
X0011922Y0128834D01*
X0011922Y0125831D01*
X0011930Y0125836D02*
X0011930Y0128838D01*
X0013431Y0128838D01*
X0013932Y0128338D01*
X0013932Y0127337D01*
X0013431Y0126837D01*
X0011930Y0126837D01*
X0011922Y0126832D02*
X0013424Y0126832D01*
X0011813Y0145493D02*
X0011813Y0153367D01*
X0016538Y0153367D01*
X0016532Y0153971D02*
X0016532Y0156974D01*
X0015030Y0155473D01*
X0017032Y0155473D01*
X0017040Y0155477D02*
X0015038Y0155477D01*
X0016539Y0156978D01*
X0016539Y0153976D01*
X0013817Y0154476D02*
X0013316Y0153976D01*
X0012315Y0153976D01*
X0011815Y0154476D01*
X0011815Y0156478D01*
X0012315Y0156978D01*
X0013316Y0156978D01*
X0013817Y0156478D01*
X0013809Y0156473D02*
X0013309Y0156974D01*
X0012308Y0156974D01*
X0011807Y0156473D01*
X0011807Y0154472D01*
X0012308Y0153971D01*
X0013309Y0153971D01*
X0013809Y0154472D01*
X0033657Y0123226D02*
X0035159Y0123226D01*
X0035659Y0122726D01*
X0035659Y0121725D01*
X0035159Y0121224D01*
X0033657Y0121224D01*
X0033673Y0121227D02*
X0035175Y0121227D01*
X0035675Y0121728D01*
X0035675Y0122728D01*
X0035175Y0123229D01*
X0033673Y0123229D01*
X0033673Y0120226D01*
X0033657Y0120223D02*
X0033657Y0123226D01*
X0034658Y0121224D02*
X0035659Y0120223D01*
X0035675Y0120226D02*
X0034674Y0121227D01*
X0033744Y0119531D02*
X0033744Y0111657D01*
X0038075Y0111657D01*
X0037949Y0109289D02*
X0036948Y0108288D01*
X0036941Y0108282D02*
X0037942Y0109283D01*
X0037942Y0106280D01*
X0037949Y0106287D02*
X0037949Y0109289D01*
X0040164Y0108782D02*
X0040664Y0109283D01*
X0041665Y0109283D01*
X0042166Y0108782D01*
X0042166Y0108282D01*
X0040164Y0106280D01*
X0042166Y0106280D01*
X0042173Y0106287D02*
X0040171Y0106287D01*
X0042173Y0108288D01*
X0042173Y0108789D01*
X0041673Y0109289D01*
X0040672Y0109289D01*
X0040171Y0108789D01*
X0038950Y0106287D02*
X0036948Y0106287D01*
X0036941Y0106280D02*
X0038943Y0106280D01*
X0038051Y0105680D02*
X0033720Y0105680D01*
X0033720Y0097806D01*
X0038051Y0097806D01*
X0041200Y0099775D02*
X0041988Y0100562D01*
X0041200Y0101350D01*
X0041988Y0102137D01*
X0041200Y0102924D01*
X0041988Y0103712D01*
X0044350Y0105680D02*
X0049468Y0105680D01*
X0049468Y0097806D01*
X0044350Y0097806D01*
X0042237Y0094837D02*
X0050111Y0094837D01*
X0050111Y0088538D01*
X0048536Y0087751D02*
X0046174Y0085388D01*
X0043812Y0087751D01*
X0048536Y0087751D01*
X0048536Y0085388D02*
X0046174Y0085388D01*
X0043812Y0085388D01*
X0042237Y0084995D02*
X0042237Y0079089D01*
X0050111Y0079089D01*
X0050111Y0084601D01*
X0045576Y0075586D02*
X0019986Y0075586D01*
X0019986Y0036216D01*
X0045576Y0036216D01*
X0045576Y0075586D01*
X0041654Y0079107D02*
X0041654Y0081109D01*
X0041648Y0081105D02*
X0041648Y0079103D01*
X0038645Y0079103D01*
X0038651Y0079107D02*
X0041654Y0079107D01*
X0041648Y0082326D02*
X0041648Y0084327D01*
X0041654Y0084332D02*
X0041654Y0082330D01*
X0038651Y0082330D01*
X0038651Y0084332D01*
X0038645Y0084327D02*
X0038645Y0082326D01*
X0041648Y0082326D01*
X0040152Y0082330D02*
X0040152Y0083331D01*
X0040146Y0083327D02*
X0040146Y0082326D01*
X0038645Y0085549D02*
X0038645Y0087050D01*
X0039146Y0087550D01*
X0041147Y0087550D01*
X0041648Y0087050D01*
X0041648Y0085549D01*
X0038645Y0085549D01*
X0038651Y0085553D02*
X0038651Y0087054D01*
X0039152Y0087555D01*
X0041153Y0087555D01*
X0041654Y0087054D01*
X0041654Y0085553D01*
X0038651Y0085553D01*
X0039646Y0088771D02*
X0038645Y0089772D01*
X0041648Y0089772D01*
X0041654Y0089776D02*
X0038651Y0089776D01*
X0039652Y0088776D01*
X0041648Y0088771D02*
X0041648Y0090773D01*
X0041654Y0090777D02*
X0041654Y0088776D01*
X0042237Y0088538D02*
X0042237Y0094837D01*
X0035720Y0106280D02*
X0034719Y0107281D01*
X0034727Y0107287D02*
X0035727Y0106287D01*
X0035220Y0107281D02*
X0033719Y0107281D01*
X0033726Y0107287D02*
X0035227Y0107287D01*
X0035727Y0107788D01*
X0035727Y0108789D01*
X0035227Y0109289D01*
X0033726Y0109289D01*
X0033726Y0106287D01*
X0033719Y0106280D02*
X0033719Y0109283D01*
X0035220Y0109283D01*
X0035720Y0108782D01*
X0035720Y0107781D01*
X0035220Y0107281D01*
X0041225Y0113625D02*
X0042012Y0114413D01*
X0041225Y0115200D01*
X0042012Y0115988D01*
X0041225Y0116775D01*
X0042012Y0117562D01*
X0042105Y0120223D02*
X0040103Y0120223D01*
X0040119Y0120226D02*
X0042121Y0120226D01*
X0044374Y0119531D02*
X0049492Y0119531D01*
X0049492Y0111657D01*
X0044374Y0111657D01*
X0038075Y0119531D02*
X0033744Y0119531D01*
X0036880Y0120223D02*
X0038882Y0120223D01*
X0038898Y0120226D02*
X0036896Y0120226D01*
X0037881Y0120223D02*
X0037881Y0123226D01*
X0036880Y0122225D01*
X0036896Y0122228D02*
X0037897Y0123229D01*
X0037897Y0120226D01*
X0045155Y0124047D02*
X0049486Y0124047D01*
X0049486Y0131921D01*
X0045155Y0131921D01*
X0058592Y0121091D02*
X0058592Y0119089D01*
X0059092Y0118589D01*
X0060093Y0118589D01*
X0060593Y0119089D01*
X0060601Y0119094D02*
X0060101Y0118593D01*
X0059100Y0118593D01*
X0058599Y0119094D01*
X0058599Y0121095D01*
X0059100Y0121596D01*
X0060101Y0121596D01*
X0060601Y0121095D01*
X0060593Y0121091D02*
X0060093Y0121591D01*
X0059092Y0121591D01*
X0058592Y0121091D01*
X0058417Y0117820D02*
X0063142Y0117820D01*
X0063316Y0118589D02*
X0063816Y0119089D01*
X0063816Y0119589D01*
X0063316Y0120090D01*
X0061814Y0120090D01*
X0061814Y0119089D01*
X0062315Y0118589D01*
X0063316Y0118589D01*
X0063323Y0118593D02*
X0063824Y0119094D01*
X0063824Y0119594D01*
X0063323Y0120095D01*
X0061822Y0120095D01*
X0061822Y0119094D01*
X0062323Y0118593D01*
X0063323Y0118593D01*
X0061822Y0120095D02*
X0062823Y0121095D01*
X0063824Y0121596D01*
X0063816Y0121591D02*
X0062815Y0121091D01*
X0061814Y0120090D01*
X0062837Y0122450D02*
X0125829Y0122450D01*
X0112834Y0117523D02*
X0112834Y0117023D01*
X0112333Y0116522D01*
X0112834Y0116022D01*
X0112834Y0115522D01*
X0112333Y0115021D01*
X0111332Y0115021D01*
X0110832Y0115522D01*
X0109611Y0115522D02*
X0109611Y0118024D01*
X0110832Y0117523D02*
X0111332Y0118024D01*
X0112333Y0118024D01*
X0112834Y0117523D01*
X0112333Y0116522D02*
X0111833Y0116522D01*
X0109611Y0115522D02*
X0109110Y0115021D01*
X0108110Y0115021D01*
X0107609Y0115522D01*
X0107609Y0118024D01*
X0137020Y0097182D02*
X0137020Y0094179D01*
X0137019Y0094175D02*
X0137019Y0097177D01*
X0139021Y0097177D01*
X0139021Y0097182D02*
X0137020Y0097182D01*
X0137020Y0095681D02*
X0138020Y0095681D01*
X0138020Y0095676D02*
X0137019Y0095676D01*
X0140242Y0096677D02*
X0140742Y0097177D01*
X0141743Y0097177D01*
X0142243Y0096677D01*
X0142243Y0096177D01*
X0140242Y0094175D01*
X0142243Y0094175D01*
X0142244Y0094179D02*
X0140242Y0094179D01*
X0142244Y0096181D01*
X0142244Y0096681D01*
X0141744Y0097182D01*
X0140743Y0097182D01*
X0140242Y0096681D01*
X0141243Y0087032D02*
X0140242Y0086031D01*
X0140242Y0086027D02*
X0141243Y0087027D01*
X0141243Y0084025D01*
X0141243Y0084029D02*
X0141243Y0087032D01*
X0139021Y0087032D02*
X0137020Y0087032D01*
X0137020Y0084029D01*
X0137019Y0084025D02*
X0137019Y0087027D01*
X0139021Y0087027D01*
X0138020Y0085531D02*
X0137020Y0085531D01*
X0137019Y0085526D02*
X0138020Y0085526D01*
X0140242Y0084029D02*
X0142244Y0084029D01*
X0142243Y0084025D02*
X0140242Y0084025D01*
X0142275Y0008779D02*
X0143276Y0008779D01*
X0143269Y0008774D02*
X0142268Y0008774D01*
X0069439Y0029380D02*
X0069439Y0034892D01*
X0041880Y0034892D01*
X0041880Y0029380D01*
X0041971Y0029380D02*
X0041971Y0034892D01*
X0014412Y0034892D01*
X0014412Y0029380D01*
X0015474Y0021113D02*
X0015476Y0021266D01*
X0015482Y0021420D01*
X0015492Y0021573D01*
X0015506Y0021725D01*
X0015524Y0021878D01*
X0015546Y0022029D01*
X0015571Y0022180D01*
X0015601Y0022331D01*
X0015635Y0022481D01*
X0015672Y0022629D01*
X0015713Y0022777D01*
X0015758Y0022923D01*
X0015807Y0023069D01*
X0015860Y0023213D01*
X0015916Y0023355D01*
X0015976Y0023496D01*
X0016040Y0023636D01*
X0016107Y0023774D01*
X0016178Y0023910D01*
X0016253Y0024044D01*
X0016330Y0024176D01*
X0016412Y0024306D01*
X0016496Y0024434D01*
X0016584Y0024560D01*
X0016675Y0024683D01*
X0016769Y0024804D01*
X0016867Y0024922D01*
X0016967Y0025038D01*
X0017071Y0025151D01*
X0017177Y0025262D01*
X0017286Y0025370D01*
X0017398Y0025475D01*
X0017512Y0025576D01*
X0017630Y0025675D01*
X0017749Y0025771D01*
X0017871Y0025864D01*
X0017996Y0025953D01*
X0018123Y0026040D01*
X0018252Y0026122D01*
X0018383Y0026202D01*
X0018516Y0026278D01*
X0018651Y0026351D01*
X0018788Y0026420D01*
X0018927Y0026485D01*
X0019067Y0026547D01*
X0019209Y0026605D01*
X0019352Y0026660D01*
X0019497Y0026711D01*
X0019643Y0026758D01*
X0019790Y0026801D01*
X0019938Y0026840D01*
X0020087Y0026876D01*
X0020237Y0026907D01*
X0020388Y0026935D01*
X0020539Y0026959D01*
X0020692Y0026979D01*
X0020844Y0026995D01*
X0020997Y0027007D01*
X0021150Y0027015D01*
X0021303Y0027019D01*
X0021457Y0027019D01*
X0021610Y0027015D01*
X0021763Y0027007D01*
X0021916Y0026995D01*
X0022068Y0026979D01*
X0022221Y0026959D01*
X0022372Y0026935D01*
X0022523Y0026907D01*
X0022673Y0026876D01*
X0022822Y0026840D01*
X0022970Y0026801D01*
X0023117Y0026758D01*
X0023263Y0026711D01*
X0023408Y0026660D01*
X0023551Y0026605D01*
X0023693Y0026547D01*
X0023833Y0026485D01*
X0023972Y0026420D01*
X0024109Y0026351D01*
X0024244Y0026278D01*
X0024377Y0026202D01*
X0024508Y0026122D01*
X0024637Y0026040D01*
X0024764Y0025953D01*
X0024889Y0025864D01*
X0025011Y0025771D01*
X0025130Y0025675D01*
X0025248Y0025576D01*
X0025362Y0025475D01*
X0025474Y0025370D01*
X0025583Y0025262D01*
X0025689Y0025151D01*
X0025793Y0025038D01*
X0025893Y0024922D01*
X0025991Y0024804D01*
X0026085Y0024683D01*
X0026176Y0024560D01*
X0026264Y0024434D01*
X0026348Y0024306D01*
X0026430Y0024176D01*
X0026507Y0024044D01*
X0026582Y0023910D01*
X0026653Y0023774D01*
X0026720Y0023636D01*
X0026784Y0023496D01*
X0026844Y0023355D01*
X0026900Y0023213D01*
X0026953Y0023069D01*
X0027002Y0022923D01*
X0027047Y0022777D01*
X0027088Y0022629D01*
X0027125Y0022481D01*
X0027159Y0022331D01*
X0027189Y0022180D01*
X0027214Y0022029D01*
X0027236Y0021878D01*
X0027254Y0021725D01*
X0027268Y0021573D01*
X0027278Y0021420D01*
X0027284Y0021266D01*
X0027286Y0021113D01*
X0027284Y0020960D01*
X0027278Y0020806D01*
X0027268Y0020653D01*
X0027254Y0020501D01*
X0027236Y0020348D01*
X0027214Y0020197D01*
X0027189Y0020046D01*
X0027159Y0019895D01*
X0027125Y0019745D01*
X0027088Y0019597D01*
X0027047Y0019449D01*
X0027002Y0019303D01*
X0026953Y0019157D01*
X0026900Y0019013D01*
X0026844Y0018871D01*
X0026784Y0018730D01*
X0026720Y0018590D01*
X0026653Y0018452D01*
X0026582Y0018316D01*
X0026507Y0018182D01*
X0026430Y0018050D01*
X0026348Y0017920D01*
X0026264Y0017792D01*
X0026176Y0017666D01*
X0026085Y0017543D01*
X0025991Y0017422D01*
X0025893Y0017304D01*
X0025793Y0017188D01*
X0025689Y0017075D01*
X0025583Y0016964D01*
X0025474Y0016856D01*
X0025362Y0016751D01*
X0025248Y0016650D01*
X0025130Y0016551D01*
X0025011Y0016455D01*
X0024889Y0016362D01*
X0024764Y0016273D01*
X0024637Y0016186D01*
X0024508Y0016104D01*
X0024377Y0016024D01*
X0024244Y0015948D01*
X0024109Y0015875D01*
X0023972Y0015806D01*
X0023833Y0015741D01*
X0023693Y0015679D01*
X0023551Y0015621D01*
X0023408Y0015566D01*
X0023263Y0015515D01*
X0023117Y0015468D01*
X0022970Y0015425D01*
X0022822Y0015386D01*
X0022673Y0015350D01*
X0022523Y0015319D01*
X0022372Y0015291D01*
X0022221Y0015267D01*
X0022068Y0015247D01*
X0021916Y0015231D01*
X0021763Y0015219D01*
X0021610Y0015211D01*
X0021457Y0015207D01*
X0021303Y0015207D01*
X0021150Y0015211D01*
X0020997Y0015219D01*
X0020844Y0015231D01*
X0020692Y0015247D01*
X0020539Y0015267D01*
X0020388Y0015291D01*
X0020237Y0015319D01*
X0020087Y0015350D01*
X0019938Y0015386D01*
X0019790Y0015425D01*
X0019643Y0015468D01*
X0019497Y0015515D01*
X0019352Y0015566D01*
X0019209Y0015621D01*
X0019067Y0015679D01*
X0018927Y0015741D01*
X0018788Y0015806D01*
X0018651Y0015875D01*
X0018516Y0015948D01*
X0018383Y0016024D01*
X0018252Y0016104D01*
X0018123Y0016186D01*
X0017996Y0016273D01*
X0017871Y0016362D01*
X0017749Y0016455D01*
X0017630Y0016551D01*
X0017512Y0016650D01*
X0017398Y0016751D01*
X0017286Y0016856D01*
X0017177Y0016964D01*
X0017071Y0017075D01*
X0016967Y0017188D01*
X0016867Y0017304D01*
X0016769Y0017422D01*
X0016675Y0017543D01*
X0016584Y0017666D01*
X0016496Y0017792D01*
X0016412Y0017920D01*
X0016330Y0018050D01*
X0016253Y0018182D01*
X0016178Y0018316D01*
X0016107Y0018452D01*
X0016040Y0018590D01*
X0015976Y0018730D01*
X0015916Y0018871D01*
X0015860Y0019013D01*
X0015807Y0019157D01*
X0015758Y0019303D01*
X0015713Y0019449D01*
X0015672Y0019597D01*
X0015635Y0019745D01*
X0015601Y0019895D01*
X0015571Y0020046D01*
X0015546Y0020197D01*
X0015524Y0020348D01*
X0015506Y0020501D01*
X0015492Y0020653D01*
X0015482Y0020806D01*
X0015476Y0020960D01*
X0015474Y0021113D01*
X0022184Y0011968D02*
X0023685Y0011968D01*
X0024186Y0011467D01*
X0024186Y0010466D01*
X0023685Y0009966D01*
X0022184Y0009966D01*
X0022192Y0009970D02*
X0023693Y0009970D01*
X0024194Y0010471D01*
X0024194Y0011472D01*
X0023693Y0011972D01*
X0022192Y0011972D01*
X0022192Y0008970D01*
X0022184Y0008965D02*
X0022184Y0011968D01*
X0023193Y0009970D02*
X0024194Y0008970D01*
X0024186Y0008965D02*
X0023185Y0009966D01*
X0025407Y0009966D02*
X0026908Y0009966D01*
X0027409Y0010466D01*
X0027409Y0011467D01*
X0026908Y0011968D01*
X0025407Y0011968D01*
X0025407Y0008965D01*
X0025415Y0008970D02*
X0025415Y0011972D01*
X0026916Y0011972D01*
X0027416Y0011472D01*
X0027416Y0010471D01*
X0026916Y0009970D01*
X0025415Y0009970D01*
X0028630Y0009465D02*
X0029130Y0008965D01*
X0030131Y0008965D01*
X0030631Y0009465D01*
X0030631Y0011467D01*
X0030131Y0011968D01*
X0029130Y0011968D01*
X0028630Y0011467D01*
X0028630Y0009465D01*
X0028637Y0009470D02*
X0029138Y0008970D01*
X0030139Y0008970D01*
X0030639Y0009470D01*
X0030639Y0011472D01*
X0030139Y0011972D01*
X0029138Y0011972D01*
X0028637Y0011472D01*
X0028637Y0009470D01*
X0031852Y0008965D02*
X0032853Y0009966D01*
X0033854Y0008965D01*
X0033854Y0011968D01*
X0033862Y0011972D02*
X0033862Y0008970D01*
X0032861Y0009970D01*
X0031860Y0008970D01*
X0031860Y0011972D01*
X0031852Y0011968D02*
X0031852Y0008965D01*
X0036209Y0010591D02*
X0038211Y0010591D01*
X0037210Y0011591D02*
X0037210Y0009590D01*
X0029096Y0021113D02*
X0029098Y0021266D01*
X0029104Y0021420D01*
X0029114Y0021573D01*
X0029128Y0021725D01*
X0029146Y0021878D01*
X0029168Y0022029D01*
X0029193Y0022180D01*
X0029223Y0022331D01*
X0029257Y0022481D01*
X0029294Y0022629D01*
X0029335Y0022777D01*
X0029380Y0022923D01*
X0029429Y0023069D01*
X0029482Y0023213D01*
X0029538Y0023355D01*
X0029598Y0023496D01*
X0029662Y0023636D01*
X0029729Y0023774D01*
X0029800Y0023910D01*
X0029875Y0024044D01*
X0029952Y0024176D01*
X0030034Y0024306D01*
X0030118Y0024434D01*
X0030206Y0024560D01*
X0030297Y0024683D01*
X0030391Y0024804D01*
X0030489Y0024922D01*
X0030589Y0025038D01*
X0030693Y0025151D01*
X0030799Y0025262D01*
X0030908Y0025370D01*
X0031020Y0025475D01*
X0031134Y0025576D01*
X0031252Y0025675D01*
X0031371Y0025771D01*
X0031493Y0025864D01*
X0031618Y0025953D01*
X0031745Y0026040D01*
X0031874Y0026122D01*
X0032005Y0026202D01*
X0032138Y0026278D01*
X0032273Y0026351D01*
X0032410Y0026420D01*
X0032549Y0026485D01*
X0032689Y0026547D01*
X0032831Y0026605D01*
X0032974Y0026660D01*
X0033119Y0026711D01*
X0033265Y0026758D01*
X0033412Y0026801D01*
X0033560Y0026840D01*
X0033709Y0026876D01*
X0033859Y0026907D01*
X0034010Y0026935D01*
X0034161Y0026959D01*
X0034314Y0026979D01*
X0034466Y0026995D01*
X0034619Y0027007D01*
X0034772Y0027015D01*
X0034925Y0027019D01*
X0035079Y0027019D01*
X0035232Y0027015D01*
X0035385Y0027007D01*
X0035538Y0026995D01*
X0035690Y0026979D01*
X0035843Y0026959D01*
X0035994Y0026935D01*
X0036145Y0026907D01*
X0036295Y0026876D01*
X0036444Y0026840D01*
X0036592Y0026801D01*
X0036739Y0026758D01*
X0036885Y0026711D01*
X0037030Y0026660D01*
X0037173Y0026605D01*
X0037315Y0026547D01*
X0037455Y0026485D01*
X0037594Y0026420D01*
X0037731Y0026351D01*
X0037866Y0026278D01*
X0037999Y0026202D01*
X0038130Y0026122D01*
X0038259Y0026040D01*
X0038386Y0025953D01*
X0038511Y0025864D01*
X0038633Y0025771D01*
X0038752Y0025675D01*
X0038870Y0025576D01*
X0038984Y0025475D01*
X0039096Y0025370D01*
X0039205Y0025262D01*
X0039311Y0025151D01*
X0039415Y0025038D01*
X0039515Y0024922D01*
X0039613Y0024804D01*
X0039707Y0024683D01*
X0039798Y0024560D01*
X0039886Y0024434D01*
X0039970Y0024306D01*
X0040052Y0024176D01*
X0040129Y0024044D01*
X0040204Y0023910D01*
X0040275Y0023774D01*
X0040342Y0023636D01*
X0040406Y0023496D01*
X0040466Y0023355D01*
X0040522Y0023213D01*
X0040575Y0023069D01*
X0040624Y0022923D01*
X0040669Y0022777D01*
X0040710Y0022629D01*
X0040747Y0022481D01*
X0040781Y0022331D01*
X0040811Y0022180D01*
X0040836Y0022029D01*
X0040858Y0021878D01*
X0040876Y0021725D01*
X0040890Y0021573D01*
X0040900Y0021420D01*
X0040906Y0021266D01*
X0040908Y0021113D01*
X0040906Y0020960D01*
X0040900Y0020806D01*
X0040890Y0020653D01*
X0040876Y0020501D01*
X0040858Y0020348D01*
X0040836Y0020197D01*
X0040811Y0020046D01*
X0040781Y0019895D01*
X0040747Y0019745D01*
X0040710Y0019597D01*
X0040669Y0019449D01*
X0040624Y0019303D01*
X0040575Y0019157D01*
X0040522Y0019013D01*
X0040466Y0018871D01*
X0040406Y0018730D01*
X0040342Y0018590D01*
X0040275Y0018452D01*
X0040204Y0018316D01*
X0040129Y0018182D01*
X0040052Y0018050D01*
X0039970Y0017920D01*
X0039886Y0017792D01*
X0039798Y0017666D01*
X0039707Y0017543D01*
X0039613Y0017422D01*
X0039515Y0017304D01*
X0039415Y0017188D01*
X0039311Y0017075D01*
X0039205Y0016964D01*
X0039096Y0016856D01*
X0038984Y0016751D01*
X0038870Y0016650D01*
X0038752Y0016551D01*
X0038633Y0016455D01*
X0038511Y0016362D01*
X0038386Y0016273D01*
X0038259Y0016186D01*
X0038130Y0016104D01*
X0037999Y0016024D01*
X0037866Y0015948D01*
X0037731Y0015875D01*
X0037594Y0015806D01*
X0037455Y0015741D01*
X0037315Y0015679D01*
X0037173Y0015621D01*
X0037030Y0015566D01*
X0036885Y0015515D01*
X0036739Y0015468D01*
X0036592Y0015425D01*
X0036444Y0015386D01*
X0036295Y0015350D01*
X0036145Y0015319D01*
X0035994Y0015291D01*
X0035843Y0015267D01*
X0035690Y0015247D01*
X0035538Y0015231D01*
X0035385Y0015219D01*
X0035232Y0015211D01*
X0035079Y0015207D01*
X0034925Y0015207D01*
X0034772Y0015211D01*
X0034619Y0015219D01*
X0034466Y0015231D01*
X0034314Y0015247D01*
X0034161Y0015267D01*
X0034010Y0015291D01*
X0033859Y0015319D01*
X0033709Y0015350D01*
X0033560Y0015386D01*
X0033412Y0015425D01*
X0033265Y0015468D01*
X0033119Y0015515D01*
X0032974Y0015566D01*
X0032831Y0015621D01*
X0032689Y0015679D01*
X0032549Y0015741D01*
X0032410Y0015806D01*
X0032273Y0015875D01*
X0032138Y0015948D01*
X0032005Y0016024D01*
X0031874Y0016104D01*
X0031745Y0016186D01*
X0031618Y0016273D01*
X0031493Y0016362D01*
X0031371Y0016455D01*
X0031252Y0016551D01*
X0031134Y0016650D01*
X0031020Y0016751D01*
X0030908Y0016856D01*
X0030799Y0016964D01*
X0030693Y0017075D01*
X0030589Y0017188D01*
X0030489Y0017304D01*
X0030391Y0017422D01*
X0030297Y0017543D01*
X0030206Y0017666D01*
X0030118Y0017792D01*
X0030034Y0017920D01*
X0029952Y0018050D01*
X0029875Y0018182D01*
X0029800Y0018316D01*
X0029729Y0018452D01*
X0029662Y0018590D01*
X0029598Y0018730D01*
X0029538Y0018871D01*
X0029482Y0019013D01*
X0029429Y0019157D01*
X0029380Y0019303D01*
X0029335Y0019449D01*
X0029294Y0019597D01*
X0029257Y0019745D01*
X0029223Y0019895D01*
X0029193Y0020046D01*
X0029168Y0020197D01*
X0029146Y0020348D01*
X0029128Y0020501D01*
X0029114Y0020653D01*
X0029104Y0020806D01*
X0029098Y0020960D01*
X0029096Y0021113D01*
X0042943Y0021113D02*
X0042945Y0021266D01*
X0042951Y0021420D01*
X0042961Y0021573D01*
X0042975Y0021725D01*
X0042993Y0021878D01*
X0043015Y0022029D01*
X0043040Y0022180D01*
X0043070Y0022331D01*
X0043104Y0022481D01*
X0043141Y0022629D01*
X0043182Y0022777D01*
X0043227Y0022923D01*
X0043276Y0023069D01*
X0043329Y0023213D01*
X0043385Y0023355D01*
X0043445Y0023496D01*
X0043509Y0023636D01*
X0043576Y0023774D01*
X0043647Y0023910D01*
X0043722Y0024044D01*
X0043799Y0024176D01*
X0043881Y0024306D01*
X0043965Y0024434D01*
X0044053Y0024560D01*
X0044144Y0024683D01*
X0044238Y0024804D01*
X0044336Y0024922D01*
X0044436Y0025038D01*
X0044540Y0025151D01*
X0044646Y0025262D01*
X0044755Y0025370D01*
X0044867Y0025475D01*
X0044981Y0025576D01*
X0045099Y0025675D01*
X0045218Y0025771D01*
X0045340Y0025864D01*
X0045465Y0025953D01*
X0045592Y0026040D01*
X0045721Y0026122D01*
X0045852Y0026202D01*
X0045985Y0026278D01*
X0046120Y0026351D01*
X0046257Y0026420D01*
X0046396Y0026485D01*
X0046536Y0026547D01*
X0046678Y0026605D01*
X0046821Y0026660D01*
X0046966Y0026711D01*
X0047112Y0026758D01*
X0047259Y0026801D01*
X0047407Y0026840D01*
X0047556Y0026876D01*
X0047706Y0026907D01*
X0047857Y0026935D01*
X0048008Y0026959D01*
X0048161Y0026979D01*
X0048313Y0026995D01*
X0048466Y0027007D01*
X0048619Y0027015D01*
X0048772Y0027019D01*
X0048926Y0027019D01*
X0049079Y0027015D01*
X0049232Y0027007D01*
X0049385Y0026995D01*
X0049537Y0026979D01*
X0049690Y0026959D01*
X0049841Y0026935D01*
X0049992Y0026907D01*
X0050142Y0026876D01*
X0050291Y0026840D01*
X0050439Y0026801D01*
X0050586Y0026758D01*
X0050732Y0026711D01*
X0050877Y0026660D01*
X0051020Y0026605D01*
X0051162Y0026547D01*
X0051302Y0026485D01*
X0051441Y0026420D01*
X0051578Y0026351D01*
X0051713Y0026278D01*
X0051846Y0026202D01*
X0051977Y0026122D01*
X0052106Y0026040D01*
X0052233Y0025953D01*
X0052358Y0025864D01*
X0052480Y0025771D01*
X0052599Y0025675D01*
X0052717Y0025576D01*
X0052831Y0025475D01*
X0052943Y0025370D01*
X0053052Y0025262D01*
X0053158Y0025151D01*
X0053262Y0025038D01*
X0053362Y0024922D01*
X0053460Y0024804D01*
X0053554Y0024683D01*
X0053645Y0024560D01*
X0053733Y0024434D01*
X0053817Y0024306D01*
X0053899Y0024176D01*
X0053976Y0024044D01*
X0054051Y0023910D01*
X0054122Y0023774D01*
X0054189Y0023636D01*
X0054253Y0023496D01*
X0054313Y0023355D01*
X0054369Y0023213D01*
X0054422Y0023069D01*
X0054471Y0022923D01*
X0054516Y0022777D01*
X0054557Y0022629D01*
X0054594Y0022481D01*
X0054628Y0022331D01*
X0054658Y0022180D01*
X0054683Y0022029D01*
X0054705Y0021878D01*
X0054723Y0021725D01*
X0054737Y0021573D01*
X0054747Y0021420D01*
X0054753Y0021266D01*
X0054755Y0021113D01*
X0054753Y0020960D01*
X0054747Y0020806D01*
X0054737Y0020653D01*
X0054723Y0020501D01*
X0054705Y0020348D01*
X0054683Y0020197D01*
X0054658Y0020046D01*
X0054628Y0019895D01*
X0054594Y0019745D01*
X0054557Y0019597D01*
X0054516Y0019449D01*
X0054471Y0019303D01*
X0054422Y0019157D01*
X0054369Y0019013D01*
X0054313Y0018871D01*
X0054253Y0018730D01*
X0054189Y0018590D01*
X0054122Y0018452D01*
X0054051Y0018316D01*
X0053976Y0018182D01*
X0053899Y0018050D01*
X0053817Y0017920D01*
X0053733Y0017792D01*
X0053645Y0017666D01*
X0053554Y0017543D01*
X0053460Y0017422D01*
X0053362Y0017304D01*
X0053262Y0017188D01*
X0053158Y0017075D01*
X0053052Y0016964D01*
X0052943Y0016856D01*
X0052831Y0016751D01*
X0052717Y0016650D01*
X0052599Y0016551D01*
X0052480Y0016455D01*
X0052358Y0016362D01*
X0052233Y0016273D01*
X0052106Y0016186D01*
X0051977Y0016104D01*
X0051846Y0016024D01*
X0051713Y0015948D01*
X0051578Y0015875D01*
X0051441Y0015806D01*
X0051302Y0015741D01*
X0051162Y0015679D01*
X0051020Y0015621D01*
X0050877Y0015566D01*
X0050732Y0015515D01*
X0050586Y0015468D01*
X0050439Y0015425D01*
X0050291Y0015386D01*
X0050142Y0015350D01*
X0049992Y0015319D01*
X0049841Y0015291D01*
X0049690Y0015267D01*
X0049537Y0015247D01*
X0049385Y0015231D01*
X0049232Y0015219D01*
X0049079Y0015211D01*
X0048926Y0015207D01*
X0048772Y0015207D01*
X0048619Y0015211D01*
X0048466Y0015219D01*
X0048313Y0015231D01*
X0048161Y0015247D01*
X0048008Y0015267D01*
X0047857Y0015291D01*
X0047706Y0015319D01*
X0047556Y0015350D01*
X0047407Y0015386D01*
X0047259Y0015425D01*
X0047112Y0015468D01*
X0046966Y0015515D01*
X0046821Y0015566D01*
X0046678Y0015621D01*
X0046536Y0015679D01*
X0046396Y0015741D01*
X0046257Y0015806D01*
X0046120Y0015875D01*
X0045985Y0015948D01*
X0045852Y0016024D01*
X0045721Y0016104D01*
X0045592Y0016186D01*
X0045465Y0016273D01*
X0045340Y0016362D01*
X0045218Y0016455D01*
X0045099Y0016551D01*
X0044981Y0016650D01*
X0044867Y0016751D01*
X0044755Y0016856D01*
X0044646Y0016964D01*
X0044540Y0017075D01*
X0044436Y0017188D01*
X0044336Y0017304D01*
X0044238Y0017422D01*
X0044144Y0017543D01*
X0044053Y0017666D01*
X0043965Y0017792D01*
X0043881Y0017920D01*
X0043799Y0018050D01*
X0043722Y0018182D01*
X0043647Y0018316D01*
X0043576Y0018452D01*
X0043509Y0018590D01*
X0043445Y0018730D01*
X0043385Y0018871D01*
X0043329Y0019013D01*
X0043276Y0019157D01*
X0043227Y0019303D01*
X0043182Y0019449D01*
X0043141Y0019597D01*
X0043104Y0019745D01*
X0043070Y0019895D01*
X0043040Y0020046D01*
X0043015Y0020197D01*
X0042993Y0020348D01*
X0042975Y0020501D01*
X0042961Y0020653D01*
X0042951Y0020806D01*
X0042945Y0020960D01*
X0042943Y0021113D01*
X0050434Y0011495D02*
X0051936Y0011495D01*
X0052436Y0010995D01*
X0052436Y0009994D01*
X0051936Y0009493D01*
X0050434Y0009493D01*
X0050442Y0009498D02*
X0051943Y0009498D01*
X0052444Y0009998D01*
X0052444Y0010999D01*
X0051943Y0011500D01*
X0050442Y0011500D01*
X0050442Y0008497D01*
X0050434Y0008493D02*
X0050434Y0011495D01*
X0051443Y0009498D02*
X0052444Y0008497D01*
X0052436Y0008493D02*
X0051435Y0009493D01*
X0053657Y0008993D02*
X0054158Y0008493D01*
X0055159Y0008493D01*
X0055659Y0008993D01*
X0055659Y0009493D01*
X0055159Y0009994D01*
X0054158Y0009994D01*
X0053657Y0010494D01*
X0053657Y0010995D01*
X0054158Y0011495D01*
X0055159Y0011495D01*
X0055659Y0010995D01*
X0055667Y0010999D02*
X0055166Y0011500D01*
X0054165Y0011500D01*
X0053665Y0010999D01*
X0053665Y0010499D01*
X0054165Y0009998D01*
X0055166Y0009998D01*
X0055667Y0009498D01*
X0055667Y0008998D01*
X0055166Y0008497D01*
X0054165Y0008497D01*
X0053665Y0008998D01*
X0056880Y0008493D02*
X0057881Y0009493D01*
X0058882Y0008493D01*
X0058882Y0011495D01*
X0058889Y0011500D02*
X0058889Y0008497D01*
X0057888Y0009498D01*
X0056888Y0008497D01*
X0056888Y0011500D01*
X0056880Y0011495D02*
X0056880Y0008493D01*
X0056565Y0021113D02*
X0056567Y0021266D01*
X0056573Y0021420D01*
X0056583Y0021573D01*
X0056597Y0021725D01*
X0056615Y0021878D01*
X0056637Y0022029D01*
X0056662Y0022180D01*
X0056692Y0022331D01*
X0056726Y0022481D01*
X0056763Y0022629D01*
X0056804Y0022777D01*
X0056849Y0022923D01*
X0056898Y0023069D01*
X0056951Y0023213D01*
X0057007Y0023355D01*
X0057067Y0023496D01*
X0057131Y0023636D01*
X0057198Y0023774D01*
X0057269Y0023910D01*
X0057344Y0024044D01*
X0057421Y0024176D01*
X0057503Y0024306D01*
X0057587Y0024434D01*
X0057675Y0024560D01*
X0057766Y0024683D01*
X0057860Y0024804D01*
X0057958Y0024922D01*
X0058058Y0025038D01*
X0058162Y0025151D01*
X0058268Y0025262D01*
X0058377Y0025370D01*
X0058489Y0025475D01*
X0058603Y0025576D01*
X0058721Y0025675D01*
X0058840Y0025771D01*
X0058962Y0025864D01*
X0059087Y0025953D01*
X0059214Y0026040D01*
X0059343Y0026122D01*
X0059474Y0026202D01*
X0059607Y0026278D01*
X0059742Y0026351D01*
X0059879Y0026420D01*
X0060018Y0026485D01*
X0060158Y0026547D01*
X0060300Y0026605D01*
X0060443Y0026660D01*
X0060588Y0026711D01*
X0060734Y0026758D01*
X0060881Y0026801D01*
X0061029Y0026840D01*
X0061178Y0026876D01*
X0061328Y0026907D01*
X0061479Y0026935D01*
X0061630Y0026959D01*
X0061783Y0026979D01*
X0061935Y0026995D01*
X0062088Y0027007D01*
X0062241Y0027015D01*
X0062394Y0027019D01*
X0062548Y0027019D01*
X0062701Y0027015D01*
X0062854Y0027007D01*
X0063007Y0026995D01*
X0063159Y0026979D01*
X0063312Y0026959D01*
X0063463Y0026935D01*
X0063614Y0026907D01*
X0063764Y0026876D01*
X0063913Y0026840D01*
X0064061Y0026801D01*
X0064208Y0026758D01*
X0064354Y0026711D01*
X0064499Y0026660D01*
X0064642Y0026605D01*
X0064784Y0026547D01*
X0064924Y0026485D01*
X0065063Y0026420D01*
X0065200Y0026351D01*
X0065335Y0026278D01*
X0065468Y0026202D01*
X0065599Y0026122D01*
X0065728Y0026040D01*
X0065855Y0025953D01*
X0065980Y0025864D01*
X0066102Y0025771D01*
X0066221Y0025675D01*
X0066339Y0025576D01*
X0066453Y0025475D01*
X0066565Y0025370D01*
X0066674Y0025262D01*
X0066780Y0025151D01*
X0066884Y0025038D01*
X0066984Y0024922D01*
X0067082Y0024804D01*
X0067176Y0024683D01*
X0067267Y0024560D01*
X0067355Y0024434D01*
X0067439Y0024306D01*
X0067521Y0024176D01*
X0067598Y0024044D01*
X0067673Y0023910D01*
X0067744Y0023774D01*
X0067811Y0023636D01*
X0067875Y0023496D01*
X0067935Y0023355D01*
X0067991Y0023213D01*
X0068044Y0023069D01*
X0068093Y0022923D01*
X0068138Y0022777D01*
X0068179Y0022629D01*
X0068216Y0022481D01*
X0068250Y0022331D01*
X0068280Y0022180D01*
X0068305Y0022029D01*
X0068327Y0021878D01*
X0068345Y0021725D01*
X0068359Y0021573D01*
X0068369Y0021420D01*
X0068375Y0021266D01*
X0068377Y0021113D01*
X0068375Y0020960D01*
X0068369Y0020806D01*
X0068359Y0020653D01*
X0068345Y0020501D01*
X0068327Y0020348D01*
X0068305Y0020197D01*
X0068280Y0020046D01*
X0068250Y0019895D01*
X0068216Y0019745D01*
X0068179Y0019597D01*
X0068138Y0019449D01*
X0068093Y0019303D01*
X0068044Y0019157D01*
X0067991Y0019013D01*
X0067935Y0018871D01*
X0067875Y0018730D01*
X0067811Y0018590D01*
X0067744Y0018452D01*
X0067673Y0018316D01*
X0067598Y0018182D01*
X0067521Y0018050D01*
X0067439Y0017920D01*
X0067355Y0017792D01*
X0067267Y0017666D01*
X0067176Y0017543D01*
X0067082Y0017422D01*
X0066984Y0017304D01*
X0066884Y0017188D01*
X0066780Y0017075D01*
X0066674Y0016964D01*
X0066565Y0016856D01*
X0066453Y0016751D01*
X0066339Y0016650D01*
X0066221Y0016551D01*
X0066102Y0016455D01*
X0065980Y0016362D01*
X0065855Y0016273D01*
X0065728Y0016186D01*
X0065599Y0016104D01*
X0065468Y0016024D01*
X0065335Y0015948D01*
X0065200Y0015875D01*
X0065063Y0015806D01*
X0064924Y0015741D01*
X0064784Y0015679D01*
X0064642Y0015621D01*
X0064499Y0015566D01*
X0064354Y0015515D01*
X0064208Y0015468D01*
X0064061Y0015425D01*
X0063913Y0015386D01*
X0063764Y0015350D01*
X0063614Y0015319D01*
X0063463Y0015291D01*
X0063312Y0015267D01*
X0063159Y0015247D01*
X0063007Y0015231D01*
X0062854Y0015219D01*
X0062701Y0015211D01*
X0062548Y0015207D01*
X0062394Y0015207D01*
X0062241Y0015211D01*
X0062088Y0015219D01*
X0061935Y0015231D01*
X0061783Y0015247D01*
X0061630Y0015267D01*
X0061479Y0015291D01*
X0061328Y0015319D01*
X0061178Y0015350D01*
X0061029Y0015386D01*
X0060881Y0015425D01*
X0060734Y0015468D01*
X0060588Y0015515D01*
X0060443Y0015566D01*
X0060300Y0015621D01*
X0060158Y0015679D01*
X0060018Y0015741D01*
X0059879Y0015806D01*
X0059742Y0015875D01*
X0059607Y0015948D01*
X0059474Y0016024D01*
X0059343Y0016104D01*
X0059214Y0016186D01*
X0059087Y0016273D01*
X0058962Y0016362D01*
X0058840Y0016455D01*
X0058721Y0016551D01*
X0058603Y0016650D01*
X0058489Y0016751D01*
X0058377Y0016856D01*
X0058268Y0016964D01*
X0058162Y0017075D01*
X0058058Y0017188D01*
X0057958Y0017304D01*
X0057860Y0017422D01*
X0057766Y0017543D01*
X0057675Y0017666D01*
X0057587Y0017792D01*
X0057503Y0017920D01*
X0057421Y0018050D01*
X0057344Y0018182D01*
X0057269Y0018316D01*
X0057198Y0018452D01*
X0057131Y0018590D01*
X0057067Y0018730D01*
X0057007Y0018871D01*
X0056951Y0019013D01*
X0056898Y0019157D01*
X0056849Y0019303D01*
X0056804Y0019449D01*
X0056763Y0019597D01*
X0056726Y0019745D01*
X0056692Y0019895D01*
X0056662Y0020046D01*
X0056637Y0020197D01*
X0056615Y0020348D01*
X0056597Y0020501D01*
X0056583Y0020653D01*
X0056573Y0020806D01*
X0056567Y0020960D01*
X0056565Y0021113D01*
X0061887Y0062773D02*
X0061887Y0064274D01*
X0062387Y0064774D01*
X0064389Y0064774D01*
X0064890Y0064274D01*
X0064890Y0062773D01*
X0061887Y0062773D01*
X0062888Y0065995D02*
X0061887Y0066996D01*
X0064890Y0066996D01*
X0064890Y0065995D02*
X0064890Y0067997D01*
X0066103Y0066917D02*
X0069106Y0066917D01*
X0069106Y0065916D02*
X0069106Y0067918D01*
X0067104Y0065916D02*
X0066103Y0066917D01*
X0066604Y0064695D02*
X0066103Y0064195D01*
X0066103Y0062693D01*
X0069106Y0062693D01*
X0069106Y0064195D01*
X0068605Y0064695D01*
X0066604Y0064695D01*
X0068271Y0097950D02*
X0068271Y0100312D01*
X0069452Y0099131D02*
X0067090Y0099131D01*
X0061804Y0106161D02*
X0060804Y0106161D01*
X0060303Y0106661D01*
X0060296Y0106657D02*
X0060796Y0106156D01*
X0061797Y0106156D01*
X0062297Y0106657D01*
X0062297Y0107658D01*
X0061797Y0108158D01*
X0061296Y0108158D01*
X0060296Y0107658D01*
X0060296Y0109159D01*
X0062297Y0109159D01*
X0062305Y0109163D02*
X0060303Y0109163D01*
X0060303Y0107662D01*
X0061304Y0108163D01*
X0061804Y0108163D01*
X0062305Y0107662D01*
X0062305Y0106661D01*
X0061804Y0106161D01*
X0059082Y0106661D02*
X0058582Y0106161D01*
X0057581Y0106161D01*
X0057080Y0106661D01*
X0057080Y0108663D01*
X0057581Y0109163D01*
X0058582Y0109163D01*
X0059082Y0108663D01*
X0059075Y0108658D02*
X0058574Y0109159D01*
X0057573Y0109159D01*
X0057073Y0108658D01*
X0057073Y0106657D01*
X0057573Y0106156D01*
X0058574Y0106156D01*
X0059075Y0106657D01*
X0058417Y0109946D02*
X0058417Y0117820D01*
X0058417Y0109946D02*
X0063142Y0109946D01*
X0065504Y0112309D02*
X0065504Y0115458D01*
X0067079Y0115458D02*
X0067079Y0112309D01*
X0069441Y0109946D02*
X0074165Y0109946D01*
X0074165Y0117820D01*
X0069441Y0117820D01*
X0028058Y0086751D02*
X0028058Y0084749D01*
X0026057Y0086751D01*
X0025556Y0086751D01*
X0025056Y0086251D01*
X0025056Y0085250D01*
X0025556Y0084749D01*
X0025550Y0084743D02*
X0025050Y0085244D01*
X0025050Y0086244D01*
X0025550Y0086745D01*
X0026051Y0086745D01*
X0028052Y0084743D01*
X0028052Y0086745D01*
X0027558Y0083528D02*
X0025556Y0083528D01*
X0025056Y0083028D01*
X0025056Y0081527D01*
X0028058Y0081527D01*
X0028058Y0083028D01*
X0027558Y0083528D01*
X0027552Y0083522D02*
X0025550Y0083522D01*
X0025050Y0083022D01*
X0025050Y0081520D01*
X0028052Y0081520D01*
X0028052Y0083022D01*
X0027552Y0083522D01*
X0139825Y0205459D02*
X0141827Y0205459D01*
X0142327Y0205959D01*
X0142327Y0206960D01*
X0141827Y0207461D01*
X0140826Y0207461D01*
X0140826Y0206460D01*
X0140834Y0206464D02*
X0140834Y0207465D01*
X0141834Y0207465D01*
X0142335Y0206965D01*
X0142335Y0205964D01*
X0141834Y0205464D01*
X0139833Y0205464D01*
X0139332Y0205964D01*
X0139332Y0206965D01*
X0139833Y0207465D01*
X0139825Y0207461D02*
X0139325Y0206960D01*
X0139325Y0205959D01*
X0139825Y0205459D01*
X0139325Y0208682D02*
X0142327Y0210683D01*
X0139325Y0210683D01*
X0139332Y0210688D02*
X0142335Y0210688D01*
X0139332Y0208686D01*
X0142335Y0208686D01*
X0142327Y0208682D02*
X0139325Y0208682D01*
X0139325Y0211904D02*
X0139325Y0213406D01*
X0139825Y0213906D01*
X0141827Y0213906D01*
X0142327Y0213406D01*
X0142327Y0211904D01*
X0139325Y0211904D01*
X0139332Y0211909D02*
X0139332Y0213410D01*
X0139833Y0213911D01*
X0141834Y0213911D01*
X0142335Y0213410D01*
X0142335Y0211909D01*
X0139332Y0211909D01*
X0145112Y0207725D02*
X0148115Y0205723D01*
X0148122Y0205728D02*
X0145120Y0207730D01*
X0145120Y0205728D02*
X0148122Y0207730D01*
X0148115Y0207725D02*
X0145112Y0205723D01*
X0145120Y0204507D02*
X0145120Y0202505D01*
X0145112Y0202501D02*
X0145112Y0204502D01*
X0145120Y0203506D02*
X0148122Y0203506D01*
X0148115Y0203501D02*
X0145112Y0203501D01*
X0152947Y0200442D02*
X0155949Y0198440D01*
X0155957Y0198444D02*
X0152954Y0200446D01*
X0152954Y0198444D02*
X0155957Y0200446D01*
X0155949Y0200442D02*
X0152947Y0198440D01*
X0153455Y0197223D02*
X0154456Y0197223D01*
X0154956Y0196723D01*
X0154956Y0195222D01*
X0154948Y0195217D02*
X0154948Y0196718D01*
X0154448Y0197219D01*
X0153447Y0197219D01*
X0152947Y0196718D01*
X0152947Y0195217D01*
X0155949Y0195217D01*
X0155957Y0195222D02*
X0152954Y0195222D01*
X0152954Y0196723D01*
X0153455Y0197223D01*
X0154948Y0196218D02*
X0155949Y0197219D01*
X0155957Y0197223D02*
X0154956Y0196223D01*
X0159437Y0196118D02*
X0162440Y0196118D01*
X0161439Y0195117D01*
X0162440Y0194116D01*
X0159437Y0194116D01*
X0159445Y0194121D02*
X0162447Y0194121D01*
X0161447Y0195122D01*
X0162447Y0196123D01*
X0159445Y0196123D01*
X0159945Y0192900D02*
X0159445Y0192399D01*
X0159445Y0191399D01*
X0159945Y0190898D01*
X0161947Y0190898D01*
X0162447Y0191399D01*
X0162447Y0192399D01*
X0161947Y0192900D01*
X0159945Y0192900D01*
X0159938Y0192895D02*
X0159437Y0192395D01*
X0159437Y0191394D01*
X0159938Y0190893D01*
X0161939Y0190893D01*
X0162440Y0191394D01*
X0162440Y0192395D01*
X0161939Y0192895D01*
X0159938Y0192895D01*
X0159945Y0189677D02*
X0160946Y0189677D01*
X0161447Y0189177D01*
X0161447Y0187675D01*
X0161439Y0187671D02*
X0161439Y0189172D01*
X0160938Y0189672D01*
X0159938Y0189672D01*
X0159437Y0189172D01*
X0159437Y0187671D01*
X0162440Y0187671D01*
X0162447Y0187675D02*
X0159445Y0187675D01*
X0159445Y0189177D01*
X0159945Y0189677D01*
D11*
X0160031Y0130533D02*
X0162433Y0130533D01*
X0162433Y0128131D01*
X0161632Y0127330D01*
X0160831Y0128131D01*
X0160831Y0130533D01*
X0160824Y0130528D02*
X0160824Y0128126D01*
X0161625Y0127325D01*
X0162425Y0128126D01*
X0162425Y0130528D01*
X0160023Y0130528D01*
X0159222Y0129727D01*
X0159222Y0128126D01*
X0159230Y0128131D02*
X0159230Y0129732D01*
X0160031Y0130533D01*
X0160031Y0125376D02*
X0159230Y0124576D01*
X0159230Y0122173D01*
X0159222Y0122169D02*
X0159222Y0124571D01*
X0160023Y0125372D01*
X0161625Y0125372D01*
X0162425Y0124571D01*
X0162425Y0122169D01*
X0157621Y0122169D01*
X0157629Y0122173D02*
X0162433Y0122173D01*
X0162433Y0124576D01*
X0161632Y0125376D01*
X0160031Y0125376D01*
X0161632Y0120396D02*
X0162433Y0120396D01*
X0162433Y0119595D01*
X0161632Y0119595D01*
X0161632Y0120396D01*
X0161625Y0120391D02*
X0162425Y0120391D01*
X0162425Y0119591D01*
X0161625Y0119591D01*
X0161625Y0120391D01*
X0162433Y0117759D02*
X0161632Y0116958D01*
X0158429Y0116958D01*
X0158422Y0116954D02*
X0161625Y0116954D01*
X0162425Y0117754D01*
X0159230Y0117759D02*
X0159230Y0116158D01*
X0159222Y0116153D02*
X0159222Y0117754D01*
X0162425Y0114317D02*
X0162425Y0112715D01*
X0162433Y0112720D02*
X0162433Y0114321D01*
X0162433Y0113521D02*
X0159230Y0113521D01*
X0159230Y0112720D01*
X0159222Y0112715D02*
X0159222Y0113516D01*
X0162425Y0113516D01*
X0160831Y0110766D02*
X0160831Y0107564D01*
X0160824Y0107559D02*
X0160824Y0110762D01*
X0160023Y0110762D01*
X0159222Y0109961D01*
X0159222Y0108360D01*
X0160023Y0107559D01*
X0161625Y0107559D01*
X0162425Y0108360D01*
X0162425Y0109961D01*
X0162433Y0109966D02*
X0162433Y0108364D01*
X0161632Y0107564D01*
X0160031Y0107564D01*
X0159230Y0108364D01*
X0159230Y0109966D01*
X0160031Y0110766D01*
X0160831Y0110766D01*
X0157629Y0113521D02*
X0156828Y0113521D01*
X0156820Y0113516D02*
X0157621Y0113516D01*
X0159230Y0105610D02*
X0159230Y0103208D01*
X0160031Y0102407D01*
X0161632Y0102407D01*
X0162433Y0103208D01*
X0162433Y0105610D01*
X0162425Y0105605D02*
X0162425Y0103203D01*
X0161625Y0102403D01*
X0160023Y0102403D01*
X0159222Y0103203D01*
X0159222Y0105605D01*
X0160031Y0100454D02*
X0162433Y0100454D01*
X0162425Y0100449D02*
X0160023Y0100449D01*
X0159222Y0099648D01*
X0159222Y0097246D01*
X0162425Y0097246D01*
X0162433Y0097251D02*
X0159230Y0097251D01*
X0159230Y0099653D01*
X0160031Y0100454D01*
X0160031Y0095297D02*
X0162433Y0095297D01*
X0162433Y0092895D01*
X0161632Y0092095D01*
X0160831Y0092895D01*
X0160831Y0095297D01*
X0160824Y0095293D02*
X0160824Y0092891D01*
X0161625Y0092090D01*
X0162425Y0092891D01*
X0162425Y0095293D01*
X0160023Y0095293D01*
X0159222Y0094492D01*
X0159222Y0092891D01*
X0159230Y0092895D02*
X0159230Y0094497D01*
X0160031Y0095297D01*
X0159230Y0090141D02*
X0162433Y0088539D01*
X0159230Y0086938D01*
X0159222Y0086933D02*
X0162425Y0088535D01*
X0159222Y0090136D01*
X0159230Y0084984D02*
X0159230Y0082582D01*
X0160031Y0081782D01*
X0161632Y0081782D01*
X0162433Y0082582D01*
X0162433Y0084984D01*
X0157629Y0084984D01*
X0157621Y0084980D02*
X0162425Y0084980D01*
X0162425Y0082578D01*
X0161625Y0081777D01*
X0160023Y0081777D01*
X0159222Y0082578D01*
X0159222Y0084980D01*
X0160031Y0079828D02*
X0162433Y0079828D01*
X0162433Y0077426D01*
X0161632Y0076625D01*
X0160831Y0077426D01*
X0160831Y0079828D01*
X0160824Y0079823D02*
X0160824Y0077421D01*
X0161625Y0076621D01*
X0162425Y0077421D01*
X0162425Y0079823D01*
X0160023Y0079823D01*
X0159222Y0079023D01*
X0159222Y0077421D01*
X0159230Y0077426D02*
X0159230Y0079027D01*
X0160031Y0079828D01*
X0161632Y0074848D02*
X0162433Y0074848D01*
X0162433Y0074047D01*
X0161632Y0074047D01*
X0161632Y0074848D01*
X0161625Y0074843D02*
X0162425Y0074843D01*
X0162425Y0074042D01*
X0161625Y0074042D01*
X0161625Y0074843D01*
X0161632Y0072093D02*
X0159230Y0072093D01*
X0159222Y0072089D02*
X0161625Y0072089D01*
X0162425Y0071288D01*
X0161625Y0070487D01*
X0162425Y0069687D01*
X0161625Y0068886D01*
X0159222Y0068886D01*
X0159230Y0068891D02*
X0161632Y0068891D01*
X0162433Y0069691D01*
X0161632Y0070492D01*
X0162433Y0071293D01*
X0161632Y0072093D01*
X0161632Y0066937D02*
X0159230Y0066937D01*
X0159222Y0066932D02*
X0161625Y0066932D01*
X0162425Y0066132D01*
X0161625Y0065331D01*
X0162425Y0064530D01*
X0161625Y0063730D01*
X0159222Y0063730D01*
X0159230Y0063734D02*
X0161632Y0063734D01*
X0162433Y0064535D01*
X0161632Y0065336D01*
X0162433Y0066136D01*
X0161632Y0066937D01*
X0161632Y0061781D02*
X0159230Y0061781D01*
X0159222Y0061776D02*
X0161625Y0061776D01*
X0162425Y0060975D01*
X0161625Y0060175D01*
X0162425Y0059374D01*
X0161625Y0058573D01*
X0159222Y0058573D01*
X0159230Y0058578D02*
X0161632Y0058578D01*
X0162433Y0059379D01*
X0161632Y0060179D01*
X0162433Y0060980D01*
X0161632Y0061781D01*
X0105928Y0093409D02*
X0105928Y0119209D01*
X0092928Y0119209D01*
X0092928Y0093409D01*
X0105928Y0093409D01*
X0077088Y0070845D02*
X0069214Y0070845D01*
X0073151Y0074872D01*
X0077088Y0070845D01*
X0035074Y0083593D02*
X0035074Y0090286D01*
X0028775Y0090286D02*
X0028775Y0083593D01*
D12*
X0051179Y0057207D03*
X0051173Y0057197D03*
X0071273Y0049097D03*
X0071279Y0049107D03*
D13*
X0070979Y0049107D03*
X0070973Y0049097D03*
X0052379Y0056607D03*
X0052373Y0056597D03*
D14*
X0070673Y0049097D03*
X0070679Y0049107D03*
D15*
X0070379Y0049257D03*
X0070373Y0049247D03*
D16*
X0070079Y0049257D03*
X0070073Y0049247D03*
D17*
X0069779Y0044157D03*
X0069773Y0044147D03*
X0051479Y0046857D03*
X0051473Y0046847D03*
D18*
X0059579Y0040107D03*
X0059573Y0040097D03*
X0062873Y0039197D03*
X0062879Y0039207D03*
X0063173Y0039197D03*
X0063179Y0039207D03*
X0063473Y0039197D03*
X0063479Y0039207D03*
X0063773Y0039197D03*
X0063779Y0039207D03*
X0064073Y0039197D03*
X0064079Y0039207D03*
X0064373Y0039197D03*
X0064379Y0039207D03*
X0064673Y0039197D03*
X0064679Y0039207D03*
X0064973Y0039197D03*
X0064979Y0039207D03*
X0065573Y0039497D03*
X0065579Y0039507D03*
X0069473Y0043397D03*
X0069479Y0043407D03*
X0069773Y0054797D03*
X0069779Y0054807D03*
D19*
X0069473Y0055697D03*
X0069479Y0055707D03*
X0068879Y0042207D03*
X0068873Y0042197D03*
X0068579Y0041607D03*
X0068573Y0041597D03*
X0068279Y0041307D03*
X0068273Y0041297D03*
X0067979Y0041007D03*
X0067973Y0040997D03*
X0067679Y0040707D03*
X0067673Y0040697D03*
X0067379Y0040407D03*
X0067373Y0040397D03*
X0059279Y0039807D03*
X0059273Y0039797D03*
X0050273Y0057497D03*
X0050279Y0057507D03*
X0053573Y0059897D03*
X0053579Y0059907D03*
X0053873Y0060197D03*
X0053879Y0060207D03*
D20*
X0053279Y0059757D03*
X0053273Y0059747D03*
X0050879Y0046857D03*
X0050873Y0046847D03*
X0065273Y0039347D03*
X0065279Y0039357D03*
X0065873Y0039647D03*
X0065879Y0039657D03*
X0066173Y0039647D03*
X0066179Y0039657D03*
X0066473Y0039947D03*
X0066479Y0039957D03*
X0066773Y0039947D03*
X0066779Y0039957D03*
X0067073Y0040247D03*
X0067079Y0040257D03*
X0069173Y0042647D03*
X0069179Y0042657D03*
D21*
X0071579Y0048957D03*
X0069173Y0056447D03*
X0069179Y0056457D03*
X0055679Y0061257D03*
X0055673Y0061247D03*
X0055079Y0060957D03*
X0055073Y0060947D03*
X0050579Y0046857D03*
X0050573Y0046847D03*
X0052979Y0044157D03*
X0052973Y0044147D03*
X0053279Y0043857D03*
X0053273Y0043847D03*
X0058979Y0039657D03*
X0058973Y0039647D03*
D22*
X0058679Y0039507D03*
X0058673Y0039497D03*
X0056573Y0042497D03*
X0056579Y0042507D03*
X0064673Y0049397D03*
X0064679Y0049407D03*
X0068873Y0057197D03*
X0068879Y0057207D03*
X0056879Y0061707D03*
X0056873Y0061697D03*
X0056279Y0061407D03*
X0056273Y0061397D03*
X0055979Y0061407D03*
X0055973Y0061397D03*
X0055379Y0061107D03*
X0055373Y0061097D03*
X0049979Y0057507D03*
X0049973Y0057497D03*
D23*
X0056573Y0061547D03*
X0056579Y0061557D03*
X0057173Y0061847D03*
X0057179Y0061857D03*
X0057473Y0061847D03*
X0057479Y0061857D03*
X0063173Y0061247D03*
X0063179Y0061257D03*
X0067973Y0058547D03*
X0067979Y0058557D03*
X0068279Y0058257D03*
X0068273Y0058247D03*
X0068579Y0057657D03*
X0068573Y0057647D03*
X0064979Y0049557D03*
X0064973Y0049547D03*
D24*
X0064373Y0054197D03*
X0064379Y0054207D03*
X0067673Y0058997D03*
X0067679Y0059007D03*
X0067373Y0059297D03*
X0067379Y0059307D03*
X0067073Y0059597D03*
X0067079Y0059607D03*
X0063479Y0061107D03*
X0063473Y0061097D03*
X0058679Y0062307D03*
X0058673Y0062297D03*
X0058379Y0062307D03*
X0058373Y0062297D03*
X0058079Y0062007D03*
X0058073Y0061997D03*
X0057779Y0062007D03*
X0057773Y0061997D03*
X0056879Y0042507D03*
X0056873Y0042497D03*
D25*
X0058379Y0039357D03*
X0058373Y0039347D03*
X0064373Y0048647D03*
X0064379Y0048657D03*
X0066773Y0059747D03*
X0066779Y0059757D03*
X0066473Y0060047D03*
X0066479Y0060057D03*
X0066173Y0060347D03*
X0066179Y0060357D03*
X0059279Y0062457D03*
X0059273Y0062447D03*
X0058979Y0062457D03*
X0058973Y0062447D03*
X0052679Y0052557D03*
X0052673Y0052547D03*
X0052979Y0051657D03*
X0052973Y0051647D03*
D26*
X0054173Y0051197D03*
X0054179Y0051207D03*
X0050279Y0047007D03*
X0050273Y0046997D03*
X0057173Y0042797D03*
X0057179Y0042807D03*
X0065273Y0049697D03*
X0065279Y0049707D03*
X0065573Y0060497D03*
X0065579Y0060507D03*
X0065873Y0060497D03*
X0065879Y0060507D03*
X0065279Y0060807D03*
X0065273Y0060797D03*
X0064979Y0060807D03*
X0064973Y0060797D03*
X0064679Y0060807D03*
X0064673Y0060797D03*
X0064379Y0060807D03*
X0064373Y0060797D03*
X0059879Y0062607D03*
X0059873Y0062597D03*
X0059579Y0062607D03*
X0059573Y0062597D03*
D27*
X0055979Y0053607D03*
X0055973Y0053597D03*
X0055679Y0053307D03*
X0055673Y0053297D03*
X0064973Y0052397D03*
X0064979Y0052407D03*
X0057479Y0038907D03*
X0057473Y0038897D03*
D28*
X0058073Y0039197D03*
X0058079Y0039207D03*
X0057473Y0042797D03*
X0057479Y0042807D03*
X0053573Y0051197D03*
X0053579Y0051207D03*
X0061673Y0059597D03*
X0061679Y0059607D03*
X0061973Y0059597D03*
X0061979Y0059607D03*
X0062273Y0059897D03*
X0062279Y0059907D03*
X0062573Y0060197D03*
X0062579Y0060207D03*
X0061673Y0062897D03*
X0061679Y0062907D03*
X0061379Y0062907D03*
X0061373Y0062897D03*
X0061079Y0062907D03*
X0061073Y0062897D03*
X0064679Y0053007D03*
X0064673Y0052997D03*
X0063779Y0048207D03*
X0063773Y0048197D03*
X0063479Y0047907D03*
X0063473Y0047897D03*
D29*
X0064073Y0048347D03*
X0064079Y0048357D03*
X0053879Y0051057D03*
X0053873Y0051047D03*
X0053273Y0051647D03*
X0053279Y0051657D03*
X0062873Y0060347D03*
X0062879Y0060357D03*
X0064073Y0060647D03*
X0064079Y0060657D03*
X0060779Y0062757D03*
X0060773Y0062747D03*
X0060479Y0062757D03*
X0060473Y0062747D03*
X0060179Y0062757D03*
X0060173Y0062747D03*
D30*
X0063779Y0059607D03*
X0063773Y0059597D03*
X0064079Y0056907D03*
X0064073Y0056897D03*
X0054779Y0060807D03*
X0054773Y0060797D03*
X0051779Y0045207D03*
X0051773Y0045197D03*
X0052079Y0044907D03*
X0052073Y0044897D03*
X0052379Y0044607D03*
X0052373Y0044597D03*
X0052679Y0044307D03*
X0052673Y0044297D03*
X0053579Y0043707D03*
X0053573Y0043697D03*
X0053879Y0043407D03*
X0053873Y0043397D03*
X0054179Y0043107D03*
X0054173Y0043097D03*
X0054473Y0043097D03*
X0054479Y0043107D03*
X0054779Y0042807D03*
X0054773Y0042797D03*
X0055373Y0042497D03*
X0055379Y0042507D03*
X0055973Y0042197D03*
X0055979Y0042207D03*
X0056273Y0042197D03*
X0056279Y0042207D03*
D31*
X0057779Y0039057D03*
X0057773Y0039047D03*
X0062573Y0047747D03*
X0062579Y0047757D03*
X0062873Y0047747D03*
X0062879Y0047757D03*
X0063173Y0047747D03*
X0063179Y0047757D03*
X0055679Y0049557D03*
X0055673Y0049547D03*
X0054773Y0050147D03*
X0054779Y0050157D03*
X0054473Y0050447D03*
X0054479Y0050457D03*
X0051779Y0049557D03*
X0051773Y0049547D03*
X0059873Y0057647D03*
X0059879Y0057657D03*
X0060173Y0057947D03*
X0060179Y0057957D03*
X0060473Y0058247D03*
X0060479Y0058257D03*
X0062873Y0062447D03*
X0062879Y0062457D03*
X0062279Y0062757D03*
X0062273Y0062747D03*
X0061979Y0062757D03*
X0061973Y0062747D03*
D32*
X0052979Y0059457D03*
X0052973Y0059447D03*
X0051179Y0046857D03*
X0051173Y0046847D03*
X0059879Y0039957D03*
X0059873Y0039947D03*
X0060173Y0039947D03*
X0060179Y0039957D03*
X0060473Y0039947D03*
X0060479Y0039957D03*
X0060779Y0039657D03*
X0060773Y0039647D03*
X0061073Y0039647D03*
X0061079Y0039657D03*
X0061373Y0039647D03*
X0061379Y0039657D03*
X0061679Y0039357D03*
X0061673Y0039347D03*
X0061973Y0039347D03*
X0061979Y0039357D03*
X0062273Y0039347D03*
X0062279Y0039357D03*
X0062573Y0039347D03*
X0062579Y0039357D03*
D33*
X0057773Y0043097D03*
X0057779Y0043107D03*
X0058973Y0047897D03*
X0058979Y0047907D03*
X0059273Y0047897D03*
X0059279Y0047907D03*
X0059573Y0047897D03*
X0059579Y0047907D03*
X0059873Y0047897D03*
X0059879Y0047907D03*
X0060179Y0047607D03*
X0060173Y0047597D03*
X0060473Y0047597D03*
X0060479Y0047607D03*
X0060773Y0047597D03*
X0060779Y0047607D03*
X0061073Y0047597D03*
X0061079Y0047607D03*
X0061373Y0047597D03*
X0061379Y0047607D03*
X0061673Y0047597D03*
X0061679Y0047607D03*
X0061973Y0047597D03*
X0061979Y0047607D03*
X0062273Y0047597D03*
X0062279Y0047607D03*
X0058679Y0048207D03*
X0058673Y0048197D03*
X0058379Y0048207D03*
X0058373Y0048197D03*
X0058079Y0048207D03*
X0058073Y0048197D03*
X0057773Y0048497D03*
X0057779Y0048507D03*
X0057479Y0048507D03*
X0057473Y0048497D03*
X0057173Y0048797D03*
X0057179Y0048807D03*
X0056879Y0048807D03*
X0056873Y0048797D03*
X0056573Y0049097D03*
X0056579Y0049107D03*
X0056279Y0049107D03*
X0056273Y0049097D03*
X0055973Y0049397D03*
X0055979Y0049407D03*
X0055379Y0049707D03*
X0055373Y0049697D03*
X0055073Y0049997D03*
X0055079Y0050007D03*
X0052379Y0050307D03*
X0052373Y0050297D03*
X0052079Y0050007D03*
X0052073Y0049997D03*
X0058373Y0055997D03*
X0058379Y0056007D03*
X0058673Y0056297D03*
X0058679Y0056307D03*
X0058973Y0056597D03*
X0058979Y0056607D03*
X0059273Y0056897D03*
X0059279Y0056907D03*
X0059573Y0057197D03*
X0059579Y0057207D03*
X0062573Y0062597D03*
X0062579Y0062607D03*
D34*
X0061379Y0059757D03*
X0061373Y0059747D03*
X0058079Y0043257D03*
X0058073Y0043247D03*
D35*
X0052673Y0050447D03*
X0052679Y0050457D03*
X0054473Y0052247D03*
X0054479Y0052257D03*
X0054773Y0052547D03*
X0054779Y0052557D03*
X0055073Y0052847D03*
X0055079Y0052857D03*
X0055373Y0053147D03*
X0055379Y0053157D03*
X0056273Y0053747D03*
X0056279Y0053757D03*
X0056573Y0054047D03*
X0056579Y0054057D03*
X0056873Y0054347D03*
X0056879Y0054357D03*
X0057173Y0054647D03*
X0057179Y0054657D03*
X0057473Y0054947D03*
X0057479Y0054957D03*
X0057773Y0055247D03*
X0057779Y0055257D03*
X0058073Y0055547D03*
X0058079Y0055557D03*
D36*
X0054173Y0060347D03*
X0054179Y0060357D03*
X0054473Y0060647D03*
X0054479Y0060657D03*
X0055079Y0042657D03*
X0055073Y0042647D03*
X0055673Y0042347D03*
X0055679Y0042357D03*
D37*
X0050573Y0057197D03*
X0050579Y0057207D03*
X0052673Y0058997D03*
X0052679Y0059007D03*
D38*
X0052079Y0056907D03*
X0052073Y0056897D03*
D39*
X0051779Y0056907D03*
X0051773Y0056897D03*
D40*
X0051479Y0056907D03*
X0051473Y0056897D03*
D41*
X0050879Y0057207D03*
X0050873Y0057197D03*
D42*
X0065651Y0062705D02*
X0065651Y0080505D01*
X0060003Y0094997D02*
X0060003Y0105627D01*
X0072602Y0105627D01*
X0072602Y0094997D01*
X0060003Y0094997D01*
X0080651Y0080505D02*
X0080651Y0062705D01*
X0080325Y0173044D02*
X0079458Y0173911D01*
X0080325Y0173044D02*
X0082060Y0173044D01*
X0082927Y0173911D01*
X0082927Y0174779D01*
X0082060Y0175646D01*
X0080325Y0175646D01*
X0079458Y0176514D01*
X0079458Y0177381D01*
X0080325Y0178249D01*
X0082060Y0178249D01*
X0082927Y0177381D01*
X0084614Y0178249D02*
X0087216Y0178249D01*
X0088084Y0177381D01*
X0088084Y0175646D01*
X0087216Y0174779D01*
X0084614Y0174779D01*
X0084614Y0173044D02*
X0084614Y0178249D01*
X0077771Y0178249D02*
X0074301Y0178249D01*
X0074301Y0173044D01*
X0077771Y0173044D01*
X0076036Y0175646D02*
X0074301Y0175646D01*
X0094927Y0175646D02*
X0098396Y0175646D01*
X0105240Y0176514D02*
X0106974Y0178249D01*
X0106974Y0173044D01*
X0105240Y0173044D02*
X0108709Y0173044D01*
X0110396Y0173044D02*
X0113866Y0176514D01*
X0113866Y0177381D01*
X0112998Y0178249D01*
X0111263Y0178249D01*
X0110396Y0177381D01*
X0110396Y0173044D02*
X0113866Y0173044D01*
D43*
X0101026Y0192135D02*
X0075435Y0192135D01*
X0075435Y0194498D01*
X0075435Y0194891D02*
X0075435Y0214183D01*
X0078979Y0214183D01*
X0078979Y0199616D01*
X0082916Y0199616D01*
X0082916Y0213789D01*
X0087640Y0213789D01*
X0087640Y0199616D01*
X0092365Y0199616D01*
X0092365Y0213789D01*
X0096695Y0213789D01*
X0096695Y0200009D01*
X0101026Y0200009D01*
X0101026Y0213789D01*
X0116774Y0213789D01*
D44*
X0097368Y0055418D03*
D45*
X0031974Y0090089D03*
D46*
X0059806Y0100312D03*
X0072798Y0100312D03*
D47*
X0071322Y0100312D03*
D48*
X0144361Y0098643D02*
X0144361Y0093643D01*
X0146861Y0091143D01*
X0151861Y0091143D01*
X0154361Y0093643D01*
X0154361Y0098643D01*
X0151861Y0101143D01*
X0146861Y0101143D01*
X0144361Y0098643D01*
X0146861Y0101143D02*
X0144361Y0103643D01*
X0144361Y0108643D01*
X0146861Y0111143D01*
X0144361Y0113643D01*
X0144361Y0118643D01*
X0146861Y0121143D01*
X0144361Y0123643D01*
X0144361Y0128643D01*
X0146861Y0131143D01*
X0151861Y0131143D01*
X0154361Y0128643D01*
X0154361Y0123643D01*
X0151861Y0121143D01*
X0154361Y0118643D01*
X0154361Y0113643D01*
X0151861Y0111143D01*
X0154361Y0108643D01*
X0154361Y0103643D01*
X0151861Y0101143D01*
X0151861Y0111143D02*
X0146861Y0111143D01*
X0146861Y0121143D02*
X0151861Y0121143D01*
X0151861Y0131143D02*
X0154361Y0133643D01*
X0154361Y0138643D01*
X0151861Y0141143D01*
X0154361Y0143643D01*
X0154361Y0148643D01*
X0151861Y0151143D01*
X0154361Y0153643D01*
X0154361Y0158643D01*
X0151861Y0161143D01*
X0154361Y0163643D01*
X0154361Y0168643D01*
X0151861Y0171143D01*
X0146861Y0171143D01*
X0144361Y0168643D01*
X0144361Y0163643D01*
X0146861Y0161143D01*
X0151861Y0161143D01*
X0146861Y0161143D02*
X0144361Y0158643D01*
X0144361Y0153643D01*
X0146861Y0151143D01*
X0151861Y0151143D01*
X0146861Y0151143D02*
X0144361Y0148643D01*
X0144361Y0143643D01*
X0146861Y0141143D01*
X0151861Y0141143D01*
X0146861Y0141143D02*
X0144361Y0138643D01*
X0144361Y0133643D01*
X0146861Y0131143D01*
X0146861Y0091143D02*
X0144361Y0088643D01*
X0144361Y0083643D01*
X0146861Y0081143D01*
X0151861Y0081143D01*
X0154361Y0083643D01*
X0154361Y0088643D01*
X0151861Y0091143D01*
M02*
