%
M48
M72
T01C0.0197
T02C0.0236
T03C0.0354
T04C0.0394
T05C0.0400
T06C0.1102
%
T01
X3861Y14539
X3014Y16216
X7132Y16157
X7310Y14976
X9483Y16110
X10840Y15558
X11652Y13563
T02
X10314Y12937
X9459Y12818
X8699Y12129
X8062Y12736
X6640Y12220
X5341Y10803
X5467Y9013
X3757Y9233
X5431Y6858
X8645Y8960
X11034Y4874
X11852Y3109
X14033Y3879
X14897Y3482
X5215Y12822
X2987Y14255
X2408Y12925
X943Y11377
X1013Y14885
X1102Y18652
X3897Y19624
X8825Y17157
X11180Y18533
T03
X4282Y7047
X4282Y5787
X4282Y4921
X4282Y4055
X2274Y4055
X2274Y4921
X2274Y5787
X2274Y7047
T04
X2130Y2111
X3508Y2111
X4877Y2111
X6255Y2111
X7633Y2109
X9011Y2109
X10398Y2107
X11776Y2107
X13132Y2109
X14510Y2109
T05
X14936Y8614
X14936Y9614
X14936Y10614
X14936Y11614
X14936Y12614
X14936Y13614
X14936Y14614
X14936Y15614
X14936Y16614
X15401Y18401
X14696Y19109
X13990Y19818
X13284Y20526
T06
X15447Y20832
M30
