G75*
%MOIN*%
%OFA0B0*%
%FSLAX25Y25*%
%IPPOS*%
%LPD*%
%AMOC8*
5,1,8,0,0,1.08239X$1,22.5*
%
%ADD10C,0.11824*%
%ADD11R,0.10249X0.10249*%
%ADD12R,0.07099X0.09461*%
%ADD13R,0.12611X0.05524*%
%ADD14R,0.04737X0.03517*%
%ADD15R,0.08083X0.08083*%
%ADD16C,0.08083*%
%ADD17R,0.05918X0.06706*%
%ADD18R,0.07099X0.08674*%
%ADD19R,0.07099X0.11430*%
%ADD20R,0.05603X0.04383*%
%ADD21R,0.05524X0.05524*%
%ADD22R,0.04737X0.06312*%
%ADD23R,0.09600X0.05600*%
%ADD24R,0.11430X0.15367*%
%ADD25R,0.07099X0.10249*%
%ADD26C,0.06800*%
%ADD27R,0.06706X0.05918*%
%ADD28C,0.06343*%
%ADD29C,0.04762*%
%ADD30C,0.04369*%
D10*
X0154467Y0208321D03*
D11*
X0073151Y0080266D03*
X0073151Y0062943D03*
D12*
X0092911Y0076864D03*
X0103935Y0076864D03*
D13*
X0126617Y0128750D03*
X0126617Y0136624D03*
X0126617Y0144498D03*
X0126617Y0152372D03*
X0126617Y0160246D03*
X0126617Y0168120D03*
X0126617Y0175994D03*
X0126617Y0183868D03*
X0062050Y0183868D03*
X0062050Y0175994D03*
X0062050Y0168120D03*
X0062050Y0160246D03*
X0062050Y0152372D03*
X0062050Y0144498D03*
X0062050Y0136624D03*
X0062050Y0128750D03*
D14*
X0094750Y0051658D03*
X0094750Y0047918D03*
X0094750Y0044178D03*
X0104986Y0044178D03*
X0104986Y0047918D03*
X0104986Y0051658D03*
D15*
X0117759Y0021073D03*
X0145095Y0021093D03*
X0090111Y0021087D03*
X0062550Y0021113D03*
X0035081Y0021113D03*
D16*
X0021302Y0021113D03*
X0048770Y0021113D03*
X0076331Y0021087D03*
X0103980Y0021073D03*
X0131316Y0021093D03*
D17*
X0103647Y0061570D03*
X0096167Y0061570D03*
X0070031Y0113883D03*
X0062551Y0113883D03*
X0045359Y0115594D03*
X0037878Y0115594D03*
X0037872Y0127984D03*
X0045352Y0127984D03*
X0045458Y0140153D03*
X0037978Y0140153D03*
X0037781Y0152161D03*
X0045261Y0152161D03*
X0045261Y0164680D03*
X0037781Y0164680D03*
X0037809Y0177051D03*
X0045289Y0177051D03*
X0042207Y0188839D03*
X0049687Y0188839D03*
X0025475Y0178446D03*
X0017994Y0178446D03*
X0015947Y0161871D03*
X0023428Y0161871D03*
X0023428Y0149430D03*
X0015947Y0149430D03*
X0015943Y0136179D03*
X0023423Y0136179D03*
X0023387Y0121180D03*
X0015907Y0121180D03*
X0037854Y0101743D03*
X0045334Y0101743D03*
D18*
X0031780Y0193165D03*
X0037291Y0204109D03*
X0056976Y0204109D03*
X0012094Y0193165D03*
D19*
X0116328Y0076931D03*
X0127352Y0076931D03*
D20*
X0031924Y0080542D03*
X0031924Y0093337D03*
D21*
X0046174Y0091097D03*
X0046174Y0082829D03*
D22*
X0022583Y0103601D03*
X0018843Y0094939D03*
X0015102Y0103601D03*
D23*
X0087228Y0106309D03*
X0087228Y0115409D03*
X0087228Y0097209D03*
D24*
X0110058Y0106309D03*
D25*
X0072208Y0100312D03*
X0060397Y0100312D03*
D26*
X0137772Y0196060D02*
X0142022Y0200295D01*
X0134964Y0207378D02*
X0130714Y0203143D01*
X0144831Y0188976D02*
X0149081Y0193211D01*
X0156140Y0186128D02*
X0151890Y0181893D01*
X0152361Y0166143D02*
X0146361Y0166143D01*
X0146361Y0156143D02*
X0152361Y0156143D01*
X0152361Y0146143D02*
X0146361Y0146143D01*
X0146361Y0136143D02*
X0152361Y0136143D01*
X0152361Y0126143D02*
X0146361Y0126143D01*
X0146361Y0116143D02*
X0152361Y0116143D01*
X0152361Y0106143D02*
X0146361Y0106143D01*
X0146361Y0096143D02*
X0152361Y0096143D01*
X0152361Y0086143D02*
X0146361Y0086143D01*
D27*
X0127332Y0065451D03*
X0127332Y0057971D03*
X0117781Y0051373D03*
X0117781Y0043893D03*
X0081797Y0044169D03*
X0081797Y0051649D03*
D28*
X0042820Y0049208D03*
X0042820Y0057869D03*
X0042820Y0070468D03*
X0022742Y0070468D03*
X0022742Y0057869D03*
X0022742Y0049208D03*
X0022742Y0040546D03*
X0042820Y0040546D03*
D29*
X0054310Y0068576D03*
X0054669Y0090128D03*
X0053411Y0108027D03*
X0066403Y0122200D03*
X0052151Y0128224D03*
X0029868Y0142554D03*
X0024084Y0129247D03*
X0009435Y0113775D03*
X0010130Y0148845D03*
X0011018Y0186524D03*
X0038971Y0196239D03*
X0088254Y0171570D03*
X0111796Y0185333D03*
X0103135Y0129365D03*
X0094592Y0128184D03*
X0086994Y0121294D03*
X0080616Y0127357D03*
X0086454Y0089605D03*
X0110340Y0048735D03*
X0118519Y0031092D03*
X0140333Y0038786D03*
X0148966Y0034824D03*
X0037575Y0092327D03*
D30*
X0038608Y0145389D03*
X0030143Y0162161D03*
X0071324Y0161570D03*
X0073096Y0149759D03*
X0094828Y0161098D03*
X0108400Y0155585D03*
X0116521Y0135625D03*
M02*
